<svg xmlns="http://www.w3.org/2000/svg" width="224.704" height="52" viewBox="0 0 224.704 52"><defs><style>.a{fill:navy;}</style></defs><g transform="translate(-21.5 -254.8)"><g transform="translate(21.5 290.821)"><path class="a" d="M-278.43-1422.224h-4.07V-1438.2h12.939a2.454,2.454,0,0,1,1.716.683,2.323,2.323,0,0,1,.714,1.686v5.953a2.393,2.393,0,0,1-.683,1.693,2.142,2.142,0,0,1-1.5.554h-9.112v5.406Zm0-12.817v4.131h7.593v-4.131Z" transform="translate(303.033 1438.202)"/><path class="a" d="M312.743,314.1,306,330.077h3.949l1.458-3.463h7.9l1.458,3.463h4.192l-6.8-15.977Zm-.061,9.416,2.612-6.2,2.612,6.2Z" transform="translate(-133.174 -314.098)"/><path class="a" d="M231.058,330.077h2.977l4.192-8.991v8.991h3.706V314.1H237.5l-4.921,11.6-4.921-11.6H223.1v15.977h3.766v-8.991Z" transform="translate(-100.634 -314.098)"/><path class="a" d="M93.158,330.077h2.977l4.192-8.991v8.991h3.766V314.1H99.658l-4.981,11.6-4.921-11.6H85.2v15.977h3.766v-8.991Z" transform="translate(-46.504 -314.098)"/><path class="a" d="M178.262,314.1v3.28H167.449v3.28H176.5v3.159h-8.991V326.8h10.752v3.28H163.5V314.1Z" transform="translate(-77.239 -314.098)"/><path class="a" d="M28.3,314.1l-6.8,15.977h3.949l1.458-3.463h7.9l1.458,3.463h4.192L33.71,314.1Zm-.061,9.416,2.612-6.2,2.612,6.2Z" transform="translate(-21.5 -314.098)"/><path class="a" d="M344.47,314.1H340.4v15.977h14.276v-3.341H344.47Z" transform="translate(-146.677 -314.098)"/><path class="a" d="M274.6,314.1v15.977h4.009V319.021l8.565,11.056h4.435V314.1h-4.07v11l-8.383-11Z" transform="translate(-120.849 -314.098)"/><rect class="a" width="3.949" height="15.977" transform="translate(145.55 0.002)"/><path class="a" d="M132.9,314.1v3.4h6.257v12.575h4.192V317.5h6.257v-3.4Z" transform="translate(-65.228 -314.098)"/><path class="a" d="M368.469,314.1a2.307,2.307,0,0,0-2.248,2.126v5.224a2.245,2.245,0,0,0,2.187,2.308H377.4v3.1h-7.107V325.58H366.1v2.187a2.379,2.379,0,0,0,2.248,2.308h10.935a2.261,2.261,0,0,0,2.187-2.369v-4.981a2.31,2.31,0,0,0-2.248-2.369h-8.808v-2.977h6.925v1.033h3.949v-2.126a2.229,2.229,0,0,0-2.248-2.187Z" transform="translate(-156.765 -314.096)"/><path class="a" d="M-278.552-1422.223H-282.5V-1438.2h12.7a2.455,2.455,0,0,1,1.716.683,2.323,2.323,0,0,1,.714,1.686v5.406a2.284,2.284,0,0,1-2.126,2.37h-.365l3.158,5.83h-4.252l-3.1-5.831h-4.5v5.831Zm-.061-12.7v3.645h7.593v-3.645Z" transform="translate(386.195 1438.202)"/></g><path class="a" d="M493.345,323.463V314.9h1.4v8.565Zm-53.032,0v-6.318h1.4v6.378h-1.4Zm0-7.107v-1.519h1.4v1.519ZM434.785,298.8l-31.467,18.1v1.7l31.467-15.491Zm12.392,5.042v-4.313l-18.346,9.112v2.43l18.346-7.229ZM397,325.59v-1.336l20.411-10.084v2.491L397,325.59Zm130.667-6.014a1.642,1.642,0,0,0-.3-.972,1.226,1.226,0,0,0-1.093-.547,1.316,1.316,0,0,0-1.154.607,1.806,1.806,0,0,0-.3.911Zm1.4,2.065a2.715,2.715,0,0,1-2.794,1.944c-2.065,0-2.916-1.7-2.916-3.28,0-1.883,1.093-3.341,2.977-3.341,2.065,0,2.916,1.64,2.855,3.463h-4.313a2.36,2.36,0,0,0,.365,1.458,1.25,1.25,0,0,0,1.154.607,1.316,1.316,0,0,0,1.4-1.033Zm-8.444-1.883a1.479,1.479,0,0,0-.365-1.154,1.268,1.268,0,0,0-.972-.486c-1.276,0-1.336,1.7-1.336,2.187,0,.425,0,2.126,1.336,2.126a1.478,1.478,0,0,0,1.336-1.64v-1.033Zm.061,3.706v-1.276a1.972,1.972,0,0,1-1.883,1.4c-2.187,0-2.369-2.734-2.369-3.4,0-1.215.547-3.341,2.491-3.341a1.718,1.718,0,0,1,1.7,1.093v-3.1h1.4V323.4l-1.336.061Zm-6.925-3.22a7.987,7.987,0,0,0-1.762.182,1.16,1.16,0,0,0-1.033,1.093.969.969,0,0,0,1.093.972,1.6,1.6,0,0,0,1.64-1.7v-.547Zm1.4,1.944a4.363,4.363,0,0,0,.182,1.276H514a4.733,4.733,0,0,1-.243-1.276,2.077,2.077,0,0,1-2.126,1.4,1.915,1.915,0,0,1-2.065-1.944c0-2.126,2.855-2.187,4.252-2.187v-.486c0-.79-.729-.972-1.336-.972-1.276,0-1.4.668-1.458.972l-1.215-.182c.243-1.458,1.579-1.822,2.855-1.822a3.014,3.014,0,0,1,1.944.486,2.005,2.005,0,0,1,.668,1.883v2.855Zm-9.78-5.042h1.276v1.519c.182-.486.607-1.762,1.944-1.7v1.519a1.734,1.734,0,0,0-1.336.486,3.058,3.058,0,0,0-.486,1.883V323.4h-1.4Zm-4.435,6.318v-7.29h-2.248v-1.336h6.2v1.336h-2.248v7.29ZM490,320.244a7.987,7.987,0,0,0-1.762.182,1.16,1.16,0,0,0-1.033,1.093.969.969,0,0,0,1.093.972,1.6,1.6,0,0,0,1.64-1.7v-.547Zm1.4,1.944a4.363,4.363,0,0,0,.182,1.276h-1.336a4.736,4.736,0,0,1-.243-1.276,2.077,2.077,0,0,1-2.126,1.4,1.915,1.915,0,0,1-2.065-1.944c0-2.126,2.855-2.187,4.252-2.187v-.486c0-.79-.729-.972-1.336-.972-1.276,0-1.4.668-1.458.972l-1.215-.182c.243-1.458,1.579-1.822,2.855-1.822a3.014,3.014,0,0,1,1.944.486,2.005,2.005,0,0,1,.668,1.883l-.121,2.855Zm-10.813-1.4c0,1.215.607,1.64,1.336,1.64,1.336,0,1.336-1.579,1.336-2.308,0-.668-.121-2.065-1.336-2.065-.607,0-1.336.425-1.336,1.762v.972Zm-1.4,2.673V314.9h1.4V318a1.869,1.869,0,0,1,1.762-1.154c1.215,0,2.43.972,2.43,3.341a4.006,4.006,0,0,1-.729,2.491,2.126,2.126,0,0,1-1.883.911,2.018,2.018,0,0,1-1.944-1.154l-.365,1.033h-.668Zm-4.252-5.285c-1.154,0-1.458,1.154-1.458,2.126,0,.3,0,2.126,1.4,2.126,1.336,0,1.458-1.519,1.458-2.187,0-1.093-.3-2.065-1.4-2.065Zm-.061,5.406c-2.126,0-2.916-1.883-2.916-3.341a2.97,2.97,0,1,1,2.916,3.341Zm-5.71-.122V314.9h1.4v8.565Zm-1.883,0h-.668l-.486-1.154a2.5,2.5,0,0,1-2.308,1.276c-3.159,0-3.463-3.463-3.463-4.435,0-1.883.911-4.435,3.645-4.435a2.906,2.906,0,0,1,2.43,1.093,4.158,4.158,0,0,1,.729,1.519l-1.336.243A1.773,1.773,0,0,0,464,315.991a1.709,1.709,0,0,0-1.458.729,3.369,3.369,0,0,0-.607,2.308c0,1.519.364,3.28,2.065,3.28a1.84,1.84,0,0,0,1.822-2h-1.762v-1.276h3.22v4.435Zm-14.154-5.589a1.074,1.074,0,0,0-1.215,1.033,1.025,1.025,0,0,0,1.154,1.033,1.12,1.12,0,0,0,.79-.243.859.859,0,0,0,.365-.85C454.285,318.543,454.042,317.875,453.13,317.875Zm-.972,6.743a3.936,3.936,0,0,0,1.215.121c.607,0,1.64-.121,1.64-.85,0-.425-.486-.668-.911-.668h-.972a4.019,4.019,0,0,1-1.519-.182.643.643,0,0,0-.3.547A.981.981,0,0,0,452.158,324.618Zm4.192-7.593h-.425a.849.849,0,0,0-.911.486,1.648,1.648,0,0,1,.729,1.336c0,1.154-1.033,1.944-2.551,1.944a3.814,3.814,0,0,1-1.154-.182c-.182.121-.425.243-.425.607,0,.243.182.607,1.033.607h1.64c1.579,0,2.187.911,2.187,1.762,0,.79-.607,2.065-3.28,2.065-1.64,0-3.037-.365-3.037-1.7a1.274,1.274,0,0,0,.3-2.308,1.549,1.549,0,0,1,1.033-1.336,1.653,1.653,0,0,1-.911-1.458c0-.668.365-1.944,2.612-1.944a6.266,6.266,0,0,1,1.215.121,1.247,1.247,0,0,1,.607-.911,2,2,0,0,1,1.033-.243h.425l-.122,1.154Zm-12.757.122h1.276V318.6c.243-.547.729-1.579,1.883-1.579,2.065,0,2,1.883,2,2.734v3.766H447.42v-3.706c0-1.458-.729-1.519-.972-1.519-.3,0-1.4.061-1.4,2.248v2.977h-1.4l-.061-6.378Zm-4.678,6.318a6.055,6.055,0,0,1-.972.122,1.891,1.891,0,0,1-1.336-.486,2.135,2.135,0,0,1-.425-1.579v-3.28h-.79v-1.093h.85l.121-1.64,1.154-.122v1.762h1.276v1.093h-1.276v3.1c0,.85.3,1.033,1.033,1.033h.364v1.093Zm-7.047,0v-5.224h-.911v-1.093h.911a2.131,2.131,0,0,1,.79-2.065,3.122,3.122,0,0,1,2-.3v1.093H434.3c-1.033,0-1.033.365-1.033,1.276h1.4v1.093h-1.4v5.224Zm-3.766,0v-6.318h1.4v6.378h-1.4Zm0-7.107v-1.519h1.4v1.519Zm-6.621,7.107V314.9h1.64v7.168h3.645v1.4Zm111.532,1.458v-2l-.486,2h-.182l-.486-2v2h-.3V322.37h.547l.365,1.519.365-1.519h.547v2.551Zm-2.491,0v-2.065h-.486v-.425h1.4v.425h-.486v2.065Z" transform="translate(-331.155 -44)"/></g></svg>