<svg xmlns="http://www.w3.org/2000/svg" width="52.751" height="30.364" viewBox="0 0 52.751 30.364"><defs><style>.a,.c,.e{fill:red;}.a{stroke:rgba(0,0,0,0);}.b{fill:navy;}.c{fill-rule:evenodd;}.d{fill:none;stroke:#fff;stroke-miterlimit:2.613;stroke-width:0.6px;}</style></defs><g transform="translate(-175.316 -292.961)"><path class="a" d="M-758.19,1181.3l.214-.575a.569.569,0,0,0,.336.1.3.3,0,0,0,.239-.1.443.443,0,0,0,.086-.3v-2.738h.794v2.732a1.031,1.031,0,0,1-.272.755,1.017,1.017,0,0,1-.761.277A1.107,1.107,0,0,1-758.19,1181.3Zm4.042-.929a1.915,1.915,0,0,1-.633-.3l.28-.621a1.9,1.9,0,0,0,.544.27,2.044,2.044,0,0,0,.631.1,1.008,1.008,0,0,0,.519-.1.315.315,0,0,0,.168-.277.265.265,0,0,0-.1-.211.753.753,0,0,0-.254-.135q-.155-.051-.42-.112a5.8,5.8,0,0,1-.667-.193,1.083,1.083,0,0,1-.445-.31.839.839,0,0,1-.186-.57.99.99,0,0,1,.168-.562,1.129,1.129,0,0,1,.506-.4,2.068,2.068,0,0,1,.827-.148,2.741,2.741,0,0,1,.667.081,1.971,1.971,0,0,1,.57.234l-.254.626a1.987,1.987,0,0,0-.987-.28.926.926,0,0,0-.511.112.342.342,0,0,0-.165.3.289.289,0,0,0,.191.272,3,3,0,0,0,.583.176,5.8,5.8,0,0,1,.667.193,1.105,1.105,0,0,1,.445.305.819.819,0,0,1,.186.565.972.972,0,0,1-.17.557,1.145,1.145,0,0,1-.511.4,2.085,2.085,0,0,1-.829.148A2.915,2.915,0,0,1-754.149,1180.368Zm37.4-.079a1.239,1.239,0,0,1-.491-.494,1.42,1.42,0,0,1-.166-.53v.011h-2.071a.646.646,0,0,0,.265.4.877.877,0,0,0,.519.147,1.052,1.052,0,0,0,.379-.064.92.92,0,0,0,.308-.2l.422.458a1.419,1.419,0,0,1-1.13.443,1.786,1.786,0,0,1-.819-.181,1.323,1.323,0,0,1-.549-.5,1.381,1.381,0,0,1-.193-.728,1.4,1.4,0,0,1,.191-.725,1.336,1.336,0,0,1,.524-.5,1.538,1.538,0,0,1,.745-.181,1.526,1.526,0,0,1,.728.173,1.263,1.263,0,0,1,.511.5,1.392,1.392,0,0,1,.172.524,1.421,1.421,0,0,1,.166-.526,1.239,1.239,0,0,1,.491-.494,1.421,1.421,0,0,1,.7-.173,1.042,1.042,0,0,1,.819.331v-1.328h.794v3.776h-.758v-.316a1.046,1.046,0,0,1-.855.356A1.421,1.421,0,0,1-716.746,1180.289Zm.333-1.788a.762.762,0,0,0-.2.552.762.762,0,0,0,.2.552.669.669,0,0,0,.5.206.663.663,0,0,0,.5-.206.762.762,0,0,0,.2-.552.762.762,0,0,0-.2-.552.663.663,0,0,0-.5-.206A.669.669,0,0,0-716.413,1178.5Zm-2.848-.1a.65.65,0,0,0-.224.417h1.348a.656.656,0,0,0-.224-.415.669.669,0,0,0-.448-.155A.684.684,0,0,0-719.261,1178.4Zm-2.388,1.817a.954.954,0,0,1-.267-.733v-1.125h-.422v-.611h.422v-.667h.794v.667h.682v.611h-.682v1.114a.373.373,0,0,0,.089.267.33.33,0,0,0,.252.094.51.51,0,0,0,.321-.1l.214.56a.814.814,0,0,1-.287.13,1.455,1.455,0,0,1-.359.043A1.066,1.066,0,0,1-721.649,1180.213Zm-13.481.165a2,2,0,0,1-.411-.149v.192h-.794v-1.445a.714.714,0,0,0-.142-.486.523.523,0,0,0-.412-.16.632.632,0,0,0-.478.186.769.769,0,0,0-.178.552v1.353h-.794v-2.738h.758V1178a1.052,1.052,0,0,1,.392-.267,1.363,1.363,0,0,1,.514-.094,1.127,1.127,0,0,1,.822.305,1.01,1.01,0,0,1,.273.516.742.742,0,0,1,.148-.4.967.967,0,0,1,.438-.313,1.87,1.87,0,0,1,.679-.112,2.67,2.67,0,0,1,.578.064,1.615,1.615,0,0,1,.476.176l-.265.565a1.579,1.579,0,0,0-.789-.2.8.8,0,0,0-.382.071.209.209,0,0,0-.127.183.182.182,0,0,0,.137.178,2.44,2.44,0,0,0,.438.1,4.7,4.7,0,0,1,.55.12.824.824,0,0,1,.371.232.657.657,0,0,1,.158.468.723.723,0,0,1-.153.453.975.975,0,0,1-.445.308,1.981,1.981,0,0,1-.694.109A2.657,2.657,0,0,1-735.13,1180.378Zm-.411-1.524v1.08l.157-.337a1.665,1.665,0,0,0,.443.191,1.86,1.86,0,0,0,.509.074q.5,0,.5-.249a.176.176,0,0,0-.137-.168,2.032,2.032,0,0,0-.422-.086,4.078,4.078,0,0,1-.555-.117.863.863,0,0,1-.379-.234.536.536,0,0,1-.119-.2C-735.541,1178.823-735.541,1178.838-735.541,1178.854Zm-5.278,1.427a1.342,1.342,0,0,1-.537-.5,1.381,1.381,0,0,1-.193-.728,1.38,1.38,0,0,1,.193-.728,1.341,1.341,0,0,1,.537-.5,1.641,1.641,0,0,1,.776-.181,1.625,1.625,0,0,1,.773.181,1.345,1.345,0,0,1,.534.5,1.38,1.38,0,0,1,.193.728,1.381,1.381,0,0,1-.193.728,1.346,1.346,0,0,1-.534.5,1.625,1.625,0,0,1-.773.181A1.641,1.641,0,0,1-740.819,1180.281Zm.272-1.781a.762.762,0,0,0-.2.552.762.762,0,0,0,.2.552.67.67,0,0,0,.5.206.661.661,0,0,0,.5-.206.768.768,0,0,0,.2-.552.768.768,0,0,0-.2-.552.661.661,0,0,0-.5-.206A.669.669,0,0,0-740.547,1178.5Zm-3.567,1.712a.954.954,0,0,1-.267-.733v-1.125h-.3v2.066h-.753v-.326a1.054,1.054,0,0,1-.377.272,1.185,1.185,0,0,1-.473.094,1.167,1.167,0,0,1-.855-.31,1.238,1.238,0,0,1-.315-.921v-1.547h.794v1.43q0,.661.555.661a.6.6,0,0,0,.458-.186.783.783,0,0,0,.173-.552v-1.354h.794v.061h.3v-.667h.794v.667h.682v.611h-.682v1.114a.374.374,0,0,0,.089.267.33.33,0,0,0,.252.094.51.51,0,0,0,.321-.1l.214.56a.815.815,0,0,1-.288.13,1.454,1.454,0,0,1-.359.043A1.066,1.066,0,0,1-744.114,1180.213Zm-6.993.069a1.342,1.342,0,0,1-.537-.5,1.382,1.382,0,0,1-.193-.728,1.381,1.381,0,0,1,.193-.728,1.342,1.342,0,0,1,.537-.5,1.641,1.641,0,0,1,.776-.181,1.626,1.626,0,0,1,.773.181,1.345,1.345,0,0,1,.534.5,1.379,1.379,0,0,1,.193.728,1.38,1.38,0,0,1-.193.728,1.346,1.346,0,0,1-.534.5,1.626,1.626,0,0,1-.773.181A1.641,1.641,0,0,1-751.107,1180.281Zm.272-1.781a.762.762,0,0,0-.2.552.763.763,0,0,0,.2.552.67.67,0,0,0,.5.206.661.661,0,0,0,.5-.206.768.768,0,0,0,.2-.552.768.768,0,0,0-.2-.552.661.661,0,0,0-.5-.206A.669.669,0,0,0-750.835,1178.5Zm-8.944,1.855a.816.816,0,0,1-.354-.3.768.768,0,0,1-.122-.427.713.713,0,0,1,.287-.6,1.465,1.465,0,0,1,.888-.219h.631a.506.506,0,0,0-.158-.4.694.694,0,0,0-.473-.14,1.378,1.378,0,0,0-.43.069,1.137,1.137,0,0,0-.359.186l-.285-.555a1.723,1.723,0,0,1,.537-.244,2.407,2.407,0,0,1,.644-.086,1.424,1.424,0,0,1,.977.3,1.158,1.158,0,0,1,.341.913v1.562h-.743v-.341a.885.885,0,0,1-.835.382A1.3,1.3,0,0,1-759.779,1180.355Zm.3-.758a.285.285,0,0,0,.12.242.539.539,0,0,0,.328.089.691.691,0,0,0,.361-.094.515.515,0,0,0,.224-.277v-.28h-.544Q-759.481,1179.277-759.481,1179.6Zm-2.174.616a.954.954,0,0,1-.267-.733v-1.125h-.422v-.611h.422v-.667h.794v.667h.682v.611h-.682v1.114a.373.373,0,0,0,.089.267.33.33,0,0,0,.252.094.51.51,0,0,0,.321-.1l.214.56a.814.814,0,0,1-.288.13,1.454,1.454,0,0,1-.359.043A1.065,1.065,0,0,1-761.656,1180.213Zm38.453.209v-2.738h.794v2.738Zm-.874,0v-1.445a.742.742,0,0,0-.135-.486.474.474,0,0,0-.384-.16.566.566,0,0,0-.443.181.779.779,0,0,0-.163.537v1.374h-.794v-1.445q0-.646-.519-.646a.56.56,0,0,0-.438.181.779.779,0,0,0-.163.537v1.374h-.794v-2.738h.758V1178a1,1,0,0,1,.374-.265,1.259,1.259,0,0,1,.486-.092,1.176,1.176,0,0,1,.524.115.927.927,0,0,1,.377.333,1.124,1.124,0,0,1,.425-.331,1.341,1.341,0,0,1,.562-.117,1.1,1.1,0,0,1,.817.3,1.234,1.234,0,0,1,.3.908v1.567Zm-5.021,0h-2.538v-3.562h.824v2.89h1.714v-2.066h.794v2.738Zm-13.438,0v-2.738h.794v2.738Zm-6.092,0v-3.776h.794v3.776Zm-14.581,0v-3.776h.794v3.776Zm-2.976,0v-3.562h2.692v.661h-1.872v.773h1.654v.641h-1.654v.824h1.939v.661Zm43.023-3.246a.413.413,0,0,1-.137-.316.412.412,0,0,1,.137-.315.5.5,0,0,1,.356-.127.516.516,0,0,1,.356.122.391.391,0,0,1,.137.305.432.432,0,0,1-.137.328.5.5,0,0,1-.356.13A.5.5,0,0,1-723.162,1177.175Zm-5.9,0a.413.413,0,0,1-.137-.316.412.412,0,0,1,.137-.315.5.5,0,0,1,.356-.127.516.516,0,0,1,.356.122.392.392,0,0,1,.137.305.432.432,0,0,1-.137.328.5.5,0,0,1-.356.13A.5.5,0,0,1-729.057,1177.175Zm-13.437,0a.413.413,0,0,1-.137-.316.412.412,0,0,1,.137-.315.5.5,0,0,1,.356-.127.516.516,0,0,1,.356.122.391.391,0,0,1,.137.305.432.432,0,0,1-.137.328.5.5,0,0,1-.356.13A.5.5,0,0,1-742.495,1177.175Zm-14.78,0a.413.413,0,0,1-.137-.316.413.413,0,0,1,.137-.315.5.5,0,0,1,.356-.127.516.516,0,0,1,.356.122.391.391,0,0,1,.137.305.432.432,0,0,1-.137.328.5.5,0,0,1-.356.13A.5.5,0,0,1-757.274,1177.175Z" transform="translate(942 -858.624)"/><path class="b" d="M218.3,298.062H207.586V302.8h10.3v4.377h-10.3v4.772h10.159l9.321.263a3.446,3.446,0,0,0,2.221-.609,1.954,1.954,0,0,0,.806-1.645,1.918,1.918,0,0,0-.856-1.645,11.161,11.161,0,0,0-3.389-1.234,14.737,14.737,0,0,1-5.874-2.485,5.867,5.867,0,0,1-1.859-4.8,7.612,7.612,0,0,1,.187-1.728m16.265-1.5-2.2,3.179a10.128,10.128,0,0,0-6.187-2.271,3.094,3.094,0,0,0-2.024.609,1.984,1.984,0,0,0-.74,1.612,1.823,1.823,0,0,0,.9,1.6,16.542,16.542,0,0,0,4.179,1.4,11.764,11.764,0,0,1,5.084,2.419,4.932,4.932,0,0,1,.985,1.2Zm-15.529-3.073v2.787a5.8,5.8,0,0,1,1.43-1.537,9.468,9.468,0,0,1,5.874-1.777,14.127,14.127,0,0,1,4.607.79,12.5,12.5,0,0,1,3.618,1.917v-2.18H239.7v18.428h9.806v4.574h-14.94v-3.407c-1.545,2.677-4.657,3.773-7.6,3.671l-7.567-.263H202.452v-23Z" transform="translate(-24.129)"/><path class="c" d="M246.558,321.215c-3.474,11.7-11.683,19.805-26.652,19.7-5.578-.039-11.653.132-16.854,0,2.174.681,35.979-3.447,43.236-19.71.335-.751.514-1.127.587-1.242C247.009,319.757,246.8,320.4,246.558,321.215Z" transform="translate(-24.674 -24.426)"/><path class="d" d="M246.558,321.215c-3.474,11.7-11.683,19.805-26.652,19.7-5.578-.039-11.653.132-16.854,0,2.174.681,35.979-3.447,43.236-19.71.335-.751.514-1.127.587-1.242C247.009,319.757,246.8,320.4,246.558,321.215Z" transform="translate(-24.674 -24.426)"/><path class="e" d="M4.427-17.806l-.419-.59a1.329,1.329,0,0,1-.147.008H3.368v.582H3.174v-1.834h.687a.829.829,0,0,1,.55.168.571.571,0,0,1,.2.461.6.6,0,0,1-.109.363.6.6,0,0,1-.311.214l.448.629Zm-.571-.747a.634.634,0,0,0,.417-.121.416.416,0,0,0,.144-.338.419.419,0,0,0-.144-.342.639.639,0,0,0-.417-.119H3.368v.92Zm2.01.763a1,1,0,0,1-.491-.121.883.883,0,0,1-.343-.334.932.932,0,0,1-.124-.478.932.932,0,0,1,.124-.478.88.88,0,0,1,.345-.334,1.009,1.009,0,0,1,.493-.121,1.021,1.021,0,0,1,.377.068.782.782,0,0,1,.294.2l-.123.123a.731.731,0,0,0-.542-.218.8.8,0,0,0-.4.1.728.728,0,0,0-.279.273.755.755,0,0,0-.1.388.755.755,0,0,0,.1.388.728.728,0,0,0,.279.273.8.8,0,0,0,.4.1.721.721,0,0,0,.542-.22l.123.123a.793.793,0,0,1-.295.2A1.014,1.014,0,0,1,5.865-17.791Zm1.46-1.85v1.834H7.136v-1.667H6.7v-.168Zm1.061.786a.679.679,0,0,1,.439.156.476.476,0,0,1,.151.366.516.516,0,0,1-.076.279.518.518,0,0,1-.225.193.847.847,0,0,1-.364.071,1.094,1.094,0,0,1-.376-.064.763.763,0,0,1-.284-.172l.092-.149a.674.674,0,0,0,.244.153.891.891,0,0,0,.325.059.546.546,0,0,0,.349-.1.328.328,0,0,0,.123-.271.321.321,0,0,0-.123-.267.6.6,0,0,0-.372-.1H8.156v-.139l.508-.637H7.726v-.168H8.905v.134Zm1.465,0a.679.679,0,0,1,.439.156.476.476,0,0,1,.151.366.516.516,0,0,1-.076.279.518.518,0,0,1-.225.193.847.847,0,0,1-.364.071,1.094,1.094,0,0,1-.376-.064.763.763,0,0,1-.284-.172l.092-.149a.674.674,0,0,0,.244.153.891.891,0,0,0,.325.059.546.546,0,0,0,.349-.1.328.328,0,0,0,.123-.271.321.321,0,0,0-.123-.267.6.6,0,0,0-.372-.1H9.621v-.139l.508-.637H9.191v-.168H10.37v.134Zm1.905.086a.558.558,0,0,1,.266.173.428.428,0,0,1,.093.278.463.463,0,0,1-.086.279.546.546,0,0,1-.248.183,1.02,1.02,0,0,1-.379.064.847.847,0,0,1-.519-.142.456.456,0,0,1-.189-.385.435.435,0,0,1,.09-.279.545.545,0,0,1,.263-.172.458.458,0,0,1-.215-.159.413.413,0,0,1-.073-.245.42.42,0,0,1,.174-.354.76.76,0,0,1,.468-.131.9.9,0,0,1,.339.059.513.513,0,0,1,.227.169.421.421,0,0,1,.081.257.4.4,0,0,1-.076.245A.475.475,0,0,1,11.757-18.768Zm-.807-.4a.284.284,0,0,0,.121.241.55.55,0,0,0,.333.089.556.556,0,0,0,.334-.089.281.281,0,0,0,.122-.238.284.284,0,0,0-.124-.244A.558.558,0,0,0,11.4-19.5a.551.551,0,0,0-.332.089A.283.283,0,0,0,10.949-19.166ZM11.4-17.95a.64.64,0,0,0,.381-.1.316.316,0,0,0,.138-.27.313.313,0,0,0-.138-.269.646.646,0,0,0-.381-.1.641.641,0,0,0-.379.1.313.313,0,0,0-.138.269.316.316,0,0,0,.136.271A.64.64,0,0,0,11.4-17.95Zm1.546-1.706a.676.676,0,0,1,.558.24,1.052,1.052,0,0,1,.194.677,1.164,1.164,0,0,1-.1.519.734.734,0,0,1-.294.321.866.866,0,0,1-.44.109.827.827,0,0,1-.435-.1l.076-.152a.64.64,0,0,0,.356.086.608.608,0,0,0,.477-.193.811.811,0,0,0,.173-.56q0-.068-.008-.149a.5.5,0,0,1-.218.232.7.7,0,0,1-.343.083.726.726,0,0,1-.321-.068A.522.522,0,0,1,12.4-18.8a.531.531,0,0,1-.079-.29.542.542,0,0,1,.081-.3.536.536,0,0,1,.224-.2A.725.725,0,0,1,12.949-19.656Zm.021.954a.547.547,0,0,0,.245-.052.413.413,0,0,0,.166-.144.364.364,0,0,0,.06-.2.356.356,0,0,0-.056-.194.4.4,0,0,0-.166-.144.58.58,0,0,0-.262-.055.474.474,0,0,0-.324.109.365.365,0,0,0-.124.29.362.362,0,0,0,.124.288A.5.5,0,0,0,12.97-18.7Zm1.764-.2a.726.726,0,0,1,.321.068.522.522,0,0,1,.219.193.531.531,0,0,1,.079.29.542.542,0,0,1-.081.3.536.536,0,0,1-.224.2.725.725,0,0,1-.321.069.676.676,0,0,1-.558-.24,1.052,1.052,0,0,1-.194-.677,1.164,1.164,0,0,1,.1-.519.734.734,0,0,1,.294-.321.866.866,0,0,1,.44-.109.827.827,0,0,1,.435.1l-.076.152a.64.64,0,0,0-.356-.086.608.608,0,0,0-.477.193.811.811,0,0,0-.173.56q0,.066.008.149a.5.5,0,0,1,.218-.232A.7.7,0,0,1,14.734-18.9Zm-.016.954a.474.474,0,0,0,.324-.109.365.365,0,0,0,.124-.29.362.362,0,0,0-.124-.288.5.5,0,0,0-.337-.107.547.547,0,0,0-.245.052.413.413,0,0,0-.166.144.364.364,0,0,0-.06.2.356.356,0,0,0,.056.194.4.4,0,0,0,.166.144A.58.58,0,0,0,14.718-17.95Zm2.125-1.69v.134l-.768,1.7h-.2l.755-1.667h-.943v.343H15.5v-.511Z" transform="translate(207.911 333.176)"/></g></svg>