<svg xmlns="http://www.w3.org/2000/svg" xmlns:xlink="http://www.w3.org/1999/xlink" width="175" height="117" viewBox="0 0 175 117"><defs><style>.a{fill:none;}.b{clip-path:url(#a);}.c{fill:#000880;}</style><clipPath id="a"><rect class="a" width="175" height="117"/></clipPath></defs><g class="b"><g transform="translate(-948 -623)"><circle class="c" cx="3.5" cy="3.5" r="3.5" transform="translate(948 623)"/></g><g transform="translate(-924 -623)"><circle class="c" cx="3.5" cy="3.5" r="3.5" transform="translate(948 623)"/></g><g transform="translate(-900 -623)"><circle class="c" cx="3.5" cy="3.5" r="3.5" transform="translate(948 623)"/></g><g transform="translate(-876 -623)"><circle class="c" cx="3.5" cy="3.5" r="3.5" transform="translate(948 623)"/></g><g transform="translate(-852 -623)"><circle class="c" cx="3.5" cy="3.5" r="3.5" transform="translate(948 623)"/></g><g transform="translate(-828 -623)"><circle class="c" cx="3.5" cy="3.5" r="3.5" transform="translate(948 623)"/></g><g transform="translate(-804 -623)"><circle class="c" cx="3.5" cy="3.5" r="3.5" transform="translate(948 623)"/></g><g transform="translate(-780 -623)"><circle class="c" cx="3.5" cy="3.5" r="3.5" transform="translate(948 623)"/></g><g transform="translate(-948 -596)"><circle class="c" cx="3.5" cy="3.5" r="3.5" transform="translate(948 623)"/></g><g transform="translate(-924 -596)"><circle class="c" cx="3.5" cy="3.5" r="3.5" transform="translate(948 623)"/></g><g transform="translate(-900 -596)"><circle class="c" cx="3.5" cy="3.5" r="3.5" transform="translate(948 623)"/></g><g transform="translate(-876 -596)"><circle class="c" cx="3.5" cy="3.5" r="3.5" transform="translate(948 623)"/></g><g transform="translate(-852 -596)"><circle class="c" cx="3.5" cy="3.5" r="3.5" transform="translate(948 623)"/></g><g transform="translate(-828 -596)"><circle class="c" cx="3.5" cy="3.5" r="3.5" transform="translate(948 623)"/></g><g transform="translate(-804 -596)"><circle class="c" cx="3.5" cy="3.5" r="3.5" transform="translate(948 623)"/></g><g transform="translate(-780 -596)"><circle class="c" cx="3.5" cy="3.5" r="3.5" transform="translate(948 623)"/></g><g transform="translate(-948 -569)"><circle class="c" cx="3.5" cy="3.5" r="3.5" transform="translate(948 623)"/></g><g transform="translate(-924 -569)"><circle class="c" cx="3.5" cy="3.5" r="3.5" transform="translate(948 623)"/></g><g transform="translate(-900 -569)"><circle class="c" cx="3.5" cy="3.5" r="3.5" transform="translate(948 623)"/></g><g transform="translate(-876 -569)"><circle class="c" cx="3.5" cy="3.5" r="3.5" transform="translate(948 623)"/></g><g transform="translate(-852 -569)"><circle class="c" cx="3.5" cy="3.5" r="3.5" transform="translate(948 623)"/></g><g transform="translate(-828 -569)"><circle class="c" cx="3.5" cy="3.5" r="3.5" transform="translate(948 623)"/></g><g transform="translate(-804 -569)"><circle class="c" cx="3.5" cy="3.5" r="3.5" transform="translate(948 623)"/></g><g transform="translate(-780 -569)"><circle class="c" cx="3.5" cy="3.5" r="3.5" transform="translate(948 623)"/></g><g transform="translate(-948 -542)"><circle class="c" cx="3.5" cy="3.5" r="3.5" transform="translate(948 623)"/></g><g transform="translate(-924 -542)"><circle class="c" cx="3.5" cy="3.5" r="3.5" transform="translate(948 623)"/></g><g transform="translate(-900 -542)"><circle class="c" cx="3.5" cy="3.5" r="3.5" transform="translate(948 623)"/></g><g transform="translate(-876 -542)"><circle class="c" cx="3.5" cy="3.5" r="3.5" transform="translate(948 623)"/></g><g transform="translate(-852 -542)"><circle class="c" cx="3.5" cy="3.5" r="3.5" transform="translate(948 623)"/></g><g transform="translate(-828 -542)"><circle class="c" cx="3.5" cy="3.5" r="3.5" transform="translate(948 623)"/></g><g transform="translate(-804 -542)"><circle class="c" cx="3.5" cy="3.5" r="3.5" transform="translate(948 623)"/></g><g transform="translate(-780 -542)"><circle class="c" cx="3.5" cy="3.5" r="3.5" transform="translate(948 623)"/></g><g transform="translate(-948 -515)"><circle class="c" cx="3.5" cy="3.5" r="3.5" transform="translate(948 623)"/></g><g transform="translate(-924 -515)"><circle class="c" cx="3.5" cy="3.5" r="3.5" transform="translate(948 623)"/></g><g transform="translate(-900 -515)"><circle class="c" cx="3.5" cy="3.5" r="3.5" transform="translate(948 623)"/></g><g transform="translate(-876 -515)"><circle class="c" cx="3.5" cy="3.5" r="3.5" transform="translate(948 623)"/></g><g transform="translate(-852 -515)"><circle class="c" cx="3.5" cy="3.5" r="3.5" transform="translate(948 623)"/></g><g transform="translate(-828 -515)"><circle class="c" cx="3.5" cy="3.5" r="3.5" transform="translate(948 623)"/></g><g transform="translate(-804 -515)"><circle class="c" cx="3.5" cy="3.5" r="3.5" transform="translate(948 623)"/></g><g transform="translate(-780 -515)"><circle class="c" cx="3.5" cy="3.5" r="3.5" transform="translate(948 623)"/></g></g></svg>