<svg xmlns="http://www.w3.org/2000/svg" width="131.619" height="51.34" viewBox="0 0 131.619 51.34"><defs><style>.a{fill:navy;}.b{fill:#fff;}</style></defs><g transform="translate(171.1 -1224.66)"><path class="a" d="M24.9,340.341c0-14.177,29.464-25.671,65.809-25.671s65.809,11.5,65.809,25.673S127.056,366.01,90.709,366.01,24.9,354.517,24.9,340.341Z" transform="translate(-196 909.99)"/><path class="b" d="M37.873,26l.97-3.624H46.7L45.729,26Zm31.6-.5L65.69,11.572h-.068L61.894,25.5H54.761L61.587,0H69.3l3.481,13.643h.068L76.506,0h7.132L76.81,25.5ZM22,25.5,26.376,9.142h-.071L17.611,25.5h-5.7V9.142h-.116L7.416,25.5H0L6.83,0H17.611V15h.071L25,0H35.947l-6.83,25.5ZM43.088,6.535H35.947L37.7,0H59.838L58.087,6.535H50.945l-3.973,14.82-7.858,0Z" transform="translate(-146.981 1237.312)"/></g></svg>