<svg xmlns="http://www.w3.org/2000/svg" width="690.181" height="514.267" viewBox="0 0 690.181 514.267"><defs><style>.a{fill:#ebebeb;}.b{fill:#e0e0e0;}.c{fill:#f0f0f0;}.d{fill:#f5f5f5;}.e{fill:#263238;}.f,.g{fill:navy;}.g,.i{opacity:0.3;}.h,.i{fill:#fff;}.j{opacity:0.2;}</style></defs><g transform="translate(0 -55)"><g transform="translate(0 55)"><rect class="a" width="690.181" height="0.345" transform="translate(0 451.93)"/><rect class="a" width="29.926" height="0.345" transform="translate(591.098 474.14)"/><rect class="a" width="47.084" height="0.345" transform="translate(428.685 466.99)"/><rect class="a" width="61.467" height="0.345" transform="translate(547.437 461.331)"/><rect class="a" width="15.377" height="0.345" transform="translate(223.453 468.288)"/><rect class="a" width="52.992" height="0.345" transform="translate(158.162 468.288)"/><rect class="a" width="38.236" height="0.345" transform="translate(91.532 462.462)"/><path class="a" d="M312.612,445.366H46.078a7.882,7.882,0,0,1-7.868-7.882V62.813A7.882,7.882,0,0,1,46.078,55H312.612a7.882,7.882,0,0,1,7.882,7.882v374.6A7.882,7.882,0,0,1,312.612,445.366ZM46.078,55.276a7.537,7.537,0,0,0-7.523,7.537V437.484a7.537,7.537,0,0,0,7.523,7.537H312.612a7.551,7.551,0,0,0,7.537-7.537V62.813a7.551,7.551,0,0,0-7.537-7.537Z" transform="translate(14.534 -55)"/><path class="a" d="M528.93,445.366H262.382a7.9,7.9,0,0,1-7.882-7.882V62.813A7.9,7.9,0,0,1,262.382,55H528.93a7.882,7.882,0,0,1,7.854,7.813V437.484A7.882,7.882,0,0,1,528.93,445.366ZM262.382,55.276a7.551,7.551,0,0,0-7.537,7.537V437.484a7.551,7.551,0,0,0,7.537,7.537H528.93a7.551,7.551,0,0,0,7.537-7.537V62.813a7.551,7.551,0,0,0-7.537-7.537Z" transform="translate(96.802 -55)"/><path class="a" d="M282.451,237.76l.621-18.138-11.126-3.644a109.332,109.332,0,0,0-2.982-18.221l9.442-6.9L272,173.822l-11.678.939a107.906,107.906,0,0,0-9.663-15.667L256.707,149l-12.423-13.265-10.436,5.342a112.889,112.889,0,0,0-14.991-10.822l1.684-11.6-16.564-7.509-7.592,8.89A111.34,111.34,0,0,0,178.44,115.9l-2.761-11.36-18.193-.621L153.9,115.06a111.09,111.09,0,0,0-18.207,2.968l-7.012-9.386L111.645,115l.939,11.678a110.61,110.61,0,0,0-15.667,9.759l-10.159-6.184-13.32,12.423,5.342,10.491a107.126,107.126,0,0,0-10.767,14.963L56.43,166.4,48.866,182.96l8.945,7.578a108.411,108.411,0,0,0-4.141,17.945l-11.5,2.885-.621,18.138,11.181,3.644A106.839,106.839,0,0,0,55.7,251.356l-9.442,6.9,6.419,17.047,11.678-.939a106.291,106.291,0,0,0,9.663,15.667l-6.06,10.09L80.38,313.39l10.436-5.342a111.449,111.449,0,0,0,14.963,10.808l-1.739,11.581L120.6,337.96l7.633-8.889a112.814,112.814,0,0,0,17.945,4.21l2.761,11.36,18.193.621,3.589-11.14a112.5,112.5,0,0,0,18.221-2.968l6.9,9.386,17.034-6.363L212,322.5a115.168,115.168,0,0,0,15.667-9.759l10.035,6.046,13.32-12.423-5.342-10.491a106.818,106.818,0,0,0,10.767-14.963l11.581,1.739,7.564-16.564-8.945-7.592a106.647,106.647,0,0,0,4.21-17.945ZM159.888,296.522a72,72,0,1,1,74.388-69.474,72,72,0,0,1-74.388,69.474Z" transform="translate(15.804 -36.393)"/><path class="a" d="M459.653,177.838l4.569-4.265-1.808-3.6a38.1,38.1,0,0,0,3.713-5.163l4,.594,2.581-5.715-3.064-2.609a37.043,37.043,0,0,0,1.449-6.2l3.934-.98.193-6.267-3.837-1.242a39.085,39.085,0,0,0-1.022-6.294l3.244-2.416-2.209-5.867-4.017.317a39,39,0,0,0-3.354-5.411l2.084-3.451-4.293-4.583-3.589,1.836a38.974,38.974,0,0,0-5.162-3.713l.58-4-5.7-2.609-2.623,3.078a38.415,38.415,0,0,0-6.2-1.38l-.98-3.92-6.267-.235-1.256,3.865a37.267,37.267,0,0,0-6.267,1.021l-2.4-3.244-5.88,2.195.331,4.031A36.685,36.685,0,0,0,411,114.962l-3.479-2.084-4.583,4.265,1.781,3.52a36.714,36.714,0,0,0-3.727,5.163L397,125.232l-2.6,5.715,3.078,2.623a36.58,36.58,0,0,0-1.38,6.184l-3.948.98L391.96,147l3.851,1.242a37.609,37.609,0,0,0,1.008,6.294l-3.258,2.4,2.209,5.867,4.031-.3a39,39,0,0,0,3.354,5.411l-2.084,3.451,4.293,4.583,3.589-1.836a37.751,37.751,0,0,0,5.163,3.713l-.594,3.989,5.715,2.609,2.623-3.064a39.944,39.944,0,0,0,6.2,1.38l.98,3.92,6.267.235,1.256-3.865a37.074,37.074,0,0,0,6.267-1.021l2.4,3.244,5.88-2.195-.318-4.031a36.838,36.838,0,0,0,5.4-3.354Zm-32.6-26.406a8.17,8.17,0,1,1-.055,0Z" transform="translate(149.086 -36.461)"/><path class="a" d="M371.413,314.743l-14.273-9.87h0a77.645,77.645,0,0,0-5.742-14.867l3.658-14.356-20.705-22.169-14.577,2.664a77.72,77.72,0,0,0-14.452-6.75h0l-8.862-14.922-30.368-1.035-9.856,14.273h0a78.031,78.031,0,0,0-14.853,5.729l-14.356-3.658-22.169,20.705,2.664,14.549h0a77.615,77.615,0,0,0-6.736,14.48l-14.922,8.862-1.035,30.368,14.287,9.856a75.574,75.574,0,0,0,5.728,14.936h0l-3.7,14.232,20.705,22.169,14.48-2.65a78.94,78.94,0,0,0,14.549,6.764h0l8.848,14.894L290.1,420l9.842-14.273a78.787,78.787,0,0,0,14.991-5.742h0l14.273,3.644,22.182-20.705L348.72,368.37a76.473,76.473,0,0,0,6.736-14.494h0l14.922-8.862Zm-94.486,46.09a35.343,35.343,0,1,0-.014,0Z" transform="translate(70.302 12.872)"/><path class="a" d="M367.213,272.184h-.1l-23.908-.814a2.871,2.871,0,0,1-2.4-1.38l-6.446-10.836a66.035,66.035,0,0,1-10.049-4.666L314,256.268a2.9,2.9,0,0,1-2.65-.883l-16.33-17.475a2.9,2.9,0,0,1-.69-2.761l2.609-10.229a62.731,62.731,0,0,1-3.948-10.311L282.6,207.431a2.9,2.9,0,0,1-1.256-2.5l.814-23.908a2.954,2.954,0,0,1,1.38-2.4l10.863-6.446a62.565,62.565,0,0,1,4.652-10.008l-1.9-10.394a2.913,2.913,0,0,1,.883-2.664L315.5,132.795a2.913,2.913,0,0,1,2.761-.7l10.27,2.623a63.268,63.268,0,0,1,10.284-3.962L346,120.358a2.761,2.761,0,0,1,2.5-1.256l23.894.828a2.913,2.913,0,0,1,2.416,1.38l6.446,10.85a64.061,64.061,0,0,1,9.966,4.666l10.435-1.919a2.885,2.885,0,0,1,2.65.883l16.33,17.475a2.926,2.926,0,0,1,.69,2.761L418.7,166.282a64.32,64.32,0,0,1,3.975,10.284l10.38,7.178a2.9,2.9,0,0,1,1.256,2.5l-.814,23.894a2.982,2.982,0,0,1-1.38,2.416L421.254,219a64.192,64.192,0,0,1-4.652,9.994l1.9,10.408a2.885,2.885,0,0,1-.883,2.65l-17.586,16.33a2.9,2.9,0,0,1-2.761.69l-10.215-2.609a65.544,65.544,0,0,1-10.339,3.962l-7.109,10.38A2.94,2.94,0,0,1,367.213,272.184ZM345,265.6l20.705.7,6.9-9.925a2.761,2.761,0,0,1,1.643-1.16A60.514,60.514,0,0,0,385.5,250.9h0a2.981,2.981,0,0,1,2.015-.207l9.663,2.471,15.184-14.149-1.739-9.98a2.885,2.885,0,0,1,.359-2.029,57.394,57.394,0,0,0,5.038-10.808,2.94,2.94,0,0,1,1.3-1.629l10.394-6.156.7-20.705-9.939-6.9a2.913,2.913,0,0,1-1.118-1.477c0-.069,0-.152,0-.235a59.36,59.36,0,0,0-4.307-11.043,2.912,2.912,0,0,1-.221-2.043l2.485-9.773L401.17,141.049l-9.925,1.822a2.94,2.94,0,0,1-2.015-.359,58.389,58.389,0,0,0-10.822-5.066,3.147,3.147,0,0,1-.621-.276,2.9,2.9,0,0,1-.966-.994l-6.225-10.422-20.705-.718-6.9,9.952a2.982,2.982,0,0,1-1.712,1.173,58.844,58.844,0,0,0-11.126,4.293,2.871,2.871,0,0,1-2.029.221l-9.773-2.485-15.184,14.149,1.822,9.9a3.009,3.009,0,0,1-.262,1.836l-.138.235a57.365,57.365,0,0,0-5.038,10.85,2.926,2.926,0,0,1-1.27,1.546l-10.394,6.17-.7,20.705,9.952,6.9a2.9,2.9,0,0,1,1.16,1.629,57.314,57.314,0,0,0,4.293,11.209,3.509,3.509,0,0,1,.235.635,3.091,3.091,0,0,1,0,1.38L300.334,235l14.149,15.184,9.856-1.808a2.9,2.9,0,0,1,2,.359,59.715,59.715,0,0,0,10.891,5.066,2.761,2.761,0,0,1,1.615,1.284Zm34.205-130.872ZM357.8,239.414h-1.532a43.523,43.523,0,1,1,1.532,0Zm0-81.566a38.029,38.029,0,1,0,1.311,0Z" transform="translate(107.01 -30.62)"/><path class="b" d="M386.9,109.846l-9.911-2.65-2.65-9.911,3.879-3.865,4.086,8.462,8.475,4.1Z" transform="translate(142.384 -40.387)"/><path class="b" d="M385.679,104.358a4.617,4.617,0,1,0-6.529-6.529l4.928-7.4,6.6,3.34,1.449,6.9Z" transform="translate(144.214 -41.524)"/><path class="c" d="M376.58,96l7.261-7.261,9.883,2.636,2.664,9.9-7.261,7.261-9.9-2.664Zm13.182,5.936a3.271,3.271,0,1,1,0-.028Z" transform="translate(143.236 -42.167)"/><path class="b" d="M90.794,299.141l5.314-1.436,1.422-5.314L95.46,290.32l-2.195,4.541-4.555,2.195Z" transform="translate(33.742 34.507)"/><path class="b" d="M90.974,296.188a2.485,2.485,0,0,1,3.506-3.506l-2.636-3.962-3.63,1.767-.773,3.727Z" transform="translate(33.259 33.898)"/><path class="c" d="M96.817,291.693,92.925,287.8l-5.314,1.38-1.38,5.314,3.824,3.934,5.314-1.38Zm-7.067,3.189a2.485,2.485,0,1,1,3.394-.112,2.485,2.485,0,0,1-3.394.112Z" transform="translate(32.799 33.548)"/><path class="c" d="M76.59,87.029l4.417,4.417a2.954,2.954,0,0,0,4.141,0h0a2.968,2.968,0,0,0,0-4.141l-4.4-4.4a2.968,2.968,0,0,0-4.141,0h0A2.954,2.954,0,0,0,76.59,87.029Z" transform="translate(28.815 -44.707)"/><path class="b" d="M75.334,77.772a6.143,6.143,0,1,1-4.141,7.978,6.336,6.336,0,0,1,4.141-7.978Z" transform="translate(26.964 -46.424)"/><rect class="c" width="1.891" height="13.942" transform="translate(98.134 40.367) rotate(-109.76)"/></g><g transform="translate(77.452 538.016)"><ellipse class="d" cx="267.638" cy="15.626" rx="267.638" ry="15.626"/></g><g transform="translate(118.987 97.198)"><path class="e" d="M86.918,127.368c-1.38-6.087-.773-11.195,1.85-15.363s6.9-6.9,12.989-8.282,11.347-.828,15.46,1.739,6.9,6.9,8.282,12.837a23.673,23.673,0,0,1,.235,11.209,16.067,16.067,0,0,1-4.873,7.951,21.437,21.437,0,0,1-9.828,4.666,24.364,24.364,0,0,1-10.877.373,16.178,16.178,0,0,1-8.144-4.831,21.63,21.63,0,0,1-5.094-10.3ZM98.43,124.8q1.284,5.632,3.934,7.62a8.13,8.13,0,0,0,11.457-2.54c.994-1.919,1.008-4.969.069-9.124q-1.2-5.259-3.879-7.205a7.4,7.4,0,0,0-6.294-1.118,7.178,7.178,0,0,0-5.038,3.727C97.657,118.189,97.56,120.95,98.43,124.8Z" transform="translate(-86.2 -78.945)"/><path class="e" d="M118.713,122.389a13.8,13.8,0,0,1,1.864-11.126,15.957,15.957,0,0,1,10.339-6.557q8.1-1.836,13.307,1.919a15.046,15.046,0,0,1,3.644,19.7q-3.23,4.928-10.518,6.571a16.33,16.33,0,0,1-11.264-.911A13.6,13.6,0,0,1,118.713,122.389ZM129.079,120a8.393,8.393,0,0,0,2.664,5.011,4.942,4.942,0,0,0,7.357-1.643,8.738,8.738,0,0,0,.193-5.8,8.282,8.282,0,0,0-2.636-4.886,4.6,4.6,0,0,0-3.975-.9,4.817,4.817,0,0,0-3.34,2.581,8.282,8.282,0,0,0-.262,5.632Z" transform="translate(-74.003 -78.521)"/><path class="e" d="M150.912,140.256l-8.462-37.27,9.663-2.209.911,3.989a13.114,13.114,0,0,1,2.913-4.238,10.836,10.836,0,0,1,4.735-2.333,9.952,9.952,0,0,1,9.3,2.236A17.682,17.682,0,0,1,175.261,110c1.021,4.486.718,8.158-.883,11.043a10.863,10.863,0,0,1-7.357,5.4,11.83,11.83,0,0,1-4.541.179A10.711,10.711,0,0,1,158.421,125l2.926,12.879Zm4.983-26.034a7.3,7.3,0,0,0,2.429,4.445,4.4,4.4,0,0,0,3.755.773,3.893,3.893,0,0,0,2.761-2.167,8.282,8.282,0,0,0,0-5.328,7.744,7.744,0,0,0-2.36-4.528,4.017,4.017,0,0,0-3.451-.828,4.307,4.307,0,0,0-2.954,2.305,7.9,7.9,0,0,0-.179,5.328Z" transform="translate(-64.805 -80.9)"/><path class="e" d="M169.9,116.951l10.049-3.3a5.176,5.176,0,0,0,2.374,2.209,6.474,6.474,0,0,0,6.253-1.518,2.057,2.057,0,0,0,.511-1.85,1.919,1.919,0,0,0-1.56-1.477,21.5,21.5,0,0,0-4.693,0,46.42,46.42,0,0,1-7.868,0,8.116,8.116,0,0,1-4.141-1.891,7.606,7.606,0,0,1-1.919-8.959,9.317,9.317,0,0,1,3.6-3.851,23.163,23.163,0,0,1,7.081-2.609,25.508,25.508,0,0,1,7.288-.883,9.538,9.538,0,0,1,4.362,1.38,12.23,12.23,0,0,1,3.506,3.617l-9.662,3.189a3.465,3.465,0,0,0-1.7-1.615,5.314,5.314,0,0,0-3.133-.138,4.251,4.251,0,0,0-2.416,1.2,1.863,1.863,0,0,0-.455,1.684,1.656,1.656,0,0,0,1.38,1.27,17.06,17.06,0,0,0,4.638-.1,30.947,30.947,0,0,1,8.034-.11,8.682,8.682,0,0,1,4.528,2.084,7.537,7.537,0,0,1,2.291,3.934,8.53,8.53,0,0,1-.373,4.873,9.773,9.773,0,0,1-3.644,4.514,21.755,21.755,0,0,1-7.978,3.189q-7.385,1.684-11.043.29a9.759,9.759,0,0,1-5.314-5.135Z" transform="translate(-55.012 -82.814)"/><path class="e" d="M193.85,85.57h11.333v8.7L203.1,111.755h-7.012L193.85,94.294Zm.552,28.822h10.574v9.359H194.4Z" transform="translate(-45.254 -85.57)"/></g><g transform="translate(98.213 116.235)"><path class="e" d="M139.733,181.043h-.248c-6.212-2.416-9.925-4.762-11.857-7.592a7.1,7.1,0,0,1-4.459-.607,8.972,8.972,0,0,1-3.851-3.617,3.506,3.506,0,0,1-3.34.511,8.475,8.475,0,0,1-4.141-3.327,3.078,3.078,0,0,1-2.153.594c-4.141-.331-9.663-8.5-10.063-17.2a.718.718,0,0,1,.663-.732.69.69,0,0,1,.718.663c.386,8.282,5.673,15.639,8.807,15.888a1.739,1.739,0,0,0,1.284-.373,16.951,16.951,0,0,1-1.38-13c1.187-4.141,2.236-5.77,3.506-5.521,2.374.594,2.057,9.663.8,15.584a8.475,8.475,0,0,1-1.159,3.009,7.454,7.454,0,0,0,3.506,3.051,2.181,2.181,0,0,0,2.305-.483c-1.077-2.664-1.38-6.308.166-10.946,1.933-6.115,2.761-6.281,3.189-6.391a.911.911,0,0,1,.883.3c1.284,1.449-.248,10.946-1.85,15.639a6.9,6.9,0,0,1-.773,1.6,7.675,7.675,0,0,0,3.437,3.451,6.087,6.087,0,0,0,3.147.594c-.124-.262-.235-.525-.345-.8-1.09-2.968-.552-6.377,1.643-10.463,1.449-2.692,2.636-3.962,3.741-3.962h0a1.532,1.532,0,0,1,1.38.911c1.2,2.222.331,9.552-2.043,13.2a5.521,5.521,0,0,1-2.236,1.932c1.85,2.429,5.37,4.569,11.043,6.75a.676.676,0,0,1,.4.883.7.7,0,0,1-.718.456Zm-7.84-22.735s-.787,0-2.526,3.244c-2,3.7-2.512,6.75-1.56,9.317a6.978,6.978,0,0,0,.414.925,3.976,3.976,0,0,0,1.822-1.518c1.933-2.954,2.857-9.028,2.14-11.4C132.086,158.391,131.893,158.308,131.893,158.308Zm-9.911-5.811a32.2,32.2,0,0,0-1.85,4.873,15.709,15.709,0,0,0-.525,9.041l.124-.359a45.263,45.263,0,0,0,2.291-13.555Zm-9.083-4.348c-.235.207-.911,1.077-1.863,4.445a15.515,15.515,0,0,0,.994,11.374,8.53,8.53,0,0,0,.621-1.932c1.477-6.778,1.063-12.906.29-13.886Z" transform="translate(-60.321 -81.355)"/><path class="e" d="M168.528,228.881a12.423,12.423,0,0,1-6.294-1.643.7.7,0,0,1-.248-.952.676.676,0,0,1,.939-.235c4.928,2.885,11.291.87,12.6-1.242a1.215,1.215,0,0,0,.207-.925,11.209,11.209,0,0,1-7.081-2.015c-3.52-2.195-3.8-2.857-3.768-3.382a.842.842,0,0,1,.469-.718c1.38-.69,7.606,2.167,10.2,3.879a5.017,5.017,0,0,1,.856.718,4.9,4.9,0,0,0,2.623-1.574,3.962,3.962,0,0,0,.814-1.56h-.276c-2.209.221-4.417-.732-6.778-2.913-1.629-1.491-2.25-2.526-2.043-3.34a1.242,1.242,0,0,1,.994-.9c1.9-.483,6.626,1.532,8.544,3.644a3.7,3.7,0,0,1,.883,1.629c1.808-.842,3.713-2.761,5.963-5.894a.69.69,0,0,1,.966-.166.7.7,0,0,1,.166.966c-2.609,3.644-4.79,5.715-6.971,6.557a5.094,5.094,0,0,1-1.2,2.761,6.35,6.35,0,0,1-3.009,1.946,2.54,2.54,0,0,1-.387,1.919C175.541,227.418,172.2,228.881,168.528,228.881ZM167.3,219.3c.469.345,1.132.8,2.084,1.38a11.043,11.043,0,0,0,4.969,1.822,34.054,34.054,0,0,0-7.054-3.2Zm4.817-5.867a5.977,5.977,0,0,0,1.615,1.919c2.043,1.891,3.906,2.761,5.7,2.54h.442a2.5,2.5,0,0,0-.607-1.146C177.335,214.567,173.084,213.214,172.117,213.435Z" transform="translate(-36.635 -56.835)"/><path class="f" d="M221.32,250.925l-21.506,3.906L180.281,148.24l-41.494,7.537L71.15,275.868l7.261,39.63,86.756-15.75,5.936,32.411L212.6,324.6l-5.936-32.411,21.506-3.906ZM112.478,270.761l35.889-62.9,10.008,54.58Z" transform="translate(-71.15 -80.77)"/><path class="f" d="M346.665,159.6a81.222,81.222,0,0,0-4.417-19.629,63.926,63.926,0,0,0-9.663-16.827,55.725,55.725,0,0,0-17.531-14.3q-11.043-6.06-29.291-8.434-37.891-4.942-59.052,13.445t-27.883,70.4a192.322,192.322,0,0,0-1.38,39.119q1.38,17.945,6.6,28.891A60.377,60.377,0,0,0,224.268,276.8q13.072,9.179,35.889,12.133,40.555,5.287,60.142-15.584t25.951-70.536a178.729,178.729,0,0,0,.414-43.219Z" transform="translate(-23.274 -99.362)"/><path class="e" d="M268.405,270.571c-3.327-.11-6.9-.414-10.5-.883-12.644-1.643-22.417-4.845-29.07-9.511a45.083,45.083,0,0,1-15.184-18.5l-.069-.152c-2.65-5.521-4.39-13.459-5.149-23.466a176.964,176.964,0,0,1,1.27-36.027c4.928-38.264,15.1-54.234,22.762-60.888,8.945-7.758,21.023-11.264,36.9-10.712,3.258.11,6.708.4,10.256.856,10.187,1.38,18.262,3.589,23.977,6.709a41.122,41.122,0,0,1,12.851,10.339,48.658,48.658,0,0,1,7.385,12.8,65.958,65.958,0,0,1,3.534,15.943,163.809,163.809,0,0,1-.4,39.644c-3.824,29.733-11.222,50.632-21.975,62.116-7.978,8.5-19.946,12.423-36.593,11.788Z" transform="translate(-19.085 -95.171)"/><path class="f" d="M290.453,153.929l.179-5.232-3.216-1.049a31.5,31.5,0,0,0-.856-5.245l2.761-2.015-1.85-4.914-3.368.276a31.5,31.5,0,0,0-2.761-4.514l1.739-2.913-3.589-3.824-3.009,1.546a31.983,31.983,0,0,0-4.307-3.12l.483-3.34-4.776-2.167-2.181,2.567a32.1,32.1,0,0,0-5.176-1.215l-.814-3.271-5.245-.179-1.035,3.2a32.493,32.493,0,0,0-5.245.856l-2.029-2.761-4.914,1.836.276,3.368a31.665,31.665,0,0,0-4.514,2.761l-2.9-1.753-3.837,3.575,1.546,3.023a30.068,30.068,0,0,0-3.106,4.321l-3.341-.511-2.181,4.776,2.581,2.181a29.585,29.585,0,0,0-1.215,5.19l-3.285.828-.179,5.218,3.216,1.049a31.193,31.193,0,0,0,.856,5.259l-2.761,2,1.85,4.914,3.368-.276a29.69,29.69,0,0,0,2.761,4.514l-1.753,2.913,3.589,3.824,3.009-1.532a31.89,31.89,0,0,0,4.307,3.106l-.5,3.341,4.776,2.167,2.195-2.554a31.914,31.914,0,0,0,5.19,1.2l.814,3.285,5.232.179,1.035-3.216a31.2,31.2,0,0,0,5.259-.856l2,2.761,4.914-1.836-.262-3.354a34.355,34.355,0,0,0,4.514-2.761l2.9,1.739,3.837-3.575-1.532-3.023A29.843,29.843,0,0,0,283,166.393l3.34.5,2.181-4.776-2.567-2.181a30.684,30.684,0,0,0,1.2-5.176Zm-35.337,16.937A20.705,20.705,0,1,1,270,165.308a20.705,20.705,0,0,1-14.887,5.558Z" transform="translate(-14.119 -93.292)"/><path class="g" d="M300,220.565l.386-3.534-2.126-.856a22.081,22.081,0,0,0-.3-3.589l1.919-1.229-.98-3.409H296.6a20.451,20.451,0,0,0-1.643-3.189l1.3-1.877-2.209-2.761-2.112.883a22.178,22.178,0,0,0-2.761-2.319l.511-2.236-3.106-1.712-1.629,1.643a21.908,21.908,0,0,0-3.423-1.09l-.386-2.25-3.52-.4-.87,2.126a20.5,20.5,0,0,0-3.575.331l-1.229-1.96-3.41,1.008v2.291a20.568,20.568,0,0,0-3.189,1.656l-1.877-1.38-2.761,2.209.883,2.112a22.262,22.262,0,0,0-2.305,2.761l-2.236-.5-1.7,3.106,1.629,1.615a20.711,20.711,0,0,0-1.09,3.437l-2.264.373-.373,3.52,2.112.883a20.334,20.334,0,0,0,.318,3.561l-1.946,1.229.994,3.409h2.305A21,21,0,0,0,258.7,227.6l-1.38,1.877,2.209,2.761,2.14-.9a20.086,20.086,0,0,0,2.761,2.305l-.483,2.278,3.106,1.7,1.615-1.615a22.254,22.254,0,0,0,3.423,1.063l.4,2.264,3.52.386.856-2.112a22.386,22.386,0,0,0,3.644-.3l1.229,1.946,3.4-.994V235.97a22.705,22.705,0,0,0,3.2-1.656l1.85,1.38,2.761-2.222-.9-2.112a22.472,22.472,0,0,0,2.333-2.761l2.222.5,1.712-3.106-1.629-1.6a22.73,22.73,0,0,0,1.063-3.423Zm-17.765-1.38a6.156,6.156,0,1,1-2.443-8.351,6.156,6.156,0,0,1,2.443,8.351Z" transform="translate(-1.882 -63.882)"/><path class="h" d="M316.09,176.1l-4.141-2.844h0a22.9,22.9,0,0,0-1.656-4.279l1.049-4.141-5.963-6.391-4.141.773a23.465,23.465,0,0,0-4.141-1.946h0l-2.554-4.307-8.738-.29-2.844,4.141h0a21.975,21.975,0,0,0-4.279,1.656l-4.141-1.063-6.391,5.977.773,4.141h0a21.641,21.641,0,0,0-1.946,4.141l-4.293,2.554-.3,8.738,4.141,2.844a22.236,22.236,0,0,0,1.656,4.307h0l-1.049,4.141,5.963,6.391,4.141-.759a23.686,23.686,0,0,0,4.141,1.946h0l2.54,4.293,8.751.3,2.83-4.141a22.93,22.93,0,0,0,4.321-1.656h0l4.141,1.049,6.391-5.963-.759-4.141a23.051,23.051,0,0,0,1.946-4.141h0l4.293-2.554Zm-27.235,13.279a9.828,9.828,0,1,1,10.159-9.483,9.828,9.828,0,0,1-10.159,9.483Z" transform="translate(1.586 -79.081)"/><path class="f" d="M326.731,124.544l.718-1.725h0a9.246,9.246,0,0,0,1.38-.952h1.6l1.877-2.761-.607-1.477a8.535,8.535,0,0,0,.552-1.532h0l1.38-1.27-.58-3.244-1.739-.718h0a8.764,8.764,0,0,0-.953-1.38v-1.6l-2.692-1.877-1.491.621h0a7.661,7.661,0,0,0-1.684-.387l-1.27-1.38-3.23.58-.732,1.739a8.977,8.977,0,0,0-1.449.939h-1.587l-1.877,2.761.607,1.477a8.535,8.535,0,0,0-.386,1.684h0l-1.38,1.284.58,3.23,1.739.718a7.909,7.909,0,0,0,.939,1.38h0v1.587l2.761,1.877,1.477-.607a8.876,8.876,0,0,0,1.7.373h0l1.27,1.38Zm-6.9-8.945a3.7,3.7,0,1,1,4.293,2.982,3.7,3.7,0,0,1-4.293-2.982Z" transform="translate(20.913 -97.27)"/><path class="f" d="M295.9,114.639l-1.063-.9a27.469,27.469,0,0,1,8.282-6.9l.649,1.215A26.048,26.048,0,0,0,295.9,114.639Z" transform="translate(13.933 -96.517)"/><path class="f" d="M303.738,107.9l-.538-1.27a33.018,33.018,0,0,1,16.205-2.6l-.138,1.38a31.459,31.459,0,0,0-15.529,2.485Z" transform="translate(17.113 -97.636)"/><path class="f" d="M302.012,116.364l-1.132-.773A23.107,23.107,0,0,1,314.5,106.77l.262,1.38A21.7,21.7,0,0,0,302.012,116.364Z" transform="translate(16.23 -96.544)"/><path class="h" d="M243.415,225.569a.718.718,0,0,1-.5-.221l-2.885-2.982a24.145,24.145,0,0,1-4.348-.8l-4.514,1.988a.676.676,0,0,1-.649,0l-7.564-5.011a.676.676,0,0,1-.3-.594v-4.914a23.743,23.743,0,0,1-2.429-3.7l-3.879-1.491a.69.69,0,0,1-.428-.511l-1.794-8.89a.69.69,0,0,1,.193-.635l2.982-2.885a25.926,25.926,0,0,1,.8-4.348l-1.988-4.514a.677.677,0,0,1,0-.649l5.011-7.564a.649.649,0,0,1,.594-.3l4.914.069a22.8,22.8,0,0,1,3.7-2.429l1.5-3.879a.677.677,0,0,1,.5-.428l8.89-1.794a.676.676,0,0,1,.635.193l2.885,2.982a24.513,24.513,0,0,1,4.362.8l4.5-1.988a.7.7,0,0,1,.663,0l7.551,5.011a.745.745,0,0,1,.317.594l-.083,4.914a23.829,23.829,0,0,1,2.443,3.7l3.865,1.5a.676.676,0,0,1,.428.5l1.808,8.89a.718.718,0,0,1-.193.635l-3,2.9a24.844,24.844,0,0,1-.8,4.334l1.988,4.514a.7.7,0,0,1,0,.663l-4.942,7.5a.7.7,0,0,1-.58.3l-4.928-.069a25.367,25.367,0,0,1-3.686,2.429l-1.5,3.879a.677.677,0,0,1-.511.428l-8.89,1.877Zm-7.771-5.521a.5.5,0,0,1,.193,0,23,23,0,0,0,4.569.842.773.773,0,0,1,.442.207l2.761,2.9,8.144-1.643,1.463-3.782a.759.759,0,0,1,.331-.359,22.154,22.154,0,0,0,3.879-2.554.649.649,0,0,1,.456-.152l4.79.069,4.583-6.9-1.933-4.39a.69.69,0,0,1,0-.469,24.143,24.143,0,0,0,.842-4.569.7.7,0,0,1,.207-.442l2.9-2.761-1.643-8.144-3.768-1.463a.676.676,0,0,1-.373-.331,22.682,22.682,0,0,0-2.554-3.879.718.718,0,0,1-.152-.442v-4.8l-6.9-4.583L249.5,174.33a.718.718,0,0,1-.483,0,23.467,23.467,0,0,0-4.583-.842.773.773,0,0,1-.442-.207l-2.761-2.9-8.144,1.656-1.449,3.837a.7.7,0,0,1-.317.373,22,22,0,0,0-3.893,2.554.594.594,0,0,1-.442.152l-4.79-.069-4.6,6.9,1.933,4.39a.69.69,0,0,1,0,.594,23.644,23.644,0,0,0-.8,4.459.69.69,0,0,1-.207.442l-2.9,2.761,1.656,8.144,3.755,1.463a.759.759,0,0,1,.386.359,22.388,22.388,0,0,0,2.54,3.851.663.663,0,0,1,.152.442v4.8l6.9,4.583,4.39-1.933a.719.719,0,0,1,.235-.1Zm6.778-4.472a18.386,18.386,0,0,1-15.308-28.546h0a18.4,18.4,0,1,1,15.308,28.546Zm-14.149-27.787a16.937,16.937,0,1,0,10.793-7.3,17.006,17.006,0,0,0-10.793,7.3Z" transform="translate(-16.774 -72.848)"/><path class="f" d="M468.777,263.6,447.1,260.678l14.328-107.406-41.8-5.632L318.248,240.98l-5.328,39.934L400.283,292.7l-4.362,32.673,41.8,5.632,4.362-32.659,21.672,2.926Zm-109.628-14.8,53.5-48.768-7.344,54.994Z" transform="translate(20.81 -80.998)"/><path class="e" d="M394.335,328.779h-.179a.69.69,0,0,1-.552-.8l32.3-176.6a.7.7,0,0,1,.8-.552.69.69,0,0,1,.552.8l-32.231,176.59A.7.7,0,0,1,394.335,328.779Z" transform="translate(51.494 -79.791)"/><path class="e" d="M415.454,153.694a1.133,1.133,0,1,1-1.091-1.173A1.133,1.133,0,0,1,415.454,153.694Z" transform="translate(58.949 -79.142)"/><path class="e" d="M412.124,170.994a1.132,1.132,0,1,1-.3-.813A1.132,1.132,0,0,1,412.124,170.994Z" transform="translate(57.682 -72.562)"/><path class="e" d="M408.794,188.324a1.132,1.132,0,0,1-1.173,1.09,1.118,1.118,0,0,1-1.091-1.159,1.132,1.132,0,0,1,1.173-1.1,1.146,1.146,0,0,1,1.091,1.173Z" transform="translate(56.415 -65.971)"/><path class="e" d="M402.232,206.346a1.132,1.132,0,1,1-.523-1.084A1.132,1.132,0,0,1,402.232,206.346Z" transform="translate(53.922 -59.147)"/><path class="e" d="M402.124,222.893a1.118,1.118,0,0,1-1.173,1.091,1.132,1.132,0,1,1,1.173-1.09Z" transform="translate(53.879 -52.821)"/><path class="e" d="M398.794,240.19a1.132,1.132,0,1,1-1.091-1.159A1.132,1.132,0,0,1,398.794,240.19Z" transform="translate(52.612 -46.237)"/><path class="e" d="M395.464,257.492a1.146,1.146,0,0,1-1.173,1.1,1.136,1.136,0,1,1,1.173-1.1Z" transform="translate(51.345 -39.659)"/><path class="e" d="M392.124,274.8a1.132,1.132,0,1,1-1.09-1.173,1.118,1.118,0,0,1,1.09,1.173Z" transform="translate(50.075 -33.077)"/><path class="e" d="M400.977,207.033a.676.676,0,0,1-.663-.538.69.69,0,0,1,.525-.828l3.423-.732a.692.692,0,1,1,.29,1.353l-3.423.732Z" transform="translate(54.045 -59.212)"/><path class="e" d="M410.522,197.24a117.413,117.413,0,0,0-4.141,12.92c-1.035,4.873-1.091,15.778-1.091,15.778" transform="translate(55.944 -62.132)"/><path class="e" d="M405.48,226.831h0a.718.718,0,0,1-.69-.7c0-.442.083-11.043,1.118-15.9a116.254,116.254,0,0,1,4.141-13.031.69.69,0,1,1,1.284.5,116.461,116.461,0,0,0-4.141,12.824c-1.008,4.748-1.077,15.515-1.091,15.626A.69.69,0,0,1,405.48,226.831Z" transform="translate(55.754 -62.336)"/></g><g transform="translate(157.237 319.508)"><path class="e" d="M222.45,326.984c1.919-30.92-1.6-87.142,56.526-79.688,62.3,7.965,44.475,80.82,44.475,80.82Z" transform="translate(-72.626 -246.622)"/><circle class="h" cx="25.371" cy="25.371" r="25.371" transform="translate(164.567 11.04)"/><path class="e" d="M261.13,254.732c-12.023-2.043-24.846,6.805-26.13,15.778l47.636,4.39C280.952,264.67,270.655,256.361,261.13,254.732Z" transform="translate(-67.852 -243.65)"/><path class="e" d="M269.712,275.965c-.345,6.64-3.962,11.843-8.075,11.623s-7.178-5.756-6.9-12.423,3.962-11.843,8.075-11.623S270.043,269.339,269.712,275.965Z" transform="translate(-60.352 -240.189)"/><path class="f" d="M258.881,307.123a26.751,26.751,0,1,1,26.751-26.751A26.751,26.751,0,0,1,258.881,307.123Zm0-50.728a23.991,23.991,0,1,0,23.991,23.977,23.991,23.991,0,0,0-23.991-23.977Z" transform="translate(-68.944 -243.96)"/><path class="i" d="M290.716,315.171h-.166a.676.676,0,0,1-.511-.828c0-.179,4.445-18.9-.124-37.822a.71.71,0,0,1,1.38-.331c4.652,19.325.166,38.291.124,38.471A.69.69,0,0,1,290.716,315.171Z" transform="translate(-46.972 -235.583)"/><path class="i" d="M289.72,272.094a.718.718,0,0,1-.635-.4,48.217,48.217,0,0,0-6.543-10.574.692.692,0,1,1,1.077-.87,50.345,50.345,0,0,1,6.722,10.863.676.676,0,0,1-.331.911A.745.745,0,0,1,289.72,272.094Z" transform="translate(-49.827 -241.536)"/><path class="e" d="M130.72,424.66h-.511a6.9,6.9,0,1,1,.387-13.8h.124c3.989,0,13.583-4.845,33.653-36.483a6.9,6.9,0,0,1,10.367-1.5,286.371,286.371,0,0,0,51.267,35.172,6.9,6.9,0,1,1-6.239,12.3A293.673,293.673,0,0,1,171.731,388.4C154.9,413.728,142.426,424.66,130.72,424.66Z" transform="translate(-110.263 -199.25)"/><path class="e" d="M163.36,392.683h-.594A4.141,4.141,0,0,1,159.26,388c.98-6.9-.235-32.618-8.945-52.633a4.141,4.141,0,0,1,1.463-5.08c18.911-12.879,59.19-14.425,60.9-14.48a4.143,4.143,0,0,1,.276,8.282c-.373,0-35.586,1.38-53.668,11.319,7.7,19.932,9.455,44.765,8.172,53.751a4.141,4.141,0,0,1-4.1,3.52Z" transform="translate(-100.195 -220.306)"/><path class="f" d="M173.591,368.9c-2.761-6.5-15.184-5.77-22.458-.193-3.893,2.968-9.166,11.926-9.663,15.184a4.886,4.886,0,0,0,5.521,5.853c4.762-.414,11.291-7.33,11.291-7.33-4.348,4.265,1.27,7.274,9.663,1.1C172.528,380.076,176.669,376.17,173.591,368.9Z" transform="translate(-103.469 -201.874)"/><path class="e" d="M336.9,318.071a.442.442,0,0,1-.193,0,.676.676,0,0,1-.469-.856c1.836-6.4,3.837-10.311,6.474-12.423a7.151,7.151,0,0,1,.221-4.5,8.9,8.9,0,0,1,3.258-4.141,3.506,3.506,0,0,1-.814-3.285,8.531,8.531,0,0,1,2.954-4.362,3.092,3.092,0,0,1-.787-2.084c0-4.141,7.606-10.38,16.233-11.567a.7.7,0,0,1,.193,1.38c-8.2,1.118-15.074,7.054-15.046,10.187a1.808,1.808,0,0,0,.5,1.256,16.9,16.9,0,0,1,12.81-2.581c4.238.814,5.963,1.712,5.77,3-.386,2.416-9.4,2.926-15.446,2.209a8.53,8.53,0,0,1-3.106-.9,7.426,7.426,0,0,0-2.761,3.768,2.167,2.167,0,0,0,.676,2.264c2.567-1.38,6.17-1.877,10.932-.828,6.253,1.38,6.488,2.14,6.64,2.6a.925.925,0,0,1-.235.925c-1.311,1.38-10.9.732-15.722-.456a6.774,6.774,0,0,1-1.67-.621,7.523,7.523,0,0,0-3.12,3.741,5.839,5.839,0,0,0-.317,3.175,7.948,7.948,0,0,1,.759-.4c2.857-1.38,6.308-1.132,10.574.69,2.761,1.2,4.141,2.278,4.279,3.368A1.546,1.546,0,0,1,358.7,309c-2.112,1.38-9.483,1.187-13.32-.856a5.522,5.522,0,0,1-2.126-2.057c-2.25,2.07-4.072,5.756-5.729,11.54A.7.7,0,0,1,336.9,318.071Zm7.482-12.879a4.141,4.141,0,0,0,1.684,1.684c3.12,1.656,9.248,2.029,11.54,1.1.469-.193.538-.345.538-.345s-.069-.773-3.451-2.222c-3.865-1.656-6.9-1.891-9.428-.718a7.994,7.994,0,0,0-.884.5Zm4.61-9.069.345.1a45.674,45.674,0,0,0,13.721,1.035,29.956,29.956,0,0,0-5.025-1.38,15.709,15.709,0,0,0-9.041.248Zm1.739-7.758a8.168,8.168,0,0,0,1.974.442c6.9.814,12.962-.138,13.8-1.008-.235-.207-1.159-.8-4.583-1.449A15.529,15.529,0,0,0,350.732,288.366Z" transform="translate(-29.357 -235.887)"/><path class="e" d="M227.85,408.952c.911-.29.607-1.173-.414-1.173h-18.69c-35.586-3.768-60.446,1.284-44.779,2.471s-1.1.939-12.547,5.273,85.1,5.425,93.865,0C253.345,410.525,215.233,413,227.85,408.952Z" transform="translate(-100.001 -185.847)"/><path class="f" d="M350.137,457.172l-162.607-5.4L180.78,294.11,372.8,298.4Z" transform="translate(-88.475 -228.56)"/><path class="e" d="M226.231,454.066a.69.69,0,0,1-.69-.635L212.51,295.076a.7.7,0,0,1,.635-.745.718.718,0,0,1,.745.635l13.1,158.355a.69.69,0,0,1-.635.745Z" transform="translate(-76.407 -228.476)"/><path class="f" d="M303.47,455.989l43.7-6.653,13.762-146.608-34.8-5.508Z" transform="translate(-41.809 -227.377)"/><path class="j" d="M303.47,455.989l43.7-6.653,13.762-146.608-34.8-5.508Z" transform="translate(-41.809 -227.377)"/><path class="e" d="M196.837,417l-4-93.685a16.937,16.937,0,0,1,17.3-17.655l121.555,2.761a16.937,16.937,0,0,1,16.385,19.325L334.6,422.081a16.937,16.937,0,0,1-17.3,14.563l-104.065-3.451A16.937,16.937,0,0,1,196.837,417Z" transform="translate(-83.896 -224.168)"/><path class="h" d="M205.452,326.49l18.8.594-.152,4.845-11.774-.373-.11,3.617,10.919.345-.152,4.638-10.919-.359-.138,4.486,12.106.387-.166,5.135L204.72,349.2Z" transform="translate(-79.369 -216.243)"/><path class="h" d="M221.4,349.727l.718-22.707,11.705.373a16.865,16.865,0,0,1,4.955.718,5.259,5.259,0,0,1,2.761,2.153,6.4,6.4,0,0,1-2.264,9.1,8.5,8.5,0,0,1-2.5.828,7.064,7.064,0,0,1,1.808.884,7.609,7.609,0,0,1,1.077,1.242,8.879,8.879,0,0,1,.939,1.38l3.189,6.695-7.923-.262-3.534-7.054a5.439,5.439,0,0,0-1.215-1.794,3.064,3.064,0,0,0-1.7-.58H228.8l-.29,9.207Zm7.482-13.279,2.954.1a11.922,11.922,0,0,0,1.864-.262,1.863,1.863,0,0,0,1.173-.676,2.167,2.167,0,0,0,.483-1.3,2.126,2.126,0,0,0-.649-1.712,4.279,4.279,0,0,0-2.6-.676l-3.092-.1Z" transform="translate(-73.025 -216.042)"/><path class="h" d="M239.28,350.257,240,327.55l11.692.373a16.785,16.785,0,0,1,4.956.718,5.2,5.2,0,0,1,2.761,2.153,6.646,6.646,0,0,1-2.25,9.1,8.659,8.659,0,0,1-2.5.828,6.9,6.9,0,0,1,1.795.883,6.679,6.679,0,0,1,1.09,1.229,9.484,9.484,0,0,1,.939,1.38l3.189,6.681-7.923-.248-3.534-7.054A5.522,5.522,0,0,0,249,341.8a2.871,2.871,0,0,0-1.712-.58h-.607l-.3,9.221Zm7.468-13.279,2.968.083a9.952,9.952,0,0,0,1.864-.248,1.808,1.808,0,0,0,1.159-.676,2.015,2.015,0,0,0,.483-1.3,2.1,2.1,0,0,0-.635-1.712,4.141,4.141,0,0,0-2.609-.676l-3.078-.1Z" transform="translate(-66.224 -215.84)"/><path class="h" d="M256.331,339.522a10.753,10.753,0,0,1,12.092-11.388,11.871,11.871,0,0,1,8.641,3.327,11.485,11.485,0,0,1,2.761,8.627,14.094,14.094,0,0,1-1.546,6.488,9.663,9.663,0,0,1-4,3.837,12.728,12.728,0,0,1-6.363,1.215,14.6,14.6,0,0,1-6.322-1.38,9.663,9.663,0,0,1-3.948-4,12.714,12.714,0,0,1-1.311-6.722Zm7.012.249a7.675,7.675,0,0,0,1.118,4.983,4.859,4.859,0,0,0,6.985.262,8.462,8.462,0,0,0,1.38-5.245,7.137,7.137,0,0,0-1.146-4.735,4.444,4.444,0,0,0-3.368-1.532,4.279,4.279,0,0,0-3.465,1.38,7.675,7.675,0,0,0-1.5,4.886Z" transform="translate(-59.754 -215.651)"/><path class="h" d="M275.91,351.471l.718-22.721,11.692.373a17.269,17.269,0,0,1,4.956.718,5.342,5.342,0,0,1,2.761,2.153,6.2,6.2,0,0,1,.939,3.713,6.1,6.1,0,0,1-3.189,5.4,9.123,9.123,0,0,1-2.5.814,6.9,6.9,0,0,1,1.794.9,6.678,6.678,0,0,1,1.091,1.229,8.874,8.874,0,0,1,.939,1.38l3.189,6.695-7.923-.248-3.534-7.067a5.4,5.4,0,0,0-1.215-1.781,2.981,2.981,0,0,0-1.712-.594h-.607l-.3,9.221Zm7.468-13.293,2.968.1a9.951,9.951,0,0,0,1.864-.249,1.864,1.864,0,0,0,1.159-.676,2.043,2.043,0,0,0,.483-1.38,2.07,2.07,0,0,0-.635-1.7,4.141,4.141,0,0,0-2.609-.676l-3.078-.1Z" transform="translate(-52.291 -215.384)"/><path class="h" d="M314.43,379.248a1.822,1.822,0,0,1-1.38-.594L301.234,365.72,288.48,377.37a1.808,1.808,0,0,1-2.554-.11L274.11,364.326l-12.755,11.65a1.808,1.808,0,0,1-2.554-.11l-11.83-12.934-12.741,11.65a1.836,1.836,0,0,1-1.38.469,1.864,1.864,0,0,1-1.256-.594l-11.816-12.92-12.741,11.636a1.822,1.822,0,0,1-2.567-.11,1.794,1.794,0,0,1,.124-2.554l14.08-12.879a1.822,1.822,0,0,1,2.567.11l11.816,12.934,12.741-11.65a1.891,1.891,0,0,1,1.311-.469,1.836,1.836,0,0,1,1.256.594l11.816,12.934,12.755-11.65a1.794,1.794,0,0,1,2.554.11l11.816,12.934,12.755-11.65a1.808,1.808,0,0,1,2.554.11l13.2,14.328a1.822,1.822,0,0,1-1.38,3.037Z" transform="translate(-79.645 -204.58)"/><path class="f" d="M130.253,427.408l-8.641-4.127-7.7-37.5,4.182-4.6Z" transform="translate(-113.91 -195.442)"/><path class="f" d="M129.1,427.408l11.471-6.709-9.828-30.893-13.8-8.627Z" transform="translate(-112.758 -195.442)"/><path class="j" d="M129.1,427.408l11.471-6.709-9.828-30.893-13.8-8.627Z" transform="translate(-112.758 -195.442)"/><path class="e" d="M264.114,429.513h-.952a6.9,6.9,0,0,1,.373-13.8c10.629.345,33.129-6.184,45.994-18.662a6.9,6.9,0,0,1,2.761-1.656c21.8-6.543,29.9,6.667,30.23,7.233l-11.871,7.026a1.379,1.379,0,0,0,.152.248c-.124-.179-3.216-4.141-13.044-1.712C301.618,422.9,276.854,429.513,264.114,429.513Z" transform="translate(-59.696 -190.727)"/><path class="f" d="M268.86,439.456l-25.136-1.574L241.75,391.53l33.777,1.256Z" transform="translate(-65.285 -191.505)"/><path class="f" d="M261.39,439.11l5.88-5.853,3.644-28.891-2.857-11.926Z" transform="translate(-57.814 -191.159)"/><path class="j" d="M261.39,439.11l5.88-5.853,3.644-28.891-2.857-11.926Z" transform="translate(-57.814 -191.159)"/><path class="e" d="M381.013,447.717a4.141,4.141,0,0,1-2.5-.842c-14.356-10.9-33.75-30.271-41.19-48.948a3.641,3.641,0,0,1-.235-.842c-3.63-21.589-7.1-67.017-7.247-68.935a4.153,4.153,0,0,1,8.282-.621c0,.456,3.547,46.325,7.081,67.734,7.426,18.166,27.607,36.814,38.346,45.014a4.141,4.141,0,0,1-2.512,7.44Z" transform="translate(-31.782 -217.31)"/><path class="e" d="M384.226,418.3c-3.2,0-6.833-1.449-10.794-4.307a4.142,4.142,0,1,1,4.859-6.709c3.423,2.471,5.287,2.761,5.936,2.761a4.141,4.141,0,0,1,0,8.282Z" transform="translate(-15.849 -185.811)"/><path class="f" d="M373.853,414.654c4.431-13.155,22.6-10.56,28.863-8.6A65.944,65.944,0,0,1,418,412.68c3.382,2.209,3.437,5.922-1.077,8.034-5.521,2.6-19.546.29-19.546.29,7.233,3.161,0,8.282-12.713,3.258C380.534,422.632,372.294,419.485,373.853,414.654Z" transform="translate(-15.111 -186.593)"/><path class="e" d="M348.873,337.14c-1.643,11.181-10.9,19.422-18.442,18.317s-7.84-11.043-6.2-22.279,4.624-19.325,12.161-18.221S350.515,326,348.873,337.14Z" transform="translate(-34.219 -220.668)"/><circle class="e" cx="1.132" cy="1.132" r="1.132" transform="translate(131.341 69.622)"/><path class="e" d="M218.834,304.092a1.132,1.132,0,1,1-1.132-1.132A1.132,1.132,0,0,1,218.834,304.092Z" transform="translate(-74.862 -225.193)"/><path class="e" d="M219.754,400.992a1.132,1.132,0,1,1-1.132-1.132,1.132,1.132,0,0,1,1.132,1.132Z" transform="translate(-74.512 -188.336)"/><path class="e" d="M227.264,406.9a1.132,1.132,0,1,1-1.132-1.132,1.132,1.132,0,0,1,1.132,1.132Z" transform="translate(-71.656 -186.088)"/></g><g transform="translate(103.631 538.677)"><path class="e" d="M85.338,420.612A13.279,13.279,0,0,1,75.22,415.16a.69.69,0,1,1,1.132-.787c2.581,3.727,8.282,5.7,10.767,4.528a1.794,1.794,0,0,0,.649-.469,8.351,8.351,0,0,1-4.859-6.184c-.317-1.753-.566-4.141.87-4.445,1.988-.442,4.583,4.348,5.521,7.978a5.218,5.218,0,0,1,.179,1.85,5.88,5.88,0,0,0,2.457.193,2.678,2.678,0,0,0,1.9-1.021,8.089,8.089,0,0,1-3.189-5.784c-.525-3.782-.124-4.431.29-4.762a.911.911,0,0,1,.952-.1c1.477.621,3.258,5.977,3.6,9.014a3.673,3.673,0,0,1,0,.952,5.4,5.4,0,0,0,1.863.359,5.921,5.921,0,0,0,3.327-.87c-.193-.124-.373-.262-.552-.4-1.38-1.229-2.015-3.189-1.767-5.977.193-2.167.676-3.354,1.546-3.727a1.56,1.56,0,0,1,1.67.331,9.552,9.552,0,0,1,2.388,7.675,4.14,4.14,0,0,1-.7,1.587c2.54.442,6.1-.276,9.179-1.035a.71.71,0,0,1,.331,1.38c-3.741.925-7.771,1.684-10.615.856a7.854,7.854,0,0,1-4.831,1.6,6.667,6.667,0,0,1-2.264-.428,3.865,3.865,0,0,1-2.926,1.753,7.357,7.357,0,0,1-3.092-.262,3.05,3.05,0,0,1-1.38,1.229,5.744,5.744,0,0,1-2.333.414Zm-1.187-11.429a5.963,5.963,0,0,0,.11,2.83,6.971,6.971,0,0,0,3.92,5.107,4.432,4.432,0,0,0-.166-.966C86.939,412.206,84.869,409.486,84.151,409.183Zm7.689-1.2a19.587,19.587,0,0,0,.235,2.843,7.15,7.15,0,0,0,2.1,4.445,21.7,21.7,0,0,0-2.333-7.288Zm8.682-1.2h0s-.525.262-.718,2.567.207,3.893,1.284,4.818a4.23,4.23,0,0,0,.828.525,3.092,3.092,0,0,0,.745-1.38,8.641,8.641,0,0,0-1.643-6.115c-.29-.359-.455-.414-.5-.414Z" transform="translate(-75.075 -405.399)"/><path class="e" d="M229.973,427.555l3.741-6.488-3.741-6.488h-4l2.264,6.488-2.264,6.488Z" transform="translate(-17.681 -401.907)"/><path class="e" d="M228.378,423.94a3.382,3.382,0,1,1,0-6.75l-6.35-1.27-1.7,5.135,2.844,4.334Z" transform="translate(-19.826 -401.397)"/><path class="f" d="M229.656,414.58h-7.5l-3.741,6.488,3.741,6.488h7.5l3.741-6.488Zm-3.741,9.87a3.382,3.382,0,1,1,3.368-3.382,3.382,3.382,0,0,1-3.368,3.382Z" transform="translate(-20.553 -401.907)"/><path class="f" d="M418.655,416.915,415.88,412.1l2.775-4.817h2.968l-1.67,4.817,1.67,4.817Z" transform="translate(54.554 -404.683)"/><path class="f" d="M419.9,414.229a2.512,2.512,0,1,0,0-5.011l4.721-.939,1.256,3.81-2.1,3.216Z" transform="translate(56.083 -404.303)"/><path class="e" d="M420.371,407.28h5.521l2.761,4.817-2.761,4.817h-5.521L417.61,412.1Zm2.761,7.33a2.515,2.515,0,1,1,.014,0Z" transform="translate(55.212 -404.683)"/><path class="e" d="M343.814,420.528h6.239a2.954,2.954,0,0,0,2.94-2.954h0a2.954,2.954,0,0,0-2.94-2.954h-6.239a2.954,2.954,0,0,0-2.954,2.954h0a2.954,2.954,0,0,0,2.954,2.954Z" transform="translate(26.019 -401.891)"/><path class="f" d="M335.92,415.739a6.156,6.156,0,1,1,2.761,8.531,6.363,6.363,0,0,1-2.761-8.531Z" transform="translate(23.878 -402.679)"/><rect class="e" width="1.891" height="13.942" transform="translate(363.191 22.396) rotate(-154.76)"/></g></g></svg>