<svg xmlns="http://www.w3.org/2000/svg" width="146" height="31.463" viewBox="0 0 146 31.463"><defs><style>.a{fill:#8f002f;}</style></defs><g transform="translate(-20 -256)"><path class="a" d="M173.2,283.033v-.608c-1.071-.073-1.192-.365-1.192-.779V261.887c0-.414.122-.8,1.192-.827v-.56h-10l-5.061,10.512-4.55-10.512H144v.56c1.071.073,1.192.365,1.192.779v19.807c0,.389-.146.706-1.192.779v.608h7.543v-.608c-1.071-.073-1.192-.365-1.192-.779V265.537l7.592,16.936,7.762-16.814v15.963c0,.389-.122.706-1.192.779v.608H173.2Z" transform="translate(-93.827 -3.405)"/><path class="a" d="M377.479,282.957v-.608c-1.071-.073-1.192-.365-1.192-.779V265.607h7.324c.462,0,.633.243.779,1.192h.56v-6.4H361.2v6.448h.56c.122-1.071.292-1.265.779-1.265h7.3v15.963c0,.389-.1.706-1.168.779v.608h8.809Z" transform="translate(-258.175 -3.329)"/><path class="a" d="M476.309,283.033c-1.071-.657-1.192-.973-1.192-1.363V261.838c0-.389.122-.706,1.192-.779v-.56H467.5v.56c1.071.073,1.192.365,1.192.779v19.807c0,.389-.146.706-1.192.779v.608Z" transform="translate(-338.608 -3.405)"/><path class="a" d="M293.21,281.059,284.863,260.4h-9.9v.56c.365,0,.8.073.8.511,0,.268-7.154,18.858-7.519,19.88a1.243,1.243,0,0,1-1.144.973v.608h7.495v-.608c-.608,0-.779-.17-.779-.438a39.9,39.9,0,0,1,1.363-3.845h10.147c.17.535,1.436,3.626,1.436,3.772s-.195.462-.8.511v.633h8.4v-.608C293.94,282.324,293.6,282.057,293.21,281.059Zm-16.887-6.448,3.772-10.171,4.161,10.147-7.933.024Z" transform="translate(-186.972 -3.329)"/><path class="a" d="M37.471,280.5c5.864-1.071,10.439-5.378,10.439-12.094,0-8.006-6.229-12.41-13.967-12.41S20,260.4,20,268.41c0,6.448,4.112,10.682,9.66,11.948,2.141,5.426,7.519,7.105,11.461,7.105a13.327,13.327,0,0,0,1.7-.1l3.212-5.086a16.721,16.721,0,0,1-3.115.341C40.2,282.621,38.372,281.672,37.471,280.5ZM26.5,268.386c0-4.015,2.75-7.105,7.422-7.105s7.519,3.09,7.519,7.105-2.823,7.032-7.519,7.032S26.5,272.376,26.5,268.386Z"/><path class="a" d="M538.672,261.309a25.018,25.018,0,0,0-11.364-2.263c-6.935,0-14.308,3.893-14.308,11.631s7.13,11.631,14.478,11.631a23.233,23.233,0,0,0,11.558-3.163l-2.944-5.013a16.872,16.872,0,0,1-8.492,2.385c-4.234,0-7.86-1.9-7.86-5.889,0-4.429,4.526-5.913,8.054-5.913s6.448.925,6.862,1.728a1.344,1.344,0,0,1,0,.973l.535.243Z" transform="translate(-373.037 -2.292)"/></g></svg>