<svg xmlns="http://www.w3.org/2000/svg" xmlns:xlink="http://www.w3.org/1999/xlink" width="642" height="345" viewBox="0 0 642 345"><defs><style>.a{fill:#f1edf7;}.aa,.ad,.ag,.ah,.aj,.b,.h,.s,.v,.w,.z{fill:none;}.c{fill:#fff;}.d{fill:#8581e1;}.e{fill:#f6f6f6;}.f{clip-path:url(#a);}.g{clip-path:url(#b);}.h{stroke:#e1defd;}.ag,.h,.w{stroke-miterlimit:10;}.i{fill:#6f71d7;}.j{fill:#a4a0ea;}.k{fill:#d8d1fc;}.l{opacity:0.68;}.m{opacity:0.45;}.n{fill:#5b5ec8;}.o{clip-path:url(#c);}.p{fill:#ebe9f7;}.q{fill:silver;opacity:0.35;mix-blend-mode:multiply;isolation:isolate;}.r{fill:#62adeb;}.ag,.s{stroke:#fff;}.aa,.ad,.ah,.aj,.s,.v,.z{stroke-linecap:round;stroke-linejoin:round;}.s{stroke-width:1.773px;}.t{fill:#82c0fc;}.u{clip-path:url(#d);}.v{stroke:#5b5ec8;stroke-width:0.75px;}.ah,.w{stroke:#d8d1fc;}.w{stroke-width:1.17px;}.x{fill:#a1542f;}.y{fill:#bf7752;}.aa,.z{stroke:#000;}.z{stroke-width:1.274px;}.aa{stroke-width:1.183px;}.ab{clip-path:url(#e);}.ac{clip-path:url(#f);}.ad{stroke:#a1542f;stroke-width:0.861px;}.ae{clip-path:url(#g);}.af{fill:#efedfd;}.ag{stroke-width:1.722px;}.ah{stroke-width:1.146px;}.ai{fill:#fdca50;}.aj{stroke:#f9b52e;stroke-width:2.292px;}.ak{fill:#f9b52e;}</style><clipPath id="a"><rect class="a" width="642" height="345" rx="60" transform="translate(-22504 -3325)"/></clipPath><clipPath id="b"><rect class="b" width="594" height="349" transform="translate(0.003)"/></clipPath><clipPath id="c"><path class="c" d="M270.624,137.909s-22.5,10.77-27.581,39.794a238.143,238.143,0,0,0-3.782,39.873,10.64,10.64,0,0,1-8.273,10.4c-7.567,1.678-17.94,2.092-21.19-6.893,0,0-8.745-22.122,3.566-45,0,0,6.143-12.374-.358-31.7Z" transform="translate(-206.786 -137.909)"/></clipPath><clipPath id="d"><path class="d" d="M205.561,89.526l-2.672,22.152a1.3,1.3,0,0,0,1.217,1.449l17.355.943a1.3,1.3,0,0,0,1.357-1.136l2.727-22.327a1.3,1.3,0,0,0-1.229-1.452L206.9,88.386A1.3,1.3,0,0,0,205.561,89.526Z" transform="translate(-202.88 -88.385)"/></clipPath><clipPath id="e"><path class="e" d="M419.931,144.675s6.973-13.22,25.508-7.407C445.439,137.268,437.3,144.8,419.931,144.675Z" transform="translate(-419.931 -135.791)"/></clipPath><clipPath id="f"><path class="e" d="M393.44,145.518s-4.894-12.081-15.877-6.071C377.563,139.448,382.886,146.2,393.44,145.518Z" transform="translate(-377.563 -137.771)"/></clipPath><clipPath id="g"><path class="c" d="M375.47,172.845s10.052-4.42,16.012-6.762a9.185,9.185,0,0,1,5.582-.372c3.213.8,9,2.392,16.548,5.111,14.254,5.134,21.632,2.2,21.632,2.2l2.115,32.728s-11.615,13.26-35.752,9.253C375.125,210.61,375.47,172.845,375.47,172.845Z" transform="translate(-375.47 -165.441)"/></clipPath></defs><g class="f" transform="translate(22504 3325)"><g transform="translate(-22410.002 -3320)"><g class="g" transform="translate(-62)"><g transform="translate(-40.881 -32.673)"><path class="h" d="M71.967,501.714c10.583-15.541,28-24.862,45.145-32.572a485.289,485.289,0,0,1,457.623,31.973" transform="translate(90.187 -96.462)"/><path class="h" d="M-65.943,342.156c10.464-26.665,38.7-42.97,66.991-47.436s57.1.822,85.335,5.676c52.042,8.947,104.343,16.461,156.874,21.834,47.306,4.838,95.03,7.936,142.386,3.616s94.559-16.311,135.763-40.052c24.121-13.9,47.229-33.579,54.324-60.5" transform="translate(131.945 -35.546)"/><path class="h" d="M507.681,212.418c-62.607-42.289-142.93-49.6-218.054-41.572s-148.1,29.9-222.822,41.033c-39.156,5.831-79.722,8.614-117.85-2.036-43.967-12.281-81.773-41.948-109.564-78.164" transform="translate(160.609 -7.199)"/><path class="h" d="M-97.98-21.476c2.437-7.076,9.679-11.208,16.578-14.11C-38.431-53.664,11.244-48,55.281-32.7S139.6,6.865,181.845,26.577a577.2,577.2,0,0,0,99.023,36.011c35.973,9.325,74.443,14.646,109.989,3.805C438.038,52,474.566,7.658,479.652-41.4" transform="translate(141.645 46.862)"/><g transform="translate(154.101 60.341)"><g transform="translate(393.432 150.083)"><g transform="translate(0.128 6.129)"><path class="i" d="M643.873,268.5l3.211,10.323,5.939-3.953-7.054-7.622a2.375,2.375,0,1,0-2.1,1.252Z" transform="translate(-629.924 -263.738)"/><path class="i" d="M638.309,297.762l-9.343,4.535a2.375,2.375,0,1,0,.589,2.37l10.81-.073Z" transform="translate(-624.897 -274.04)"/><path class="i" d="M681.178,264.333a2.381,2.381,0,0,0-3.633,2.941l-7.593,7.7,6.285,3.377,3.4-9.813a2.374,2.374,0,0,0,1.54-4.2Z" transform="translate(-638.54 -263.751)"/><path class="i" d="M697.753,297.422a2.383,2.383,0,0,0-2.495.911l-10.246-3.447-.277,7.129,10.31-1.249a2.378,2.378,0,1,0,2.708-3.343Z" transform="translate(-643.016 -273.17)"/><path class="i" d="M652.106,315.611,650.093,325.8a2.374,2.374,0,1,0,2.246.958l6.457-8.67Z" transform="translate(-631.9 -279.445)"/><path class="i" d="M677.731,324.452l-1.565-10.7-6.483,2.981,5.782,8.627a2.374,2.374,0,1,0,2.265-.911Z" transform="translate(-638.458 -278.883)"/></g><path class="j" d="M680.244,269.946a2.382,2.382,0,0,0-4.541,1.11l-4.915,1.8a22.234,22.234,0,0,0-13.926-8.826c-.7-.132-1.406-.227-2.1-.291l-.772-4.333a2.375,2.375,0,1,0-2.441-.077l-1.224,4.445a22.373,22.373,0,0,0-16.119,9.743l-4.735-1.726a2.374,2.374,0,1,0-1.292,2.072l3.807,3.879a22.3,22.3,0,0,0,2.254,20.712l-2.632,4.961a2.375,2.375,0,1,0,1.875,1.566l3.857-2.86A22.208,22.208,0,0,0,648.6,307.9a22.507,22.507,0,0,0,3.346.374l1.138,4.6a2.375,2.375,0,1,0,2.441-.084l.992-4.826a22.386,22.386,0,0,0,13-7.287l3.625,1.922a2.375,2.375,0,1,0,1.565-1.874l-2.654-3.58a22.324,22.324,0,0,0,1.14-20.1l3.869-3.955a2.374,2.374,0,0,0,3.186-3.142Z" transform="translate(-624.714 -254.947)"/><g transform="translate(12.334 18.399)"><path class="k" d="M650.253,305.274a3.958,3.958,0,1,1-3.157-4.623A3.958,3.958,0,0,1,650.253,305.274Z" transform="translate(-642.405 -287.165)"/><path class="k" d="M666.809,297.5a3.171,3.171,0,1,1-2.529-3.7A3.171,3.171,0,0,1,666.809,297.5Z" transform="translate(-647.89 -285.095)"/><path class="k" d="M679.557,285.872a3,3,0,1,1-2.394-3.506A3,3,0,0,1,679.557,285.872Z" transform="translate(-651.852 -281.633)"/><path class="k" d="M655.237,284.341a2.534,2.534,0,1,1-2.021-2.959A2.534,2.534,0,0,1,655.237,284.341Z" transform="translate(-644.769 -281.337)"/><path class="k" d="M686.208,305.724a1.555,1.555,0,1,1-1.24-1.815A1.555,1.555,0,0,1,686.208,305.724Z" transform="translate(-654.735 -288.163)"/><path class="k" d="M666.526,316.224a1.555,1.555,0,1,1-1.24-1.816A1.555,1.555,0,0,1,666.526,316.224Z" transform="translate(-648.775 -291.343)"/></g></g><g transform="translate(369.309 3.151)"><g transform="translate(0.548 2.174)"><path class="i" d="M626.159,52.977l.093,13.125,8.294-2.5-5.509-11.343a2.883,2.883,0,1,0-2.877.717Z" transform="translate(-600.958 -47.321)"/><path class="i" d="M608.8,86.754l-12.454,1.975a2.883,2.883,0,1,0-.151,2.961l12.585,3.726Z" transform="translate(-590.9 -59.261)"/><path class="i" d="M669.678,62.4a2.892,2.892,0,0,0-5.258,2.137L652.886,70.8,659,76.942l7.41-10.2a2.881,2.881,0,0,0,3.27-4.337Z" transform="translate(-609.669 -51.491)"/><path class="i" d="M677.894,105.3a2.891,2.891,0,0,0-3.219.178l-10.69-7.616-2.835,8.185,12.419,2.182a2.888,2.888,0,1,0,4.325-2.93Z" transform="translate(-612.171 -62.625)"/><path class="i" d="M617.564,110.927l-5.93,11.129a2.883,2.883,0,1,0,2.273,1.9l10.558-7.8Z" transform="translate(-596.162 -66.581)"/><path class="i" d="M645.74,130.6l1.952-12.979-8.583,1.177,3.676,12.062a2.883,2.883,0,1,0,2.954-.26Z" transform="translate(-605.497 -68.607)"/></g><path class="j" d="M662.58,71.414a2.891,2.891,0,0,0-5.666-.311l-6.345.36A27,27,0,0,0,637.5,56.3c-.771-.4-1.553-.759-2.343-1.081l.63-5.306a2.883,2.883,0,1,0-2.808-.95L629.989,53.7a27.168,27.168,0,0,0-22.163,5.639l-4.892-3.674a2.883,2.883,0,1,0-2.232,1.952l3.057,5.85a27.078,27.078,0,0,0-4.682,24.859l-4.806,4.837a2.883,2.883,0,1,0,1.626,2.479l5.49-1.963a26.965,26.965,0,0,0,11.049,10.683,27.337,27.337,0,0,0,3.756,1.614l-.3,5.747a2.883,2.883,0,1,0,2.865.763l2.854-5.258a27.186,27.186,0,0,0,17.671-3.886l3.534,3.512a2.883,2.883,0,1,0,2.479-1.627l-1.822-5.1a27.105,27.105,0,0,0,8.41-22.954l5.889-3.232a2.882,2.882,0,0,0,4.808-2.527Z" transform="translate(-590.114 -44.204)"/><g transform="translate(14.746 18.616)"><path class="k" d="M620.333,98.155a4.806,4.806,0,1,1-2.039-6.484A4.806,4.806,0,0,1,620.333,98.155Z" transform="translate(-611.265 -77.027)"/><path class="k" d="M642.445,94.86a3.85,3.85,0,1,1-1.633-5.193A3.85,3.85,0,0,1,642.445,94.86Z" transform="translate(-618.507 -76.453)"/><path class="k" d="M661.388,85.816a3.644,3.644,0,1,1-1.546-4.917A3.645,3.645,0,0,1,661.388,85.816Z" transform="translate(-624.36 -73.806)"/><path class="k" d="M633.752,75.4a3.076,3.076,0,1,1-1.305-4.15A3.076,3.076,0,0,1,633.752,75.4Z" transform="translate(-616.316 -70.905)"/><path class="k" d="M662.372,111.038a1.888,1.888,0,1,1-.8-2.547A1.888,1.888,0,0,1,662.372,111.038Z" transform="translate(-625.661 -82.221)"/><path class="k" d="M635.8,116.3a1.887,1.887,0,1,1-.8-2.546A1.887,1.887,0,0,1,635.8,116.3Z" transform="translate(-617.616 -83.814)"/></g></g><g transform="translate(2.075 0)"><g transform="translate(4.139 5.58)"><path class="i" d="M124.847,51.96l-7.595,9.758,7.591,2.995,2.55-11.6a2.716,2.716,0,1,0-2.546-1.15Z" transform="translate(-83.84 -47.688)"/><path class="i" d="M95.269,66.932,84.908,61.121a2.716,2.716,0,1,0-1.84,2.1l7.13,10.1Z" transform="translate(-72.414 -50.781)"/><path class="i" d="M153.135,86.974A2.724,2.724,0,0,0,148,85.485l-12.185-2.1.935,8.107,11.435-3.218a2.715,2.715,0,0,0,4.95-1.3Z" transform="translate(-89.461 -58.496)"/><path class="i" d="M134.55,121.091a2.723,2.723,0,0,0-2.484-1.747l-3.457-11.873-6.875,4.4,7.908,8.864a2.72,2.72,0,1,0,4.908.358Z" transform="translate(-85.197 -65.79)"/><path class="i" d="M84.938,91.662,74.056,96.428a2.716,2.716,0,1,0,.568,2.735l12.359.4Z" transform="translate(-69.33 -61.003)"/><path class="i" d="M94.669,120.681l9.021-8.457-7.032-4.14-4.325,11.065a2.716,2.716,0,1,0,2.336,1.532Z" transform="translate(-75.434 -65.975)"/></g><path class="j" d="M131.763,91.141a2.724,2.724,0,0,0-4.008-3.538l-4.9-3.438a25.431,25.431,0,0,0-.809-18.841c-.335-.747-.7-1.468-1.1-2.167l3.564-3.555a2.716,2.716,0,1,0-1.521-2.343l-4.973,1.754a25.6,25.6,0,0,0-19.679-8.771l-1.472-5.573a2.716,2.716,0,1,0-2.79.14l-1.155,6.11A25.5,25.5,0,0,0,74.941,66.565l-6.377.77a2.716,2.716,0,1,0-.245,2.783l5.2,1.753a25.4,25.4,0,0,0,1.933,14.349,25.677,25.677,0,0,0,1.834,3.386l-3.577,4.074a2.717,2.717,0,1,0,1.673,2.237l5.18-2.221A25.6,25.6,0,0,0,95.9,101.141l.562,4.659a2.716,2.716,0,1,0,2.783.245l1.628-4.831a25.536,25.536,0,0,0,19.619-12.062l6.241,1.049a2.714,2.714,0,0,0,5.03.938Z" transform="translate(-63.393 -39.684)"/><g transform="translate(18.701 19.367)"><path class="k" d="M96.6,82.278a4.528,4.528,0,1,1,2.278-5.984A4.527,4.527,0,0,1,96.6,82.278Z" transform="translate(-90.216 -69.326)"/><circle class="k" cx="3.627" cy="3.627" r="3.627" transform="matrix(0.081, -0.997, 0.997, 0.081, 13.573, 19.636)"/><path class="k" d="M134.552,96.931a3.433,3.433,0,1,1,1.727-4.537A3.434,3.434,0,0,1,134.552,96.931Z" transform="translate(-102.175 -74.397)"/><path class="k" d="M120.393,73.005a2.9,2.9,0,1,1,1.458-3.831A2.9,2.9,0,0,1,120.393,73.005Z" transform="translate(-98.116 -67.462)"/><path class="k" d="M121.155,115.863a1.778,1.778,0,1,1,.895-2.35A1.778,1.778,0,0,1,121.155,115.863Z" transform="translate(-98.825 -81.088)"/><path class="k" d="M98.439,104.241a1.778,1.778,0,1,1,.895-2.35A1.778,1.778,0,0,1,98.439,104.241Z" transform="translate(-91.947 -77.569)"/></g></g><g transform="translate(73.104 235.785)"><g transform="translate(8.02)"><path class="i" d="M180.86,403.932l8.907,9.252,4.2-7.361-11.551-4.338a2.821,2.821,0,1,0-1.559,2.447Z" transform="translate(-176.772 -384.137)"/><path class="i" d="M191.417,435.547l-7.508,9.792a2.821,2.821,0,1,0,1.888,2.2l11.441-5.834Z" transform="translate(-177.803 -395.334)"/><path class="i" d="M220.422,377.946A2.829,2.829,0,0,0,218.131,383l-3.964,12.215,8.472.239-1.615-12.232a2.819,2.819,0,0,0-.6-5.281Z" transform="translate(-188.095 -377.87)"/><path class="i" d="M253.185,404.759a2.829,2.829,0,0,0-2.164,2.3l-12.716,1.8,3.5,7.718,10.283-6.818a2.825,2.825,0,1,0,1.095-4.992Z" transform="translate(-195.404 -385.99)"/><path class="i" d="M216.151,448.908,219.44,460.8a2.821,2.821,0,1,0,2.9-.179l2.24-12.646Z" transform="translate(-188.696 -399.097)"/><path class="i" d="M246.88,444.5l-7.358-10.526-5.3,6.617,10.734,6.083a2.821,2.821,0,1,0,1.921-2.174Z" transform="translate(-194.168 -394.858)"/></g><path class="j" d="M223.585,380.142a2.829,2.829,0,0,0-4.231,3.6l-4.26,4.53a26.421,26.421,0,0,0-19.489-1.956c-.818.234-1.613.508-2.39.812l-3.128-4.19a2.821,2.821,0,1,0-2.633,1.218l1.067,5.371a26.582,26.582,0,0,0-11.929,18.931l-5.947.689a2.82,2.82,0,1,0-.268,2.889l6.109,2.092a26.5,26.5,0,0,0,13.424,20.795l-.153,6.669a2.822,2.822,0,1,0,2.824.664l2.573-5.091a26.381,26.381,0,0,0,15.037.137,26.755,26.755,0,0,0,3.752-1.385l3.658,4.281a2.821,2.821,0,1,0,2.548-1.388l-1.516-5.654a26.6,26.6,0,0,0,9.922-14.662l4.874.112a2.82,2.82,0,1,0,.664-2.824l-4.726-2.389a26.521,26.521,0,0,0-9.495-21.954l2-6.26a2.819,2.819,0,0,0,1.71-5.032Z" transform="translate(-165.269 -378.063)"/><g transform="translate(21.066 15.855)"><path class="k" d="M207.5,439.133a4.7,4.7,0,1,1-5.814-3.228A4.7,4.7,0,0,1,207.5,439.133Z" transform="translate(-196.328 -411.242)"/><path class="k" d="M220.8,422.29a3.767,3.767,0,1,1-4.658-2.585A3.767,3.767,0,0,1,220.8,422.29Z" transform="translate(-200.911 -406.348)"/><path class="k" d="M228.113,403.2a3.566,3.566,0,1,1-4.409-2.447A3.566,3.566,0,0,1,228.113,403.2Z" transform="translate(-203.245 -400.61)"/><path class="k" d="M201.388,414.656a3.01,3.01,0,1,1-3.722-2.066A3.01,3.01,0,0,1,201.388,414.656Z" transform="translate(-195.483 -404.202)"/><path class="k" d="M245.493,421.15a1.847,1.847,0,1,1-2.283-1.268A1.846,1.846,0,0,1,245.493,421.15Z" transform="translate(-209.529 -406.424)"/><path class="k" d="M230.183,442.782a1.847,1.847,0,1,1-2.284-1.268A1.847,1.847,0,0,1,230.183,442.782Z" transform="translate(-204.893 -412.974)"/></g></g><g class="l" transform="translate(168.049 148.512)"><g transform="translate(0 3.793)"><path class="i" d="M304.095,280l6.292,1.672-.112-4.3-6.148,1.153a1.43,1.43,0,1,0-.033,1.47Z" transform="translate(-301.449 -263.961)"/><path class="i" d="M318.076,290.249l-.683,6.218a1.43,1.43,0,1,0,1.4.459l3.428-5.536Z" transform="translate(-305.936 -267.859)"/><path class="i" d="M314.946,258.205a1.434,1.434,0,0,0,.335,2.8l1.49,6.338,3.736-2.122-3.913-4.88a1.429,1.429,0,0,0-1.648-2.131Z" transform="translate(-305.235 -258.135)"/><path class="i" d="M335.916,260.1a1.434,1.434,0,0,0-.335,1.564l-5.042,4.119,3.546,2.427,2.668-5.658a1.432,1.432,0,1,0-.837-2.452Z" transform="translate(-310.257 -258.607)"/><path class="i" d="M331.085,289.866l4.55,4.292a1.43,1.43,0,1,0,1.208-.838l-2.35-6.072Z" transform="translate(-310.422 -266.95)"/><path class="i" d="M343.9,280.239l-5.956-2.631-.558,4.261,6.252-.183a1.43,1.43,0,1,0,.262-1.447Z" transform="translate(-312.33 -264.031)"/></g><path class="j" d="M319.681,252.706a1.434,1.434,0,0,0-.89,2.671l-.657,3.084a13.392,13.392,0,0,0-8.965,4.271c-.293.317-.566.644-.823.98l-2.457-1a1.43,1.43,0,1,0-.822,1.22l1.874,2.048a13.475,13.475,0,0,0-.2,11.343l-2.4,1.861a1.43,1.43,0,1,0,.642,1.323l3.2-.7a13.437,13.437,0,0,0,11.284,5.491l1.686,2.932a1.43,1.43,0,1,0,1.4-.454l-.222-2.884a13.375,13.375,0,0,0,6.557-3.89,13.587,13.587,0,0,0,1.263-1.586l2.711.9a1.43,1.43,0,1,0,.74-1.271l-2.142-2.053a13.488,13.488,0,0,0,.451-8.964l2.142-1.231a1.43,1.43,0,1,0-.454-1.4l-2.676.206a13.448,13.448,0,0,0-9.884-7.026l-.777-3.241a1.43,1.43,0,0,0-.581-2.631Z" transform="translate(-301.652 -252.694)"/><g transform="translate(8.238 9.878)"><path class="k" d="M325.045,288.176a2.384,2.384,0,1,1-3.369.128A2.384,2.384,0,0,1,325.045,288.176Z" transform="translate(-315.619 -273.123)"/><path class="k" d="M326.313,277.515a1.91,1.91,0,1,1-2.7.1A1.91,1.91,0,0,1,326.313,277.515Z" transform="translate(-316.244 -269.933)"/><path class="k" d="M324.451,267.344a1.808,1.808,0,1,1-2.555.1A1.807,1.807,0,0,1,324.451,267.344Z" transform="translate(-315.732 -266.862)"/><path class="k" d="M315.828,279.414a1.526,1.526,0,1,1-2.156.082A1.525,1.525,0,0,1,315.828,279.414Z" transform="translate(-313.265 -270.539)"/><path class="k" d="M336.563,270.814a.936.936,0,1,1-1.323.05A.937.937,0,0,1,336.563,270.814Z" transform="translate(-319.843 -267.983)"/><path class="k" d="M335.606,284.216a.936.936,0,1,1-1.323.05A.936.936,0,0,1,335.606,284.216Z" transform="translate(-319.553 -272.041)"/></g></g><g class="l" transform="translate(337.08 111.862)"><g transform="translate(0.131 2.769)"><path class="i" d="M546.3,222.266l5.28,1.82.171-3.682-5.332.607a1.226,1.226,0,1,0-.119,1.256Z" transform="translate(-544.076 -209.006)"/><path class="i" d="M557.468,231.756l-.97,5.276a1.227,1.227,0,1,0,1.167.48l3.276-4.523Z" transform="translate(-547.519 -212.474)"/><path class="i" d="M556.94,204.135a1.23,1.23,0,0,0,.114,2.412l.883,5.515,3.328-1.584-3.046-4.417a1.226,1.226,0,0,0-1.278-1.926Z" transform="translate(-547.687 -204.099)"/><path class="i" d="M574.639,207.185a1.231,1.231,0,0,0-.383,1.317l-4.569,3.212,2.884,2.3,2.633-4.676a1.229,1.229,0,1,0-.564-2.149Z" transform="translate(-551.831 -204.947)"/><path class="i" d="M568.758,232.276l3.627,3.954a1.227,1.227,0,1,0,1.086-.642l-1.635-5.34Z" transform="translate(-551.55 -212.017)"/><path class="i" d="M580.273,224.756l-4.932-2.619-.742,3.61,5.36.231a1.227,1.227,0,1,0,.314-1.222Z" transform="translate(-553.318 -209.561)"/></g><path class="j" d="M560.626,200.152a1.231,1.231,0,0,0-.927,2.23l-.753,2.6a11.489,11.489,0,0,0-7.934,3.1q-.406.38-.766.787l-2.04-1a1.227,1.227,0,1,0-.779.993l1.476,1.869a11.562,11.562,0,0,0-.873,9.692l-2.166,1.443a1.227,1.227,0,1,0,.467,1.172l2.78-.4a11.523,11.523,0,0,0,9.314,5.4l1.26,2.612a1.226,1.226,0,1,0,1.225-.3l-.011-2.481a11.469,11.469,0,0,0,5.85-2.922,11.666,11.666,0,0,0,1.179-1.279l2.264.934a1.227,1.227,0,1,0,.712-1.042L569.2,221.66a11.57,11.57,0,0,0,.941-7.641l1.909-.921a1.227,1.227,0,1,0-.3-1.225l-2.3.01a11.532,11.532,0,0,0-8.021-6.623l-.464-2.82a1.226,1.226,0,0,0-.334-2.288Z" transform="translate(-543.888 -200.128)"/><g transform="translate(7.129 8.319)"><path class="k" d="M563.7,230.427a2.045,2.045,0,1,1-2.891-.1A2.044,2.044,0,0,1,563.7,230.427Z" transform="translate(-555.944 -217.424)"/><path class="k" d="M565.456,221.371a1.638,1.638,0,1,1-2.315-.079A1.639,1.639,0,0,1,565.456,221.371Z" transform="translate(-556.689 -214.722)"/><path class="k" d="M564.5,212.552a1.55,1.55,0,1,1-2.191-.075A1.55,1.55,0,0,1,564.5,212.552Z" transform="translate(-556.445 -212.06)"/><path class="k" d="M556.38,222.337a1.309,1.309,0,1,1-1.85-.063A1.31,1.31,0,0,1,556.38,222.337Z" transform="translate(-554.114 -215.046)"/><path class="k" d="M574.667,216.248a.8.8,0,1,1-1.135-.039A.8.8,0,0,1,574.667,216.248Z" transform="translate(-559.916 -213.251)"/><path class="k" d="M573.02,227.654a.8.8,0,1,1-1.136-.038A.8.8,0,0,1,573.02,227.654Z" transform="translate(-559.417 -216.704)"/></g></g><g class="m" transform="translate(0 100.698)"><g transform="translate(0.095 1.991)"><path class="i" d="M62.148,200.032l3.8,1.309.123-2.647-3.833.436a.883.883,0,1,0-.086.9Z" transform="translate(-60.552 -190.498)"/><path class="i" d="M70.181,206.855l-.7,3.795a.882.882,0,1,0,.839.344l2.356-3.252Z" transform="translate(-63.028 -192.991)"/><path class="i" d="M69.8,187a.885.885,0,0,0,.082,1.735l.634,3.965,2.393-1.139L70.72,188.38a.877.877,0,0,0,.153-.736A.886.886,0,0,0,69.8,187Z" transform="translate(-63.149 -186.97)"/><path class="i" d="M82.528,189.188a.885.885,0,0,0-.276.948l-3.285,2.309L81.04,194.1l1.893-3.362a.883.883,0,1,0-.405-1.546Z" transform="translate(-66.128 -187.579)"/><path class="i" d="M78.3,207.23l2.608,2.843a.882.882,0,1,0,.781-.462l-1.175-3.84Z" transform="translate(-65.926 -192.663)"/><path class="i" d="M86.579,201.823l-3.547-1.884-.533,2.6,3.854.166a.882.882,0,1,0,.226-.878Z" transform="translate(-67.198 -190.897)"/></g><path class="j" d="M72.452,184.132a.885.885,0,0,0-.667,1.6l-.541,1.867a8.262,8.262,0,0,0-5.705,2.228c-.195.182-.376.371-.55.566l-1.467-.722a.882.882,0,1,0-.56.714l1.061,1.344A8.313,8.313,0,0,0,63.4,198.7l-1.558,1.038a.882.882,0,1,0,.336.842l2-.287a8.287,8.287,0,0,0,6.7,3.88l.906,1.878a.882.882,0,1,0,.881-.217l-.008-1.783a8.3,8.3,0,0,0,5.054-3.021l1.628.671a.882.882,0,1,0,.512-.749L78.616,199.6a8.314,8.314,0,0,0,.676-5.494l1.373-.662a.882.882,0,1,0-.217-.881l-1.655.008a8.295,8.295,0,0,0-5.768-4.762l-.333-2.028a.881.881,0,0,0-.24-1.644Z" transform="translate(-60.417 -184.115)"/><g transform="translate(5.126 5.981)"><circle class="k" cx="1.47" cy="1.47" r="1.47" transform="translate(2.981 11.772) rotate(-88.034)"/><path class="k" d="M75.925,199.389a1.178,1.178,0,1,1-1.664-.056A1.178,1.178,0,0,1,75.925,199.389Z" transform="translate(-69.622 -194.608)"/><path class="k" d="M75.235,193.047a1.115,1.115,0,1,1-1.576-.054A1.116,1.116,0,0,1,75.235,193.047Z" transform="translate(-69.446 -192.694)"/><path class="k" d="M69.4,200.083a.941.941,0,1,1-1.33-.045A.942.942,0,0,1,69.4,200.083Z" transform="translate(-67.769 -194.841)"/><path class="k" d="M82.548,195.705a.577.577,0,1,1-.816-.028A.578.578,0,0,1,82.548,195.705Z" transform="translate(-71.942 -193.55)"/><path class="k" d="M81.364,203.906a.578.578,0,1,1-.816-.028A.577.577,0,0,1,81.364,203.906Z" transform="translate(-71.583 -196.033)"/></g></g><g class="m" transform="translate(421.268 251.91)"><g transform="translate(0.095 1.991)"><path class="i" d="M666.37,416.916l3.8,1.308.123-2.647-3.833.436a.883.883,0,1,0-.086.9Z" transform="translate(-664.774 -407.381)"/><path class="i" d="M674.4,423.738l-.7,3.795a.882.882,0,1,0,.839.344l2.356-3.252Z" transform="translate(-667.25 -409.874)"/><path class="i" d="M674.024,403.879a.885.885,0,0,0,.082,1.735l.634,3.965,2.393-1.138-2.191-3.177a.881.881,0,0,0-.918-1.385Z" transform="translate(-667.371 -403.853)"/><path class="i" d="M686.75,406.071a.885.885,0,0,0-.276.947l-3.285,2.309,2.074,1.651,1.893-3.361a.884.884,0,1,0-.405-1.546Z" transform="translate(-670.35 -404.462)"/><path class="i" d="M682.521,424.113l2.608,2.843a.882.882,0,1,0,.781-.462l-1.175-3.84Z" transform="translate(-670.148 -409.546)"/><path class="i" d="M690.8,418.706l-3.547-1.884-.533,2.6,3.854.166a.882.882,0,1,0,.226-.879Z" transform="translate(-671.42 -407.78)"/></g><path class="j" d="M676.674,401.015a.885.885,0,0,0-.667,1.6l-.541,1.867a8.263,8.263,0,0,0-5.705,2.228c-.194.182-.376.371-.55.566l-1.467-.722a.882.882,0,1,0-.56.714l1.062,1.344a8.31,8.31,0,0,0-.628,6.969l-1.558,1.038a.882.882,0,1,0,.336.842l2-.287a8.287,8.287,0,0,0,6.7,3.88l.906,1.878a.882.882,0,1,0,.881-.217l-.008-1.783a8.3,8.3,0,0,0,5.054-3.021l1.628.671a.882.882,0,1,0,.512-.75l-1.227-1.358a8.318,8.318,0,0,0,.677-5.494l1.372-.662a.882.882,0,1,0-.217-.881l-1.655.008a8.294,8.294,0,0,0-5.768-4.762l-.333-2.028a.881.881,0,0,0-.24-1.644Z" transform="translate(-664.639 -400.998)"/><g transform="translate(5.126 5.981)"><path class="k" d="M678.884,422.783a1.47,1.47,0,1,1-2.078-.072A1.471,1.471,0,0,1,678.884,422.783Z" transform="translate(-673.308 -413.434)"/><path class="k" d="M680.147,416.272a1.178,1.178,0,1,1-1.665-.056A1.178,1.178,0,0,1,680.147,416.272Z" transform="translate(-673.844 -411.491)"/><path class="k" d="M679.457,409.93a1.115,1.115,0,1,1-1.576-.054A1.115,1.115,0,0,1,679.457,409.93Z" transform="translate(-673.668 -409.577)"/><path class="k" d="M673.621,416.966a.941.941,0,1,1-1.33-.045A.941.941,0,0,1,673.621,416.966Z" transform="translate(-671.991 -411.724)"/><path class="k" d="M686.77,412.588a.577.577,0,1,1-.816-.028A.577.577,0,0,1,686.77,412.588Z" transform="translate(-676.164 -410.433)"/><path class="k" d="M685.586,420.789a.578.578,0,1,1-.816-.028A.578.578,0,0,1,685.586,420.789Z" transform="translate(-675.805 -412.916)"/></g></g></g></g><g transform="translate(18.423 52.869)"><g transform="translate(124.625)"><g transform="translate(0 60.083)"><path class="n" d="M258.569,162.006l13.453,1.949a4.8,4.8,0,0,1,3.683,2.768h0a4.8,4.8,0,0,1-4.124,6.773l-15.567.8Z" transform="translate(-149.471 -162.006)"/><path class="d" d="M185.229,164.369a40.5,40.5,0,0,0-25.949,13.861c-10.97,12.91-29.442,46.757-29.442,46.757L103.2,248.538s30.621,8.545,35.947,31.975l26.911-35.769,20.656-14.3,9.442-26.856Z" transform="translate(-103.2 -162.721)"/><path class="n" d="M200.531,230.672s-8,3.553-14.4,4.353l14.931,3.264Z" transform="translate(-128.31 -182.798)"/><path class="n" d="M104.98,271.9s28.692-.072,47.767,23.766L143.538,307.6Z" transform="translate(-103.739 -195.28)"/></g><g transform="translate(64.672)"><g transform="translate(7.548)"><g transform="translate(0 43.282)"><path class="c" d="M270.624,137.909s-22.5,10.77-27.581,39.794a238.143,238.143,0,0,0-3.782,39.873,10.64,10.64,0,0,1-8.273,10.4c-7.567,1.678-17.94,2.092-21.19-6.893,0,0-8.745-22.122,3.566-45,0,0,6.143-12.374-.358-31.7Z" transform="translate(-206.786 -137.909)"/><g class="o"><path class="p" d="M284.844,137.044s-22.5,10.77-27.581,39.793a238.238,238.238,0,0,0-3.782,39.873,10.639,10.639,0,0,1-8.272,10.4c-7.568,1.678-17.941,2.092-21.19-6.893,0,0-8.745-22.122,3.566-45,0,0,6.142-12.373-.358-31.7Z" transform="translate(-211.091 -137.647)"/><path class="q" d="M224.452,151.143s29.562-11.242,45.469-9.484l7.675-20.978-48.741-3.149-26.339,31.762Z" transform="translate(-205.493 -131.739)"/></g></g><path class="r" d="M317.5,85.36l5.086-.31a9.608,9.608,0,0,1,9.986,7.48,32.55,32.55,0,0,1,.65,8.664,43.223,43.223,0,0,1-1.861,10.731,9.6,9.6,0,0,1-8.6,6.7l-5.49.335Z" transform="translate(-240.24 -78.616)"/><path class="p" d="M226.395,76.638s41.421-2.925,63.82,2.353a9.387,9.387,0,0,1,5.748,3.989c1.75,2.68,3.567,7.209,3.363,14.337a37.794,37.794,0,0,1-4.907,17.613,9.281,9.281,0,0,1-6.556,4.585c-11.466,1.872-50.519,8.209-66.053,16.061Z" transform="translate(-211.335 -75.829)"/><path class="s" d="M252.822,84.229s34.04-.489,45.164.862" transform="translate(-220.725 -78.346)"/></g><g transform="translate(0 0.776)"><path class="r" d="M207.773,79.642s8.251-3.049,14.372-2.668,13.89,1.287,14.752,7.893-1.083,28.028-7.066,38.271-11.137,15.615-20.561,11.528Z" transform="translate(-199.536 -76.942)"/><path class="t" d="M228.249,97.378s3.645-14.834-4.818-17.043-22.7-2.877-25.567,6.06-4.014,44.748,7.827,48.872S226.145,117.987,228.249,97.378Z" transform="translate(-195.959 -77.542)"/><g transform="translate(4.825 7.978)"><path class="d" d="M205.561,89.526l-2.672,22.152a1.3,1.3,0,0,0,1.217,1.449l17.355.943a1.3,1.3,0,0,0,1.357-1.136l2.727-22.327a1.3,1.3,0,0,0-1.229-1.452L206.9,88.386A1.3,1.3,0,0,0,205.561,89.526Z" transform="translate(-202.88 -88.385)"/><g class="u"><path class="k" d="M208.156,91.936l-2.672,22.152a1.3,1.3,0,0,0,1.216,1.449l17.355.943a1.3,1.3,0,0,0,1.357-1.137l2.727-22.327a1.3,1.3,0,0,0-1.229-1.452L209.5,90.8A1.3,1.3,0,0,0,208.156,91.936Z" transform="translate(-203.665 -89.115)"/></g></g><path class="c" d="M216.7,133.88a2.888,2.888,0,1,1-2.6-3.4A3.035,3.035,0,0,1,216.7,133.88Z" transform="translate(-200.5 -93.151)"/><path class="c" d="M204.184,142.79l3.308-2.488a1.163,1.163,0,0,0,.4-1.325l-.994-2.749a1.164,1.164,0,0,0-1.278-.753l-3.627.581a1.162,1.162,0,0,0-.975,1.261,14.191,14.191,0,0,0,1.427,5.063A1.172,1.172,0,0,0,204.184,142.79Z" transform="translate(-197.488 -94.661)"/><path class="c" d="M221.785,144.405l-2.584-3.234a1.164,1.164,0,0,1-.052-1.383l1.648-2.414a1.163,1.163,0,0,1,1.426-.41l3.367,1.466a1.162,1.162,0,0,1,.63,1.464,14.188,14.188,0,0,1-2.644,4.547A1.172,1.172,0,0,1,221.785,144.405Z" transform="translate(-202.92 -95.087)"/><path class="c" d="M210.615,143.459l-3.823,3.215a1.8,1.8,0,0,0,.327,2.975,10.618,10.618,0,0,0,8.2.607,1.8,1.8,0,0,0,.88-2.871l-3.045-3.694A1.8,1.8,0,0,0,210.615,143.459Z" transform="translate(-199.045 -96.955)"/></g></g><g transform="translate(65.977 71.342)"><path class="d" d="M203.291,181.322l21.938-3.006a17.488,17.488,0,0,1,8.816,1.068L245.2,183.8a3.642,3.642,0,0,1,2.06,4.689h0a8.15,8.15,0,0,1-7.606,5.235l-15.108.008a40.148,40.148,0,0,1-26.712,23.225Z" transform="translate(-197.83 -178.155)"/><path class="d" d="M254.37,193.16s-3.084,7.09.609,9.99,10.914-.4,12.024-9.978S253.2,186.72,253.2,186.72Z" transform="translate(-214.584 -180.601)"/><path class="d" d="M257.235,209.917s-8.193,2.322-8.266,7.535,3.694,7.2,9.048,5.309,9.608-4.752,2.878-14.76Z" transform="translate(-213.314 -187.192)"/><path class="d" d="M257.852,225.606s-6.467,1.833-6.525,5.948,2.916,5.682,7.142,4.191,7.584-3.751,2.272-11.65Z" transform="translate(-214.028 -192.065)"/><g transform="translate(5.461 1.856)"><path class="v" d="M263.289,187.468a4.156,4.156,0,0,1,.846,3.844c-1.574,6.908-10.561,5.236-10.561,5.236" transform="translate(-220.17 -182.831)"/><path class="v" d="M258.208,210.948a6.334,6.334,0,0,0,6.034-1.739" transform="translate(-221.573 -189.414)"/><path class="v" d="M253.974,228.973a10.623,10.623,0,0,0,8.841-1.9" transform="translate(-220.291 -194.824)"/><line class="v" x1="9.571" y2="1.311"/></g></g></g><g transform="translate(0 135.534)"><path class="c" d="M41.8,270.339s52.818-4.807,55.081,48.234L1.666,426.868a44.1,44.1,0,0,1-61.994,4.21h0a44.1,44.1,0,0,1-1-65.765Z" transform="translate(75.549 -270.226)"/><g transform="translate(95.004 20.694)"><path class="w" d="M60.715,299.907s40.684,9.019,56.221,51.773" transform="translate(-60.715 -299.907)"/><path class="w" d="M150.19,338.37a3.563,3.563,0,1,1-3.649-3.475A3.563,3.563,0,0,1,150.19,338.37Z" transform="translate(-85.65 -310.501)"/></g></g></g><g transform="translate(280.227 23.113)"><g transform="translate(36.951)"><path d="M488.3,60.662s20.648-4,15.921,20.1S477.457,178.5,477.457,178.5l-9.016-49.54Z" transform="translate(-387.922 -41.406)"/><path class="x" d="M389.316,173.336A38.2,38.2,0,0,0,386.5,160.2c-2.394-5.769-4.75-10.984-11.26-8.712-13.073,4.562-2.654,23.962,8.032,26.193,3.143.656,6.163-1.521,6.048-4.344Z" transform="translate(-357.852 -68.817)"/><path class="y" d="M462.436,176.32l18.745,84.519-55.136,2.241L423.51,193.2Z" transform="translate(-374.317 -76.501)"/><path d="M424.945,248.193l26.96-27.4-28.395-5.685Z" transform="translate(-374.317 -88.246)"/><path class="y" d="M372.457,78.753a36.558,36.558,0,0,0-1.834,18.8c1.5,9.677,4.509,23.565,4.6,32.508.147,14.187-1.836,42.966,24.736,48.029,33.083,6.3,48.984-12.142,46.624-29.545l6.6-28.3.664-36.4C453.552,72,443.14,57.6,419.272,58.568l-27.321,1.111C383.346,60.028,376.154,69.2,372.457,78.753Z" transform="translate(-358.16 -40.833)"/><path d="M443.55,118.472s-10.4-25.631-4.574-57.076c0,0-43.757,8.451-73.6,10.328a11.647,11.647,0,0,1-12.338-13.077c1.47-11.941,9.277-20.427,40.229-24.3,31.447-3.937,48.169,2.679,56.233,8.1a15.106,15.106,0,0,1,6.61,12.234l1.127,52.6Z" transform="translate(-352.953 -33.151)"/><g transform="translate(86.687 76.84)"><path class="y" d="M477.329,170.511a44.342,44.342,0,0,1,2.023-15.453c2.225-6.895,6.069-13.612,13.692-11.193,18.952,6.014,3.83,27.513-8.313,31.1-3.572,1.054-7.268-1.179-7.4-4.453Z" transform="translate(-477.288 -143.362)"/><path class="z" d="M496.4,157.591c-7.743.786-11.9,10.853-11.9,10.853" transform="translate(-479.471 -147.67)"/></g><path d="M466.09,56.928s-29.981,23.2,3.266,40.247L483.015,75.52Z" transform="translate(-383.453 -40.35)"/><g transform="translate(10.263 43.706)"><g transform="translate(20.044 38.42)"><path class="aa" d="M402.957,170.182l-4.73.795a2.294,2.294,0,0,1-1.689-2.956s3.747-5.328,6.642-17.078" transform="translate(-396.423 -150.943)"/></g><g transform="translate(36.434 27.855)"><path class="e" d="M419.931,144.675s6.973-13.22,25.508-7.407C445.439,137.268,437.3,144.8,419.931,144.675Z" transform="translate(-419.931 -135.791)"/><g class="ab"><circle cx="6.571" cy="6.571" r="6.571" transform="translate(0.815 -0.087) rotate(-22.364)"/></g></g><g transform="translate(6.895 29.236)"><path class="e" d="M393.44,145.518s-4.894-12.081-15.877-6.071C377.563,139.448,382.886,146.2,393.44,145.518Z" transform="translate(-377.563 -137.771)"/><g class="ac"><path d="M384.13,139.8c.179,3.378,2.114,6.021,4.321,5.9s3.85-2.951,3.67-6.329-2.113-6.022-4.32-5.9S383.951,136.419,384.13,139.8Z" transform="translate(-379.547 -136.467)"/></g></g><path d="M447.589,122.133l-19.95-3.3a5.178,5.178,0,0,1-4.678-6.34h0a5.706,5.706,0,0,1,6.076-4.636l19.717,5.131a4.3,4.3,0,0,1,3.737,4.923h0A4.779,4.779,0,0,1,447.589,122.133Z" transform="translate(-384.38 -99.468)"/><path d="M372.879,122.09l11.415-4.178a4.833,4.833,0,0,0,3.554-6.446h0a5.34,5.34,0,0,0-6.2-3.557l-10.973,5.847a4.013,4.013,0,0,0-2.856,5.018h0A4.473,4.473,0,0,0,372.879,122.09Z" transform="translate(-367.674 -99.451)"/><line class="ad" x1="5.682" y2="2.826" transform="translate(17.091 38.42)"/><line class="ad" x2="9.438" y2="3.562" transform="translate(35.6 38.42)"/><g transform="translate(5.436 44.831)"><g transform="translate(0 3.697)"><path class="c" d="M375.47,172.845s10.052-4.42,16.012-6.762a9.185,9.185,0,0,1,5.582-.372c3.213.8,9,2.392,16.548,5.111,14.254,5.134,21.632,2.2,21.632,2.2l2.115,32.728s-11.615,13.26-35.752,9.253C375.125,210.61,375.47,172.845,375.47,172.845Z" transform="translate(-375.47 -165.441)"/><g class="ae"><path class="af" d="M373,178.031s10.9-4.537,16.338-6.561a8.816,8.816,0,0,1,5.1-.322c2.932.691,8.212,2.067,15.1,4.418,13.01,4.437,19.743,1.905,19.743,1.905l1.931,28.291s-10.6,11.463-32.63,8C374.406,209.961,373,178.031,373,178.031Z" transform="translate(-374.721 -167.098)"/></g></g><line class="ag" x1="17.235" y2="15.027" transform="translate(55.818)"/><line class="ag" x1="11.575" y2="24.612" transform="translate(61.15 19.171)"/><g transform="translate(5.595 17.583)"><path class="ah" d="M383.494,187.944s10.819-6.546,35.294,1.189" transform="translate(-383.494 -185.357)"/><path class="ah" d="M387.024,198.582s9.932,3.333,30.084,1.1" transform="translate(-384.563 -189.362)"/><path class="ah" d="M391.958,210.133s8.583,4.991,25.73.935" transform="translate(-386.057 -192.859)"/></g></g><g transform="translate(24.354)"><path class="r" d="M410.963,100.018a4.179,4.179,0,1,1-4.179-4.18A4.179,4.179,0,0,1,410.963,100.018Z" transform="translate(-402.604 -95.838)"/><circle class="r" cx="2.614" cy="2.614" r="2.614" transform="translate(1.566 1.566)"/></g></g></g><g transform="translate(0 184.337)"><path class="c" d="M511.592,343.019l-142.459,3.556v138.9H511.592Z" transform="translate(-320.902 -311.313)"/><path class="y" d="M415.523,299.786l-25.261,13.284s-12.582,31.763,35.09,32.3S494.141,308.2,494.141,308.2l-23.482-10.653Z" transform="translate(-326.845 -297.544)"/><g transform="translate(0 2.242)"><path class="ai" d="M397.93,300.759s3.573,19.71-5.03,68.54c-9.047,51.352-19.343,103.383-19.343,103.383h-42.9L344.6,341.549a26.286,26.286,0,0,1,15.961-21.526Z" transform="translate(-309.252 -300.759)"/><path class="ai" d="M346.466,332.168s-24.323,7.655-36.721,88.508l-9.79,61.516h36.951Z" transform="translate(-299.955 -310.269)"/><g transform="translate(17.459 2.651)"><path class="aj" d="M411.428,304.561s-18.2,18.136-27.819,38.9l27.819-2.9" transform="translate(-342.744 -304.561)"/><path class="ak" d="M344.488,422.284l-9.973,87.194H325Z" transform="translate(-324.997 -340.207)"/><path class="aj" d="M397.912,357.559S388.52,423.72,369.133,489.88" transform="translate(-338.361 -320.608)"/></g></g><g transform="translate(118.435)"><path class="ai" d="M495.205,297.544l-18.968,40.433a67.713,67.713,0,0,0-6.407,29.5l1.148,104.227h96.571V356.666A40.817,40.817,0,0,0,543.594,319.5Z" transform="translate(-469.826 -297.544)"/><path class="ai" d="M575.631,329.029s46.03,8.24,50.085,152.213H575.631Z" transform="translate(-501.863 -307.077)"/><g transform="translate(3.773 1.454)"><path class="ak" d="M535.676,419.973l6.453,88.806h-16.2Z" transform="translate(-490.587 -336.069)"/><path class="aj" d="M498.123,299.63s11.844,20.76,17.344,53.754l-38.108-9.515" transform="translate(-475.88 -299.63)"/><path class="aj" d="M494.289,368.612l-2.815,9.911a43.877,43.877,0,0,0-1.629,13.892l4.444,102.434" transform="translate(-479.648 -320.517)"/><path d="M480.9,405.559a2.831,2.831,0,1,1-2.831-2.831A2.83,2.83,0,0,1,480.9,405.559Z" transform="translate(-475.237 -330.847)"/><path d="M483.021,459.675a2.831,2.831,0,1,1-2.831-2.831A2.831,2.831,0,0,1,483.021,459.675Z" transform="translate(-475.88 -347.233)"/><path d="M487.081,522.418a2.831,2.831,0,1,1-2.831-2.831A2.831,2.831,0,0,1,487.081,522.418Z" transform="translate(-477.109 -366.231)"/></g></g></g></g></g></g></g></svg>