<svg xmlns="http://www.w3.org/2000/svg" width="383.423" height="323.901" viewBox="0 0 383.423 323.901"><defs><style>.a,.h{fill:navy;}.b,.c,.f{fill:#fff;}.b{opacity:0.8;}.c{opacity:0.6;}.d,.i,.j{fill:none;}.d,.e,.f,.h,.j{stroke:#263238;}.d,.e,.f,.h,.i,.j{stroke-linecap:round;stroke-linejoin:round;}.e,.g{fill:#263238;}.i{stroke:#616161;}.j{stroke-width:2px;}</style></defs><g transform="translate(-18.75 -38.423)"><g transform="translate(25.013 38.423)"><path class="a" d="M275.152,42.816S214.81,25.046,155.208,60.988,65.259,163.942,39.192,217.72,27.567,324.166,72.727,346.289s76.213-15.28,139.8-20.16,80.625,3.056,133.606-34.176,63.061-119.5,21.845-177.977S275.152,42.816,275.152,42.816Z" transform="translate(-26.265 -38.423)"/><path class="b" d="M275.152,42.816S214.81,25.046,155.208,60.988,65.259,163.942,39.192,217.72,27.567,324.166,72.727,346.289s76.213-15.28,139.8-20.16,80.625,3.056,133.606-34.176,63.061-119.5,21.845-177.977S275.152,42.816,275.152,42.816Z" transform="translate(-26.265 -38.423)"/></g><g transform="translate(38.969 135.114)"><path class="a" d="M66.812,376.726s-20.349-43.344-15.929-44.593,13.687,5.652,13.687,5.652-27.193-72.87-20.152-78.522S64.6,282.537,64.6,282.537,50.562,237.9,52.213,220.922,71.7,220.3,71.7,220.3s-14.286-60.933-1.019-64.079,12.824,69.723,12.824,69.723S87.86,173.8,93.175,188.25s-5.858,62.814-5.858,62.814,7.287-16.332,11.337-1.257S90.6,325.815,90.6,325.815s10.286-10.047,11.247,2.514-21.294,51.51-21.294,51.51l-12.594,1.282Z" transform="translate(-43.253 -156.119)"/><path class="c" d="M66.812,376.726s-20.349-43.344-15.929-44.593,13.687,5.652,13.687,5.652-27.193-72.87-20.152-78.522S64.6,282.537,64.6,282.537,50.562,237.9,52.213,220.922,71.7,220.3,71.7,220.3s-14.286-60.933-1.019-64.079,12.824,69.723,12.824,69.723S87.86,173.8,93.175,188.25s-5.858,62.814-5.858,62.814,7.287-16.332,11.337-1.257S90.6,325.815,90.6,325.815s10.286-10.047,11.247,2.514-21.294,51.51-21.294,51.51l-12.594,1.282Z" transform="translate(-43.253 -156.119)"/><path class="d" d="M72.912,387s-16.956-30.15-13.818-35.811,12.561,7.542,12.561,7.542-21.36-53.4-18.213-58.419,13.194,16.965,13.194,16.965-3.754-73.535,2.506-71.03,6.884,37.692,6.884,37.692-3.763-83.542,1.89-81.028,5.028,95.478,5.028,95.478,11.3-35.811,13.145-19.478-14.443,60.309-14.443,60.309,15.741-34.554,17.655-16.3-12.594,52.1-12.594,52.1,5.652-13.818,5.652-6.285-4.4,16.965-4.4,16.965" transform="translate(-45.015 -164.46)"/></g><g transform="translate(34.867 321.882)"><path class="e" d="M49.08,383.46,38.26,419.114h29.3l11.148-35.465Z" transform="translate(-38.26 -383.46)"/><path class="f" d="M119.757,419.057H58.692l-7.262-35.6h61.064Z" transform="translate(-40.61 -383.46)"/><path class="d" d="M115.049,415.414H64.114l-3.8-18.624h50.935Z" transform="translate(-42.195 -385.839)"/><line class="d" x2="3.771" y2="18.468" transform="translate(22.494 11.025)"/><line class="d" x2="3.771" y2="18.468" transform="translate(27.168 11.025)"/><line class="d" x2="3.771" y2="18.468" transform="translate(31.843 11.025)"/><line class="d" x2="3.771" y2="18.468" transform="translate(36.509 11.025)"/><line class="d" x2="3.771" y2="18.468" transform="translate(41.183 11.025)"/><line class="d" x2="3.771" y2="18.468" transform="translate(45.858 11.025)"/><line class="d" x2="3.771" y2="18.468" transform="translate(50.524 11.025)"/><line class="d" x2="3.771" y2="18.468" transform="translate(55.199 11.025)"/><line class="d" x2="3.771" y2="18.468" transform="translate(59.865 11.025)"/><line class="d" x2="3.771" y2="18.468" transform="translate(64.54 11.025)"/><line class="d" x2="50.647" transform="translate(18.986 14.631)"/><line class="d" x2="50.647" transform="translate(19.741 18.345)"/><line class="d" x2="50.639" transform="translate(20.505 22.066)"/><line class="d" x2="50.647" transform="translate(21.261 25.78)"/><path class="g" d="M82.328,392.477H59.711l-.361-1.807H81.959Z" transform="translate(-42.024 -384.747)"/></g><g transform="translate(204.431 152.572)"><path class="f" d="M441.98,316H368.321a14.533,14.533,0,0,0-14.065,12.635l-9.037,79.878h86.261Z" transform="translate(-262.606 -202.111)"/><path class="e" d="M458.914,316h0a12.068,12.068,0,0,0-11.682,10.5l-9.292,82.013h20.982l9.3-82.013a9.185,9.185,0,0,0-9.308-10.5Z" transform="translate(-279.154 -202.111)"/><path class="h" d="M337.483,286.688a80.79,80.79,0,0,1-16.669,9.152c-10.458,4.354-14.664,5.669-14.664,5.669l2.9,100.063h75.926s-9.735-62.74-9.735-83.8.871-25.164.871-25.164l-24.975-6.392Z" transform="translate(-255.634 -196.796)"/><path class="e" d="M322.19,291.92a455.131,455.131,0,0,0-4.206,51.263c-.435,25.706,4.5,59.972,4.5,59.972H266.86A150.34,150.34,0,0,0,281.541,361.5c4.108-20.809,7.394-56.086,8.265-56.521S320.161,293.629,322.19,291.92Z" transform="translate(-248.622 -197.814)"/><path class="i" d="M302.289,408.464s-5.669-38.341-5.381-47.345,1.717-39.5,1.717-39.5" transform="translate(-253.982 -203.114)"/><path class="e" d="M370.012,288.74s-7.114,32.672-7.7,59.545-2.465,54.459-2.465,54.459h44.979s.583-24.547,0-32.968-.583-6.679-.583-6.679l17.433,4.5s-11.189-53.884-13.218-59.832-1.019-7.846-2.325-8.864S370.012,288.74,370.012,288.74Z" transform="translate(-265.217 -197.246)"/><path class="f" d="M269.422,400.29a27.547,27.547,0,0,0,4.108,4.929c2,1.709,6.277.822,8.552,3.155s-.214,9.456-3.089,11.945c-4.929,4.247-2.317-8.642-2.317-8.642a19.5,19.5,0,0,1-5.685,2.67c-2.793.641-9.982-1.544-12.389-1.643s-5.751-.559-7.032-3.237,6.671-5.907,10.2-7.188A51.762,51.762,0,0,1,269.422,400.29Z" transform="translate(-245.868 -217.154)"/><path class="f" d="M253,404.86a4.025,4.025,0,0,0-4.2,1.4c-1.643,2.161-4.929,11.92-3.968,13.8s3.45-.756,4.633-3.853a20.794,20.794,0,0,1,2-4.264s1.3.633,2.21-1.06S255.512,406.651,253,404.86Z" transform="translate(-244.66 -217.946)"/><path class="f" d="M259.134,402.7a3.976,3.976,0,0,0-4.97.822c-2.309,2.465-.723,12.824.5,16s3.541,2.777,3.886.822.739-11.707.863-13.966A11.665,11.665,0,0,0,259.134,402.7Z" transform="translate(-246.145 -217.491)"/><path class="f" d="M265.144,401.333a3.8,3.8,0,0,0-4.97.822c-2.292,2.6-.6,13.563.657,16.932s3.574,2.974,3.9.879.624-12.389.723-14.788A13.259,13.259,0,0,0,265.144,401.333Z" transform="translate(-247.226 -217.236)"/><path class="f" d="M273.355,402.287s-1.914-4.28-5.036-3.574-4.108,4.929-3.533,11.337,1.775,11.5,3.516,11.682,3.639-3.689,3.984-8.692.863-7.994.863-7.994" transform="translate(-248.224 -216.859)"/><rect class="h" width="19.363" height="29.723" transform="translate(45.908 140.646)"/><rect class="f" width="3.565" height="13.752" transform="translate(53.375 131.987)"/><rect class="f" width="8.322" height="10.869" transform="translate(50.656 148.968)"/><line class="d" x2="11.378" transform="translate(49.3 163.066)"/><line class="d" x2="14.607" transform="translate(47.6 165.44)"/><path class="h" d="M336.051,280.841s-6.252,4.206-7.394,7.55-5.956,17.573-7.846,22.945-12.635,10.023-11.181,11.041,15.543,2.317,15.543,2.317,3.2,12.5,3.919,15.691,5.085,12.923,5.085,12.923,12.923-15.543,14.96-19.717a65.792,65.792,0,0,1,4.79-8.133s5.521,1.306,9.037,1.89,13.071,1.446,12.635-.148-5.225-8.569-7.114-15.4-.731-21.787-3.048-27.6-7.394-6.679-9.152-7.114S338.664,278.369,336.051,280.841Z" transform="translate(-256.231 -195.156)"/><path class="f" d="M339,273.035a112.513,112.513,0,0,1,1.643,19.166c-.246,8.569-3.344,27.743-3.2,37.618a167.644,167.644,0,0,0,1.594,19.6s14.237-19.6,19.462-35.581a147.147,147.147,0,0,0,6.679-30.643c0-1.019.288-24.687.288-24.687S350.33,274.341,339,273.035Z" transform="translate(-261.219 -191.851)"/><path class="e" d="M365.654,268.557c.057-5.324.115-10.047.115-10.047s-15.1,15.831-26.429,14.525c0,0,.534,2.982.986,7.065a15.683,15.683,0,0,0,4.863,2.226c5.241,1.052,11.115-1.881,15.1-6.917C361.76,273.552,363.707,271.022,365.654,268.557Z" transform="translate(-261.557 -191.851)"/><ellipse class="e" cx="14.451" cy="14.303" rx="14.451" ry="14.303" transform="translate(100.005)"/><path class="e" d="M310.743,217.146s-7.755-2.1-9.037-6.293,3.36-18.9,18.46-26.429,28.951-3.36,35.03-1.684,10.491,4.831,14.475,15.946,4.19,19.717,2.933,23.907a59.661,59.661,0,0,1-2.727,7.344s-7.755.822-9.858-2.309-1.257-18.9-10.277-22.65-26.215-1.643-30.4,2.095A70.2,70.2,0,0,0,310.743,217.146Z" transform="translate(-254.804 -177.852)"/><path class="f" d="M311.22,216.575s1.889,11.953,1.889,18.452,5.241,15.527,7.969,18.074,11.748,11.115,16.989,12.167,11.115-1.889,15.1-6.926,11.748-15.1,11.748-15.1A7.468,7.468,0,0,0,372.884,238c2.1-6.088,1.052-13-2.514-13.843s-6.079,3.352-6.079,3.352-2.941-11.321-6.712-16.989l-5.455-8.215,6.958-8.7a.887.887,0,0,0-.181-1.282h0a.9.9,0,0,0-1.224.173l-6.811,8.766s-13.424-2.308-25.172,3.565S311.22,216.575,311.22,216.575Z" transform="translate(-256.539 -180.009)"/><line class="d" x1="1.89" y2="2.522" transform="translate(95.89 48.372)"/><path class="d" d="M332.16,253.654s.419,1.257,3.146,1.89a6.745,6.745,0,0,0,6.917-2.514" transform="translate(-260.276 -190.873)"/><path class="d" d="M336,261.043a15.289,15.289,0,0,0,14.467-4.4s-1.881,7.969-5.66,9.439-3.984-2.522-3.984-2.522Z" transform="translate(-260.961 -191.517)"/><path class="j" d="M345.18,241.7a14.492,14.492,0,0,1,13.21-3.565" transform="translate(-262.599 -188.148)"/><path class="j" d="M326.529,241.43s-4.609-4.617-9.439-2.1" transform="translate(-257.586 -188.294)"/><line class="d" x2="2.3" y2="2.309" transform="translate(58.042 49.99)"/><path class="d" d="M343.39,228.047s6.252-7.2,15.289-.419" transform="translate(-262.28 -185.82)"/><path class="d" d="M325.609,228.123a8.871,8.871,0,0,0-11.329.633" transform="translate(-257.085 -186.11)"/><path class="g" d="M350.748,240.977a1.019,1.019,0,1,1-.978-.978A1.019,1.019,0,0,1,350.748,240.977Z" transform="translate(-263.229 -188.547)"/><path class="g" d="M321.557,239.9a1.019,1.019,0,1,1-1.019-1.01,1.019,1.019,0,0,1,1.019,1.01Z" transform="translate(-258.02 -188.349)"/><path class="h" d="M382.109,215.22s.723,9.439-1.019,16.554l2.76.871s2.177-10.893,1.158-16.989Z" transform="translate(-269.008 -184.125)"/><path class="h" d="M359.49,181.61a25.681,25.681,0,0,1,12.931,14.96c3.335,10.746,2.9,14.089,4.929,15.248s5.956,1.89,6.1-.723-.764-14.27-6.572-21.5C372.519,184.091,363.121,181.758,359.49,181.61Z" transform="translate(-265.153 -178.127)"/><path class="h" d="M378.9,232.775c-4.182-1.282-8.774,1.643-10.269,6.5-1.38,4.494.378,9.078,3.943,10.77a54.829,54.829,0,0,1-11.46,17.885,3.886,3.886,0,0,0-2.728.69c-1.5,1.011-2.152,2.662-1.454,3.7s2.465,1.052,3.968.049,2.037-2.465,1.561-3.467a55.651,55.651,0,0,0,11.682-18.328c3.993.822,8.215-2.037,9.62-6.663C385.256,239.043,383.079,234.056,378.9,232.775Z" transform="translate(-264.646 -187.204)"/><path class="h" d="M385.85,242.905c-.707,3.105-3.508,5.126-6.26,4.5s-4.412-3.656-3.705-6.761,3.508-5.126,6.26-4.51S386.556,239.792,385.85,242.905Z" transform="translate(-268.05 -187.838)"/><path class="f" d="M383.206,297.453s-4.067-10.162-4.929-12.052,6.244-13.071,7.394-14.673,3.335-4.929,3.335-5.66-8.273-8.864-10.023-10.171-4.642,1.643-4.642,1.643-7.55,10.023-7.55,11.181,3.623,4.79,3.623,4.79-5.66,8.133-4.929,11.329a14.107,14.107,0,0,0,3.631,5.956l4.067,15.683Z" transform="translate(-266.212 -191.147)"/><path class="d" d="M371.51,275.033s4.929-3.919,4.5-5.077a1.848,1.848,0,0,0-1.881-1.019" transform="translate(-267.298 -193.709)"/><path class="d" d="M375.76,258.51c.435,0,13.21,8.421,12.923,9.858a12.743,12.743,0,0,1-1.158,3.048" transform="translate(-268.057 -191.851)"/><path class="d" d="M377.53,256.92s12.052,7.55,12.323,8.856a2.67,2.67,0,0,1-.871,2.325" transform="translate(-268.373 -191.567)"/><path class="d" d="M379.12,255.33s12.635,8.569,12.323,9.858a8.946,8.946,0,0,1-1.594,2.9" transform="translate(-268.657 -191.283)"/><path class="e" d="M384.962,305.36,365.5,316.566s25.27,60.12,29.92,68.253,17.137,10.023,23.677,7.846,9.727-15.248,7.55-20.768-17.868-29.649-25.41-41.709S384.962,305.36,384.962,305.36Z" transform="translate(-266.226 -200.212)"/><path class="i" d="M376.67,344s21.36,41.077,26.831,49.292" transform="translate(-268.219 -207.108)"/><line class="i" x2="30.126" y2="46.006" transform="translate(120.494 110.019)"/></g><g transform="translate(134.634 172.798)"><path class="f" d="M271.668,232.28V205.835a3.845,3.845,0,0,0-3.845-3.845h-64.5a3.845,3.845,0,0,0-3.845,3.845V232.28a3.845,3.845,0,0,0,3.845,3.845h55.388l12.611,12.134L268.8,235.985a3.845,3.845,0,0,0,2.867-3.705Z" transform="translate(-166.799 -201.99)"/><circle class="g" cx="2.884" cy="2.884" r="2.884" transform="translate(53.153 13.662)"/><circle class="g" cx="2.884" cy="2.884" r="2.884" transform="translate(65.887 13.662)"/><circle class="g" cx="2.884" cy="2.884" r="2.884" transform="translate(78.629 13.662)"/><path class="e" d="M202.855,232.793v-5.915l-6.219-1.38a16.134,16.134,0,0,0-1.421-3.45l3.409-5.373-4.173-4.182-5.373,3.418a15.428,15.428,0,0,0-3.442-1.421l-1.388-6.219h-5.915l-1.38,6.219a15.33,15.33,0,0,0-3.45,1.421l-5.34-3.418-4.182,4.182,3.36,5.34a15.33,15.33,0,0,0-1.421,3.45l-6.219,1.38v5.915l6.219,1.388a15.427,15.427,0,0,0,1.421,3.475L163.923,243l4.182,4.182,5.373-3.418a15.749,15.749,0,0,0,3.45,1.429l1.38,6.211h5.915l1.388-6.211a15.848,15.848,0,0,0,3.442-1.429l5.373,3.418L198.608,243l-3.393-5.373a16.241,16.241,0,0,0,1.421-3.442Zm-21.549,4.683a7.64,7.64,0,1,1,7.64-7.64,7.64,7.64,0,0,1-7.64,7.64Z" transform="translate(-159.7 -203.111)"/></g><g transform="translate(19.25 256.118)"><rect class="f" width="135.881" height="5.48" transform="translate(242.286 101.73) rotate(180)"/><rect class="f" width="118.432" height="5.48" transform="translate(203.97 101.73) rotate(180)"/><path class="f" d="M117.926,389.909H231.232l-12.216-86.5H105.71Z" transform="translate(-34.68 -303.41)"/><path class="e" d="M112.216,389.909H225.522l-12.216-86.5H100Z" transform="translate(-33.661 -303.41)"/><path class="f" d="M154.66,359.76,143.29,415.2h29.238L183.9,359.76Zm19.832,16.431a1.027,1.027,0,0,1-1.01.822l-16.562-.164a1.035,1.035,0,0,1-.994-1.273l1.5-6.219a1.027,1.027,0,0,1,1.01-.822l16.57.156a1.035,1.035,0,0,1,.986,1.273Z" transform="translate(-41.387 -313.467)"/><rect class="e" width="382.423" height="3.976" transform="translate(382.423 105.706) rotate(180)"/></g><g transform="translate(100.308 74.952)"><path class="d" d="M347.065,106.008,344.65,99H320.39l2.193,41.077H378.99V106.008Z" transform="translate(-154.052 -85.763)"/><path class="d" d="M384.467,140.824l4.814-37.634h-38.2" transform="translate(-159.529 -86.511)"/><circle class="d" cx="28.384" cy="28.384" r="28.384" transform="translate(0 55.268) rotate(-76.8)"/><circle class="d" cx="22.871" cy="22.871" r="22.871" transform="matrix(0.233, -0.973, 0.973, 0.233, 6.561, 51.056)"/><path class="d" d="M161.823,123.761a3.031,3.031,0,1,1-3.031-3.031,3.031,3.031,0,0,1,3.031,3.031Z" transform="translate(-124.67 -89.641)"/><line class="d" y2="5.66" transform="translate(34.031 12.966)"/><line class="d" y2="5.652" transform="translate(34.031 49.73)"/><line class="d" x2="3.993" y2="4.001" transform="translate(19.038 19.177)"/><line class="d" x2="3.993" y2="4.001" transform="translate(45.031 45.17)"/><line class="d" x2="5.652" transform="translate(12.827 34.178)"/><line class="d" x2="5.652" transform="translate(49.582 34.178)"/><line class="d" y1="4.001" x2="3.993" transform="translate(19.038 45.17)"/><line class="d" y1="4.001" x2="3.993" transform="translate(45.031 19.177)"/><line class="d" x1="8.371" transform="translate(22.718 34.12)"/><line class="d" y1="11.05" transform="translate(34.121 20.039)"/><rect class="d" width="65.172" height="41.627" transform="translate(80.373 13.237)"/><path class="d" d="M215.75,99l32.582,20.809L280.922,99" transform="translate(-135.377 -85.763)"/><line class="d" y1="22.461" x2="24.646" transform="translate(80.373 32.403)"/><line class="d" x1="24.646" y1="22.461" transform="translate(120.587 32.403)"/></g></g></svg>