<svg xmlns="http://www.w3.org/2000/svg" xmlns:xlink="http://www.w3.org/1999/xlink" width="513" height="450" viewBox="0 0 513 450"><defs><style>.a{fill:#fff;}.b{fill:red;}.c{fill:navy;font-size:10px;font-family:Poppins-Medium, Poppins;font-weight:500;}.d{filter:url(#i);}.e{filter:url(#g);}.f{filter:url(#e);}.g{filter:url(#c);}.h{filter:url(#a);}</style><filter id="a" x="0" y="0" width="270" height="270" filterUnits="userSpaceOnUse"><feOffset dy="3" input="SourceAlpha"/><feGaussianBlur stdDeviation="18" result="b"/><feFlood flood-color="#757ca2" flood-opacity="0.18"/><feComposite operator="in" in2="b"/><feComposite in="SourceGraphic"/></filter><filter id="c" x="0" y="180" width="270" height="270" filterUnits="userSpaceOnUse"><feOffset dy="3" input="SourceAlpha"/><feGaussianBlur stdDeviation="18" result="d"/><feFlood flood-color="#757ca2" flood-opacity="0.18"/><feComposite operator="in" in2="d"/><feComposite in="SourceGraphic"/></filter><filter id="e" x="243" y="0" width="270" height="270" filterUnits="userSpaceOnUse"><feOffset dy="3" input="SourceAlpha"/><feGaussianBlur stdDeviation="18" result="f"/><feFlood flood-color="#757ca2" flood-opacity="0.18"/><feComposite operator="in" in2="f"/><feComposite in="SourceGraphic"/></filter><filter id="g" x="243" y="180" width="270" height="270" filterUnits="userSpaceOnUse"><feOffset dy="3" input="SourceAlpha"/><feGaussianBlur stdDeviation="18" result="h"/><feFlood flood-color="#757ca2" flood-opacity="0.18"/><feComposite operator="in" in2="h"/><feComposite in="SourceGraphic"/></filter><filter id="i" x="117" y="81" width="270" height="270" filterUnits="userSpaceOnUse"><feOffset dy="3" input="SourceAlpha"/><feGaussianBlur stdDeviation="18" result="j"/><feFlood flood-color="#757ca2" flood-opacity="0.18"/><feComposite operator="in" in2="j"/><feComposite in="SourceGraphic"/></filter></defs><g transform="translate(-944 -2460)"><g class="h" transform="matrix(1, 0, 0, 1, 944, 2460)"><rect class="a" width="162" height="162" rx="4" transform="translate(54 51)"/></g><g class="g" transform="matrix(1, 0, 0, 1, 944, 2460)"><rect class="a" width="162" height="162" rx="4" transform="translate(54 231)"/></g><g class="f" transform="matrix(1, 0, 0, 1, 944, 2460)"><rect class="a" width="162" height="162" rx="4" transform="translate(297 51)"/></g><g class="e" transform="matrix(1, 0, 0, 1, 944, 2460)"><rect class="a" width="162" height="162" rx="4" transform="translate(297 231)"/></g><g class="d" transform="matrix(1, 0, 0, 1, 944, 2460)"><rect class="a" width="162" height="162" rx="4" transform="translate(171 132)"/></g><g transform="translate(1036 2550.002)"><path class="b" d="M43.144,6a1.636,1.636,0,0,0-.869.332A101.447,101.447,0,0,1,14.125,20.8,1.636,1.636,0,0,0,13,22.363c0,17.315,2.1,28.284,6.954,36.434s12.316,13.235,22.474,19a1.636,1.636,0,0,0,.818.2H43.3a1.636,1.636,0,0,0,.818-.2c10.158-5.761,17.622-10.848,22.474-19s6.954-19.119,6.954-36.434a1.636,1.636,0,0,0-1.125-1.56,101.793,101.793,0,0,1-28.2-14.471A1.636,1.636,0,0,0,43.144,6Zm.1,3.6A105.092,105.092,0,0,0,70.22,23.488c-.1,16.316-2.146,26.4-6.443,33.621C59.5,64.3,52.849,68.987,43.272,74.469,33.694,68.987,27.046,64.3,22.767,57.109c-4.3-7.216-6.343-17.3-6.443-33.621A104.736,104.736,0,0,0,43.246,9.6ZM39.1,28.5a1.636,1.636,0,0,0-1.457,1.636V36.4H31.281a1.636,1.636,0,0,0-1.636,1.636v7.926A1.636,1.636,0,0,0,31.281,47.6h6.366v6.264A1.636,1.636,0,0,0,39.283,55.5H47.26A1.636,1.636,0,0,0,48.9,53.862V47.6h6.366A1.636,1.636,0,0,0,56.9,45.962V38.035A1.636,1.636,0,0,0,55.263,36.4H48.9V30.135A1.636,1.636,0,0,0,47.26,28.5H39.283a1.638,1.638,0,0,0-.179,0Zm1.815,3.273h4.7v6.264a1.636,1.636,0,0,0,1.636,1.636h6.366v4.653H47.26a1.636,1.636,0,0,0-1.636,1.636v6.264h-4.7V45.961a1.636,1.636,0,0,0-1.636-1.636H32.917V39.672h6.366a1.636,1.636,0,0,0,1.636-1.636Z" transform="translate(0)"/></g><g transform="translate(1158.395 2636)"><path class="b" d="M9.316,41.217V68.482A4.526,4.526,0,0,0,13.834,73H60.487a4.526,4.526,0,0,0,4.518-4.518V41.217a8.361,8.361,0,0,0,7.729-8.324V25.906h0a1.83,1.83,0,0,0,0-.206q0-.077,0-.154a.228.228,0,0,0-.051-.169c-.051-.059,0-.118-.059-.169s-.051-.088-.073-.14a1.845,1.845,0,0,0-.1-.176l-.088-.1a1.844,1.844,0,0,0-.147-.169h0L60.744,13.85V5.408A4.408,4.408,0,0,0,56.336,1H17.985a4.408,4.408,0,0,0-4.408,4.408v8.471L2.167,24.569h0a1.852,1.852,0,0,0-.14.162l-.132.132a1.837,1.837,0,0,0-.1.162c0,.051-.059.1-.081.147s0,.11-.051.162a1.852,1.852,0,0,0-.059.176v.147a1.829,1.829,0,0,0,0,.213h0v6.98a8.361,8.361,0,0,0,7.707,8.368ZM58.21,16.509l8.082,7.56H8.059l8.082-7.56Zm3.122,24.318V58.989H47.542V48.02a1.837,1.837,0,0,0-1.837-1.837H28.616a1.837,1.837,0,0,0-1.837,1.837v11.02H12.989V40.828A8.376,8.376,0,0,0,16.92,38.1a8.339,8.339,0,0,0,6.517,3.144h.456A8.339,8.339,0,0,0,30.409,38.1a8.339,8.339,0,0,0,6.517,3.144h.456A8.339,8.339,0,0,0,43.9,38.1a8.339,8.339,0,0,0,6.517,3.144h.456A8.339,8.339,0,0,0,57.387,38.1,8.376,8.376,0,0,0,61.332,40.828ZM18.72,27.743h9.86v5.143a4.687,4.687,0,0,1-4.68,4.68h-.456a4.687,4.687,0,0,1-4.68-4.68Zm13.5,0h9.852v5.143a4.687,4.687,0,0,1-4.68,4.68h-.456a4.687,4.687,0,0,1-4.68-4.68Zm13.5,0h9.852v5.143a4.687,4.687,0,0,1-4.68,4.68h-.456a4.687,4.687,0,0,1-4.68-4.68ZM5.231,32.886V27.743h9.852v5.143a4.687,4.687,0,0,1-4.68,4.68H9.977A4.687,4.687,0,0,1,5.26,32.893Zm7.758,35.6V62.663h13.79v6.664H13.834a.845.845,0,0,1-.845-.845Zm17.464.845v-19.5H43.868v19.5Zm30.857-.845a.845.845,0,0,1-.823.845H47.542V62.663h13.79v5.819Zm7.751-35.589a4.687,4.687,0,0,1-4.717,4.68h-.456a4.687,4.687,0,0,1-4.68-4.68V27.75h9.852ZM17.985,4.673H56.307a.735.735,0,0,1,.735.735v7.428H17.221V5.408a.735.735,0,0,1,.764-.735Z" transform="translate(0)"/></g><text class="c" transform="translate(1049 2644)"><tspan x="0" y="0">Healthcare</tspan></text><text class="c" transform="translate(1055 2824)"><tspan x="0" y="0">Telecoms</tspan></text><text class="c" transform="translate(1290 2824)"><tspan x="0" y="0">Public Sector</tspan></text><text class="c" transform="translate(1302 2644)"><tspan x="0" y="0">Finance</tspan></text><text class="c" transform="translate(1182 2725)"><tspan x="0" y="0">Retail</tspan></text><g transform="translate(1044.768 2733.57)"><path class="b" d="M39.39,17.868a5.605,5.605,0,1,0-8.052,3.908c-1.783,14.582-9.908,34.667-19.743,48.3h2.944c1.309-1.894,2.581-3.9,3.813-5.985l14.337-5.366V70.076h2.4V58.724L49.42,64.091c1.232,2.083,2.5,4.091,3.813,5.985h2.944c-9.831-13.628-17.954-33.706-19.74-48.288A5.6,5.6,0,0,0,39.39,17.868ZM29.565,39.426l3.044,2.063-5.821,5.433C27.8,44.42,28.735,41.911,29.565,39.426ZM19.6,61.918c1.771-3.149,3.441-6.445,4.97-9.812l7.582,5.114Zm13.085-6.265L25.227,50.62l.041-.093L32.689,43.6Zm0-16.04-2.612-1.769c1.068-3.35,1.947-6.631,2.612-9.77Zm15.48,22.305-12.551-4.7L43.2,52.105C44.728,55.472,46.4,58.769,48.169,61.918Zm-5.623-11.3-7.461,5.033V43.6l7.421,6.929Zm-1.561-3.7-5.82-5.434,3.044-2.063C39.039,41.911,39.972,44.42,40.984,46.922Zm-5.9-7.31V28.074c.664,3.138,1.543,6.419,2.611,9.769Z" transform="translate(0.675 4.354)"/><path class="b" d="M30.937,11.17a9.445,9.445,0,0,1,3.71,5.616,9.952,9.952,0,0,1-3.786,10.393,2.511,2.511,0,0,0-.661,3.646,2.555,2.555,0,0,0,3.761.254,14.739,14.739,0,0,0,5.527-8.818,15.575,15.575,0,0,0-.152-7.013c-.051-.2-.1-.407-.165-.623a14.424,14.424,0,0,0-5.349-7.534,2.491,2.491,0,0,0-4.053,1.271A2.586,2.586,0,0,0,30.937,11.17Z" transform="translate(9.636 2.019)"/><path class="b" d="M41.222,15.971c1.753,7.75-.229,14.243-5.577,19.414a3.594,3.594,0,0,0-.839,1.118,2.169,2.169,0,0,0,.14,2.16,2.773,2.773,0,0,0,3.989.407c.076-.064.152-.127.229-.2A24.3,24.3,0,0,0,41.844,6.416,13.54,13.54,0,0,0,38.35,2.8,2.488,2.488,0,0,0,35.8,2.77a.012.012,0,0,1-.013.013c-1.525.94-1.576,2.8-.152,4.142A18.22,18.22,0,0,1,41.222,15.971Z" transform="translate(12.07)"/><path class="b" d="M17.026,15.248a15.575,15.575,0,0,0-.152,7.013A14.739,14.739,0,0,0,22.4,31.079a2.555,2.555,0,0,0,3.761-.254,2.511,2.511,0,0,0-.661-3.646,9.952,9.952,0,0,1-3.786-10.393,9.445,9.445,0,0,1,3.71-5.616,2.586,2.586,0,0,0,1.169-2.808A2.491,2.491,0,0,0,22.54,7.091a14.424,14.424,0,0,0-5.349,7.534C17.127,14.842,17.076,15.045,17.026,15.248Z" transform="translate(3.129 2.019)"/><path class="b" d="M18.121,39.069a2.773,2.773,0,0,0,3.989-.407,2.169,2.169,0,0,0,.14-2.16,3.594,3.594,0,0,0-.839-1.118c-5.349-5.171-7.331-11.663-5.578-19.414a18.221,18.221,0,0,1,5.59-9.046c1.423-1.347,1.372-3.2-.152-4.142a.012.012,0,0,1-.013-.013,2.488,2.488,0,0,0-2.554.025,13.542,13.542,0,0,0-3.494,3.621,24.3,24.3,0,0,0,2.681,32.449C17.969,38.942,18.045,39.005,18.121,39.069Z" transform="translate(0 0)"/></g><g transform="translate(1284 2554)"><g transform="translate(2 2)"><path class="b" d="M72.5,29H3.5A1.5,1.5,0,0,1,2,27.5v-6a1.5,1.5,0,0,1,.806-1.33l34.523-18a1.5,1.5,0,0,1,1.388,0l34.477,18A1.5,1.5,0,0,1,74,21.5v6A1.5,1.5,0,0,1,72.5,29ZM5,26H71V22.409L38.023,5.192,5,22.41Z" transform="translate(-2 -2)"/><g transform="translate(0 63)"><path class="b" d="M72.5,53H3.5A1.5,1.5,0,0,1,2,51.5v-6A1.5,1.5,0,0,1,3.5,44h69A1.5,1.5,0,0,1,74,45.5v6A1.5,1.5,0,0,1,72.5,53ZM5,50H71V47H5Z" transform="translate(-2 -44)"/></g><g transform="translate(12 24)"><path class="b" d="M11.5,60A1.5,1.5,0,0,1,10,58.5v-39a1.5,1.5,0,0,1,3,0v39A1.5,1.5,0,0,1,11.5,60Z" transform="translate(-10 -18)"/></g><g transform="translate(3 24)"><path class="b" d="M5.5,60A1.5,1.5,0,0,1,4,58.5v-39a1.5,1.5,0,0,1,3,0v39A1.5,1.5,0,0,1,5.5,60Z" transform="translate(-4 -18)"/></g><g transform="translate(66 24)"><path class="b" d="M47.5,60A1.5,1.5,0,0,1,46,58.5v-39a1.5,1.5,0,0,1,3,0v39A1.5,1.5,0,0,1,47.5,60Z" transform="translate(-46 -18)"/></g><g transform="translate(57 24)"><path class="b" d="M41.5,60A1.5,1.5,0,0,1,40,58.5v-39a1.5,1.5,0,0,1,3,0v39A1.5,1.5,0,0,1,41.5,60Z" transform="translate(-40 -18)"/></g><g transform="translate(28.5 32.25)"><path class="b" d="M28.5,49A7.328,7.328,0,0,1,21,41.875a1.5,1.5,0,0,1,3,0A4.329,4.329,0,0,0,28.5,46a4.141,4.141,0,1,0,0-8.25A7.328,7.328,0,0,1,21,30.625,7.328,7.328,0,0,1,28.5,23.5,7.328,7.328,0,0,1,36,30.625a1.5,1.5,0,0,1-3,0A4.329,4.329,0,0,0,28.5,26.5,4.329,4.329,0,0,0,24,30.625a4.329,4.329,0,0,0,4.5,4.125A7.134,7.134,0,1,1,28.5,49Z" transform="translate(-21 -23.5)"/></g><g transform="translate(34.5 30)"><path class="b" d="M26.5,52A1.5,1.5,0,0,1,25,50.5v-27a1.5,1.5,0,0,1,3,0v27A1.5,1.5,0,0,1,26.5,52Z" transform="translate(-25 -22)"/></g></g></g><g transform="translate(1250.201 2711)"><g transform="translate(45.8 25)"><path class="b" d="M88.328,25H55.3a9.328,9.328,0,0,0-6.72,2.832A9.7,9.7,0,0,0,45.8,34.648v5.28a9.579,9.579,0,0,0,9.456,9.648H70.184V59.992a1.824,1.824,0,1,0,3.648,0V47.752a1.814,1.814,0,0,0-1.776-1.824h-16.7A5.953,5.953,0,0,1,49.5,39.88V34.6a6.222,6.222,0,0,1,1.728-4.32A5.707,5.707,0,0,1,55.352,28.5H88.376a5.953,5.953,0,0,1,5.856,6.048v5.28a6.222,6.222,0,0,1-1.728,4.32,5.707,5.707,0,0,1-4.128,1.776H77.864a1.8,1.8,0,0,0-.048,3.6H88.328a9.328,9.328,0,0,0,6.72-2.832,9.7,9.7,0,0,0,2.784-6.816V34.6A9.609,9.609,0,0,0,88.328,25Z" transform="translate(-45.8 -25)"/><path class="b" d="M70.892,43.445v6.288a1.271,1.271,0,0,1-1.248,1.248h-6.1A1.271,1.271,0,0,1,62.3,49.733V43.445A1.271,1.271,0,0,1,63.548,42.2h6.1A1.21,1.21,0,0,1,70.892,43.445Z" transform="translate(-54.38 -33.941)"/><path class="b" d="M128.34,46.516a4.321,4.321,0,1,1-4.32-4.416A4.354,4.354,0,0,1,128.34,46.516Z" transform="translate(-84.228 -33.892)"/><path class="b" d="M99.453,49.128l-3.312-5.9a1.289,1.289,0,0,0-2.208,0l-3.312,5.9A1.262,1.262,0,0,0,91.725,51H98.4A1.257,1.257,0,0,0,99.453,49.128Z" transform="translate(-69.021 -34.152)"/><path class="b" d="M88.6,111.768a5.473,5.473,0,1,0,5.472-5.568A5.521,5.521,0,0,0,88.6,111.768Zm7.344,0a1.927,1.927,0,0,1-1.872,1.968,1.97,1.97,0,0,1,0-3.936A1.927,1.927,0,0,1,95.944,111.768Z" transform="translate(-68.056 -67.224)"/><path class="b" d="M93.424,134.7H81.808a4.833,4.833,0,0,0-4.8,4.56l-.816,12.864a1.8,1.8,0,0,0,.48,1.344,1.714,1.714,0,0,0,1.3.576H91.5a1.824,1.824,0,0,0,0-3.648H79.888l.72-10.944a1.262,1.262,0,0,1,1.248-1.2H93.472a1.3,1.3,0,0,1,1.248,1.2l.816,12.864A1.785,1.785,0,0,0,97.312,154h.1a1.788,1.788,0,0,0,1.68-1.92l-.816-12.864A4.906,4.906,0,0,0,93.424,134.7Z" transform="translate(-61.6 -82.044)"/><path class="b" d="M117.2,111.968a5.473,5.473,0,1,0,5.472-5.568A5.521,5.521,0,0,0,117.2,111.968ZM122.672,110a1.928,1.928,0,0,1,1.872,1.968,1.9,1.9,0,0,1-1.872,1.968,1.97,1.97,0,0,1,0-3.936Z" transform="translate(-82.928 -67.328)"/><path class="b" d="M133.308,134.7h-5.184a1.846,1.846,0,0,0-1.824,1.776,1.814,1.814,0,0,0,1.776,1.824h5.184a1.3,1.3,0,0,1,1.248,1.2l.816,12.864a1.785,1.785,0,0,0,1.776,1.68h.1a1.788,1.788,0,0,0,1.68-1.92l-.816-12.864A4.79,4.79,0,0,0,133.308,134.7Z" transform="translate(-87.66 -82.044)"/><path class="b" d="M60.2,111.768a5.473,5.473,0,1,0,5.472-5.568A5.521,5.521,0,0,0,60.2,111.768Zm5.472-1.968a1.928,1.928,0,0,1,1.872,1.968,1.874,1.874,0,1,1-1.872-1.968Z" transform="translate(-53.288 -67.224)"/><path class="b" d="M57.7,134.7H52.514a4.841,4.841,0,0,0-4.8,4.608L46.9,152.124a1.817,1.817,0,0,0,1.68,1.92h.1a1.753,1.753,0,0,0,1.776-1.68l.816-12.864a1.262,1.262,0,0,1,1.248-1.2H57.7a1.8,1.8,0,0,0,0-3.6Z" transform="translate(-46.37 -82.044)"/><path class="b" d="M71.048,89.056V82.624a1.824,1.824,0,0,0-3.648,0v6.432a1.824,1.824,0,1,0,3.648,0Z" transform="translate(-57.032 -54.016)"/><path class="b" d="M128.548,89.056V82.624a1.824,1.824,0,0,0-3.648,0v6.432a1.824,1.824,0,1,0,3.648,0Z" transform="translate(-86.932 -54.016)"/></g></g></g></svg>