<svg xmlns="http://www.w3.org/2000/svg" width="398.326" height="305.495" viewBox="0 0 398.326 305.495"><defs><style>.a,.d,.f,.m{fill:#4f4fdb;}.b,.e,.k{fill:#fff;}.b{opacity:0.7;}.c{fill:#263238;}.d,.e,.f,.h,.j,.k,.l,.m{stroke:#263238;}.d,.h,.i,.j,.k,.l,.m{stroke-linecap:round;}.d,.j,.k,.l,.m{stroke-linejoin:round;}.d{stroke-width:1.083px;}.e,.f,.g,.h,.i{stroke-miterlimit:10;}.g,.h,.i,.j,.l{fill:none;}.g,.i{stroke:#fff;}.g,.i,.j{stroke-width:0.5px;}</style></defs><g transform="translate(-53.7 -99.492)"><path class="a" d="M357.5,169.39c16.87,37.34,50.33,61.49,73.81,94C452.94,293.27,460,334.94,441,368.1c-21.73,37.83-67.7,33.14-103.24,20.9-18.55-6.39-39.17-19.06-59.25-19.06-27.58,0-61.88,36.53-117,35C121.28,403.87,73.64,394.63,58,352c-19.58-53.45,32.4-94.76,61.68-131.95,19.78-25.13,32.39-54.92,52.49-79.83,13.24-16.41,30.92-33.49,52.1-37.57,24.92-4.81,49.84-4.69,73.9,4.32C328.82,118.46,344.51,140.63,357.5,169.39Z"/><path class="b" d="M357.5,169.39c16.87,37.34,50.33,61.49,73.81,94C452.94,293.27,460,334.94,441,368.1c-21.73,37.83-67.7,33.14-103.24,20.9-18.55-6.39-39.17-19.06-59.25-19.06-27.58,0-61.88,36.53-117,35C121.28,403.87,73.64,394.63,58,352c-19.58-53.45,32.4-94.76,61.68-131.95,19.78-25.13,32.39-54.92,52.49-79.83,13.24-16.41,30.92-33.49,52.1-37.57,24.92-4.81,49.84-4.69,73.9,4.32C328.82,118.46,344.51,140.63,357.5,169.39Z"/><path class="c" d="M268.68,149.28l6-2.76-1.28-7.25-6.67-.52a29.329,29.329,0,0,0-3.33-6.32l3.44-5.8-5.21-5.21-5.86,3.47a29.13,29.13,0,0,0-11.17-4.56l-1.6-6.68h-7.37l-1.69,6.72a29.14,29.14,0,0,0-6.63,2.11L222,117.92l-6,4.23,2.49,6.51a30.131,30.131,0,0,0-4.24,5.49l-6.93-.71-2.52,6.92,5.74,3.9a29.158,29.158,0,0,0-.41,4.89,17.737,17.737,0,0,0,.08,2.07l-6,3.37,1.91,7.12,6.84-.09a29.379,29.379,0,0,0,3.76,6l-3,6.13,5.65,4.74,5.47-3.92a29.11,29.11,0,0,0,6.59,2.78l1.09,6.6,7.34.64,2.22-6.25a29,29,0,0,0,7.06-1.53l4.63,4.71,6.38-3.68-1.75-6.35a29.559,29.559,0,0,0,4.9-5.34l6.49,1.19,3.11-6.68-5.09-4.19a29.29,29.29,0,0,0,.87-7.19Zm-10.9-.13a18.4,18.4,0,1,1-18.4-18.4,18.4,18.4,0,0,1,18.4,18.4Z"/><path class="d" d="M268.68,145.56l6-2.75-1.28-7.26-6.67-.52a29,29,0,0,0-3.33-6.31l3.44-5.81-5.21-5.21-5.86,3.48a29,29,0,0,0-11.17-4.56l-1.6-6.69h-7.37l-1.69,6.73a29.12,29.12,0,0,0-6.63,2.1L222,114.21l-6,4.22,2.49,6.52a29.46,29.46,0,0,0-4.24,5.49l-6.93-.72-2.52,6.93,5.74,3.89a29.339,29.339,0,0,0-.41,4.89,18,18,0,0,0,.08,2.08l-6,3.37L206,158l6.84-.09a29.31,29.31,0,0,0,3.76,6l-3,6.14,5.65,4.73,5.47-3.92a28.689,28.689,0,0,0,6.59,2.79l1.09,6.59,7.34.65,2.22-6.25a29,29,0,0,0,7.06-1.53l4.63,4.7,6.38-3.68-1.75-6.35a29.23,29.23,0,0,0,4.9-5.34l6.49,1.2,3.11-6.68-5.09-4.2a29.159,29.159,0,0,0,.99-7.2Zm-10.9-.13A18.4,18.4,0,1,1,252.4,132.4,18.4,18.4,0,0,1,257.78,145.43Z"/><path class="c" d="M257.87,251.39l10.75-4.89-2.27-12.9-11.86-.93a51.929,51.929,0,0,0-5.93-11.23l6.11-10.32-9.26-9.26L235,208a51.78,51.78,0,0,0-19.86-8.1l-3-11.89H199l-3,12a51.7,51.7,0,0,0-11.78,3.74l-9.36-8.1-10.73,7.51,4.42,11.59A52.171,52.171,0,0,0,161,224.5l-12.33-1.27-4.48,12.31,10.21,6.93a51.937,51.937,0,0,0-.74,8.7c0,1.24.06,2.46.15,3.68l-10.75,6,3.39,12.65,12.17-.16a51.94,51.94,0,0,0,6.7,10.66l-5.25,10.9,10,8.42,9.72-7a52.361,52.361,0,0,0,11.72,4.95L193.5,313l13.05,1.14L210.49,303a51.868,51.868,0,0,0,12.56-2.72l8.23,8.37,11.35-6.55-3.12-11.29a52.093,52.093,0,0,0,8.72-9.5l11.53,2.13,5.53-11.87-9-7.47a51.559,51.559,0,0,0,1.58-12.71Zm-19.37-.22a32.71,32.71,0,1,1-32.71-32.71A32.71,32.71,0,0,1,238.5,251.17Z"/><path class="d" d="M257.87,246.36l10.75-4.9-2.27-12.9-11.86-.92a51.928,51.928,0,0,0-5.93-11.23l6.11-10.32-9.26-9.27L235,203a51.8,51.8,0,0,0-19.86-8.11l-3-11.88H199l-3,12a51.7,51.7,0,0,0-11.78,3.74l-9.36-8.1-10.73,7.51,4.42,11.59a52.169,52.169,0,0,0-7.53,9.76L148.7,218.2l-4.48,12.31,10.21,6.93a51.91,51.91,0,0,0-.74,8.69c0,1.24.06,2.47.15,3.69l-10.75,6,3.39,12.66,12.17-.16a51.6,51.6,0,0,0,6.67,10.62l-5.25,10.91,10,8.42,9.72-7a51.869,51.869,0,0,0,11.72,4.94L193.5,308l13.05,1.15L210.49,298a51.87,51.87,0,0,0,12.56-2.72l8.23,8.37,11.35-6.55-3.12-11.29a52.091,52.091,0,0,0,8.72-9.5l11.53,2.13,5.53-11.88-9-7.46a51.559,51.559,0,0,0,1.58-12.74Zm-19.37-.23a32.71,32.71,0,1,1-32.71-32.71A32.71,32.71,0,0,1,238.5,246.13Z"/><path class="c" d="M376.41,279.91l10.75-4.9-2.28-12.9L373,261.19A52.409,52.409,0,0,0,367.09,250l6.11-10.33-9.26-9.26-10.4,6.18a51.84,51.84,0,0,0-19.87-8.11l-3-11.88h-13.1l-3,12a51.539,51.539,0,0,0-11.78,3.74l-9.37-8.11-10.73,7.52,4.42,11.59a52.542,52.542,0,0,0-7.52,9.76l-12.34-1.27-4.48,12.31L273,271a53,53,0,0,0-.73,8.69c0,1.24.06,2.47.14,3.68l-10.74,6L265,302l12.16-.16a52.069,52.069,0,0,0,6.68,10.62l-5.25,10.91,10,8.42,9.73-7a51.258,51.258,0,0,0,11.72,5l2,11.73,13,1.14,3.93-11.1a52.129,52.129,0,0,0,12.56-2.72l8.24,8.36,11.34-6.55L358,319.37a52.45,52.45,0,0,0,8.72-9.5L378.29,312l5.54-11.87-9-7.47A52.381,52.381,0,0,0,376.41,279.91ZM357,279.68A32.71,32.71,0,1,1,324.32,247,32.71,32.71,0,0,1,357,279.68Z"/><path class="d" d="M376.41,274.88l10.75-4.9-2.28-12.9L373,256.16a52.48,52.48,0,0,0-5.94-11.24l6.11-10.32-9.26-9.26-10.4,6.18a51.84,51.84,0,0,0-19.87-8.11l-3-11.88h-13.1l-3,12a51.54,51.54,0,0,0-11.78,3.74l-9.37-8.11-10.73,7.52,4.42,11.59a52.209,52.209,0,0,0-7.52,9.76l-12.34-1.27L262.75,259,273,266a53.1,53.1,0,0,0-.73,8.7c0,1.24.06,2.46.14,3.68l-10.74,6L265,297l12.16-.15a52.339,52.339,0,0,0,6.68,10.62l-5.25,10.91,10,8.42,9.73-7a52.158,52.158,0,0,0,11.72,4.95l2,11.73,13,1.14,3.96-11.1a51.66,51.66,0,0,0,12.56-2.72l8.24,8.37,11.34-6.55-3.11-11.28a52.781,52.781,0,0,0,8.72-9.5L378.29,307l5.54-11.87-9-7.47a52.44,52.44,0,0,0,1.58-12.78ZM357,274.65a32.71,32.71,0,1,1-32.71-32.71A32.71,32.71,0,0,1,357,274.65Z"/><path class="e" d="M362.26,305.87a3.53,3.53,0,0,1-.54,2.43c-.81,1.62-2.16,2.16-1.35,3a11.119,11.119,0,0,0,2.7,1.62s.54,5.4,3,7.83,8.1-.54,8.1-.54l2.7,4.86,6.48-3.78s-1.62-1.62-3.51-7.29-4.86-9.72-10.53-10.26S362.26,305.87,362.26,305.87Z"/><path class="e" d="M346.86,331.79l-1.62-4.32c-.81-2.16-2.7-3-4.86-3s-3.24-2.16-4.32-1.89.54,1.89,1.35,2.7a8.321,8.321,0,0,0,1.89,1.35,41.885,41.885,0,0,1-6.75-1.08c-3-.81-2.43.27-.27,2.16s5.4,3.78,6.48,3.78a21.137,21.137,0,0,1,3.78.81L344,335Z"/><path class="e" d="M376.27,296.54l-4.5-1c-2.26-.49-3.33-2.25-3.63-4.39s-2.6-2.9-2.49-4,2,.26,2.87,1a8.54,8.54,0,0,1,1.6,1.68,41.7,41.7,0,0,0-2-6.53c-1.23-2.83-.08-2.44,2.1-.57s4.5,4.81,4.66,5.87a5.94,5.94,0,0,0,1.14,2.3l1.8,2.25Z"/><path class="f" d="M344.16,355.28l-1.62-22.95a5.09,5.09,0,0,1,4.32-.54l7,19.71S348.48,359.06,344.16,355.28Z"/><path class="e" d="M364.42,373.91s-10-3.51-10.81.54,11.89,8.92,16.21,8.65S370.09,376.08,364.42,373.91Z"/><path class="c" d="M382,365.81s-15.93-10-20.25-12.15-9.19-1.62-11.08,2.7,17,21.88,21.34,27.82,14.85,7.56,20.25,7.56,14.85-5.94,15.93-11.07.54-22.42-.81-27-4.59-7.56-8.37-3.24S385.75,366.08,382,365.81Z"/><path class="g" d="M380.94,366.27s-5.12,12.41-4.53,16.55"/><path class="g" d="M403.4,364.5s4.33,5.12,4.52,10.24"/><path class="f" d="M383.59,319.91s-5.94,3.24-8.37,5.94-27,24.57-29.44,25.92-2.7,6.75,1.62,7.29,25.39-10.8,25.39-10.8-1.89,4.86,0,6.48,6.75,3,7.29,5.13-.27,6.48,2.43,8.64,11.07,3,16.2-1.08,4.86-13.77,3.78-20.25.81-30.24-.54-35.64-25.65-18.36-25.65-18.36l-1.08,4.05s16.2,11.88,16.47,13S383.59,319.91,383.59,319.91Z"/><line class="h" y1="3.23" x2="9.82" transform="translate(372.79 345.03)"/><line class="h" x2="8.75" y2="2.83" transform="translate(373.86 347.6)"/><path class="c" d="M370.9,292.91a7.71,7.71,0,0,0-9.45.27c-5.13,3.78-1.89,9.45-.54,11.07l1.35,1.62s4.05,7.29,8.1,10.26,13.23,3.78,13.23,3.78,3.51,3.51,3,13.5-4.05,15.39,2.16,23.49S406,368,411.4,359.6s6.75-17,.27-25.65-17.28-12.42-20.25-13.77-4.05-3.51-4.05-4.59,4.86-13.5,0-20.52S375.22,290.47,370.9,292.91Z"/><path class="i" d="M369.72,294.19s-3.94-1.38-4.73,4.13,2.67,15.05,10.64,18.32"/><path class="i" d="M367.94,302.46A31.75,31.75,0,0,0,375,313.1a21.93,21.93,0,0,0,11.23,5.51"/><path class="i" d="M388.43,322.75s7.28,8.07,4.53,18.71,3.54,21.46,11.62,20.68,8.07-12,8.07-12"/><path class="i" d="M387.05,321.17s4.33.2,10.83,9.06,2.56,16.74,3.35,23.44,6.5,5.51,7.88,2.75"/><path class="c" d="M363.85,152.79c-5.29-6.49-14.43-7.76-21.22-12.38a129.635,129.635,0,0,1-13-10.15h-.31a13.39,13.39,0,0,0-8-4.13c-7-.59-13.89,1.68-13.28,9.6-.4.26-.79.53-1.19.84a7.29,7.29,0,0,0-1.9.53c-4.89,2.06-5.27,12.2-1.62,16.84,1.94,2.46,5.74,4.54,9.23,5.7v.11s.3,1,10.45,2,13.12,5,12.66,9.87a12.76,12.76,0,0,0,3.44,10c1.23,1.73,3.23,3.09,6.44,3.88C364.12,190,375,166.44,363.85,152.79Z"/><path class="i" d="M312.38,138.9A39.69,39.69,0,0,0,330.06,150c10.74,3,22.51-.62,29.52,4.37s7.11,10.13,6.45,13"/><path class="i" d="M310.55,135.54a14.93,14.93,0,0,1,9.75-1c5.39,1.3,9.07,8.15,18.56,12s14.67,1,19.35,3.61"/><path class="i" d="M310.49,140.26a10.83,10.83,0,0,0-4.58,8.83c0,5.91,4.49,6.73,4.49,6.73"/><path class="i" d="M309,139.34s-7.49,4.21-6.94,8.79a7.12,7.12,0,0,0,4.16,5.91"/><path class="c" d="M315,176.55s-6.3,5.52-7.86,12.27-3,31.35-.65,33.59,5.06,1.17,6.72-.71,9.94-28.21,9.94-28.21l2.37.61S335,215.4,336,217.84s4.89,6.39,8.77,4.17,1-19-1-25.22-7.25-21.63-11.41-23.27S317.05,173.29,315,176.55Z"/><path class="f" d="M314,179s5.09,7.66,11.39,6.36,8.08-8.73,7.83-10.32S314,179,314,179Z"/><path class="f" d="M319,152.5s-14.22,4.8-16.9,8.47-6.47,29.62-7,30.67-8,26.27-8,26.27l4.18-.32s12.38-25,12.87-26.06,4.21-16.91,4.21-16.91,1.69,4.62,4.38,5.18,10-.58,15.07-1.36,6.67-1,8.55-3.6,1.61-6.43,1.61-6.43l8.3,17.9-5.62,28.84,4.16,1.63s8.64-26.05,8.93-28.38-5.9-19.24-10-26.74-5-7.35-8.88-9S319,152.5,319,152.5Z"/><path class="e" d="M317.9,159.83s.81,7.35,3.86,8.18,1.95-8.43,1.95-8.43Z"/><path class="e" d="M315.73,145.29a12.88,12.88,0,0,1-4.67,5,22.83,22.83,0,0,0,3.58,7.49c4.48,5.81,6.8,6.1,9.1,4.12,1.94-1.68,3.58-6.82,3.58-11.25C317.39,147.89,315.73,145.29,315.73,145.29Z"/><path class="j" d="M313.26,151.87a2.84,2.84,0,0,1,2.74-.93c1.82.32,2.11,2.71,2.56,4.19s.63,4.31,2.63,1.92"/><path class="j" d="M320.17,150.74s1.68-2.42,4.44,0"/><path class="j" d="M319.34,159.53a2.675,2.675,0,0,0,3.26-.65"/><path class="j" d="M314.89,153.33s1,1.1,2.16-.33"/><path class="j" d="M321.58,152.61a2,2,0,0,0,2.85-.21"/><path class="e" d="M287.22,217.91a20.821,20.821,0,0,0-3.12,5c-.66,2.05-2.93,6.31-1.34,6.06s3.71-5.45,3.71-5.45a10.41,10.41,0,0,0,4.2-2.28,4.12,4.12,0,0,0,.73-3.69Z"/><path class="e" d="M340.77,215.15s-3,3.4-3.22,4.4-.38,5.91-.38,5.91.46.9,1.58-.25a2.69,2.69,0,0,0,1-2.1s-.41,3.64.1,4.86,3.13-.81,3.88-2.22,1.22-9,1.22-9Z"/><path class="k" d="M120.85,309.88s9.72,2.43,6.21,4.05-10.26,1.89-14,.81-4.32-5.13-1.35-5.67S120.85,309.88,120.85,309.88Z"/><path class="k" d="M90.88,341.2l-10.26,2.43,1.08,5.94,2.43.54s-.81,7,.27,10,1.89,8.37,4,7.56.81-12.15,1.62-13.5a42.18,42.18,0,0,1,4.05-4.59l-2.7-7.29Z"/><path class="l" d="M84.33,343s1.23,20.66,4.12,24.66"/><path class="c" d="M110.05,311.77s19.17,4.86,28.08,9.18,13.78,10.8,8.38,15.66-28.63,9.72-35.38,11.61-18.09,4-18.09,4l-2.71-11.94,24.31-5.07-17.28-6.75s-6.21-2.16-3.24-8.64S110.05,311.77,110.05,311.77Z"/><path class="i" d="M114.64,335.26s14.85,2.7,20.52,2.7"/><path class="c" d="M114.1,309.34l6.48,2.7a38.92,38.92,0,0,1,11.34-7.84c6.75-3,14.59-5.4,13.24-13.23s-7.57-8.91-13.78-8.91h-10.8Z"/><path class="k" d="M142.16,241.59s5.54,1.24,6,.61,6-2.86,7.09-3.38,1.71-1.75.52-2-6.56,1.39-6.56,1.39l3.44-4.85s5.24-2.76,4.34-3.8-3.45,0-4.8,0-6.11.37-7.82,2.12-5.58,6.26-5.58,6.26Z"/><path class="m" d="M131.52,253.35l12.29-10.62-4.35-3.19-18.56,7.83h0c-5.62,1.53-12.08,3.52-13.82,5-3.24,2.7-3.24,11.34-3.24,12.15S99,273.15,92.23,279.63s-17.55,11.61-20.25,14,0,20.26,7.83,28.36a66.921,66.921,0,0,0,17.82,12.69s17.82-22.68,20-26.73,2.7-4.87,2.7-4.87,6.75-11.61,6.21-15.12-.81-18.36-.81-21.6,4.86-10.26,5.67-12.69A2.742,2.742,0,0,1,131.52,253.35Z"/><path class="h" d="M103.84,264.51s6.17-8.27,11.39-11"/><path class="k" d="M149.21,248.85a18.43,18.43,0,0,1,.27,6.21c-.54,2.43,2.16,3.51.81,4.59s-2.7,2.43-2.7,2.43l-3,5.94c-.81,1.62-3,3.78-4.87,3.51s-6.21-3.51-7.83-3.51-5.67,2.16-5.67,2.16-.54-8.1-.54-11.07,3.51-3.78,3.51-3.78,2.43-5.13,5.67-7.56S146.51,245.07,149.21,248.85Z"/><path class="l" d="M134.08,264.24s1.62,1.89,2.7,1.89h1.08a21.359,21.359,0,0,0,1.35,3.51"/><path class="l" d="M149.21,254a4.62,4.62,0,0,0-1.89,3.24"/><path class="c" d="M134.08,264.24s-4.05-1.62-7-7.56-4.59-13.5,2.7-19.17,13.78-2.7,17-1.62,8.37,3.78,6.48,9.45-10.53,6.21-10.26,7.56,3,4,1.35,4.59-3.25,1.62-3.25,2.43-.26,3-1.08,3-3.24-5.4-5.13-3.78S134.08,264.24,134.08,264.24Z"/><path class="k" d="M127.06,256.68,129,269.37l4.05,8.91h-8.37a120,120,0,0,1-3.5-13.29,9.06,9.06,0,0,1,3.6-9Z"/><path class="k" d="M167.57,300.69s2.43-5.13,3.24-5.13,5.94-3,7-3.51,2.43-.27,1.89.81-5.13,4.32-5.13,4.32l5.94.27s5.4-2.43,5.67-1.08-2.16,2.7-3,3.78-4,4.6-6.48,4.86-8.37.55-8.37.55Z"/><path class="m" d="M111.13,293.94s26.46,25.12,29.43,25.39,29.17-11.88,29.17-11.88l-2.16-8.11-26.19,6s-20.8-26.74-22.69-26.74-5.13,2.7-5.13,2.7"/><path class="m" d="M111.4,316.9s-15.93,10-19.71,11.34S86,330.4,86,330.4s2.57,3.23,4,3.93c3.33,1.67,7.63.39,7.63.39Z"/></g></svg>