<svg xmlns="http://www.w3.org/2000/svg" width="54" height="54" viewBox="0 0 54 54"><defs><style>.a{fill:navy;}</style></defs><g transform="translate(-3.75 -3.75)"><path class="a" d="M16.885,34.24v3.078H15.426V57.75h7.3V37.318H21.264V34.24a15.324,15.324,0,1,0-4.378,0Zm1.266-10.782a2.11,2.11,0,0,1,.632-.067,7.767,7.767,0,0,1,2.283.385l.513.171a2.9,2.9,0,0,0,.9.166,1.654,1.654,0,0,0,.473-.064,1.191,1.191,0,0,0,.712-.555,1.277,1.277,0,0,0,.157-.711,1.955,1.955,0,0,0-.1-.516,3.242,3.242,0,0,0-.3-.632l-.068-.11a5.881,5.881,0,0,1-.681-3.459,5.286,5.286,0,0,0-1.41-4.292,5.044,5.044,0,0,1-.982-1.574,5.037,5.037,0,0,1-.419-1.807V9.616a9.537,9.537,0,0,1,5.121,1.973l-.3,1.114a4.617,4.617,0,0,0,.8,4.12,1.886,1.886,0,0,1,.266,1.984,3.8,3.8,0,0,0,.945,4.071l.825.825a9.549,9.549,0,0,1-17.248-1.031l.027-.005c.041-.008.092-.015.148-.021l.075-.008c.087-.007.185-.013.3-.013a6.229,6.229,0,0,1,1.471.192l2.03.507a10.587,10.587,0,0,0,2.465.3A4.508,4.508,0,0,0,18.151,23.458ZM12.382,12.384a9.5,9.5,0,0,1,2.371-1.735l.03.151a1.337,1.337,0,0,1-1.042,1.564A3.087,3.087,0,0,0,11.137,15.1a.532.532,0,0,1-.028.158c-.005.017-.014.034-.021.051a.792.792,0,0,1-.055.111q-.017.029-.037.057a1.153,1.153,0,0,1-.087.108c-.015.017-.03.034-.046.051a1.55,1.55,0,0,1-.158.138l-.019.014a1.9,1.9,0,0,1-.2.127c-.024.013-.05.025-.075.038-.053.027-.109.053-.167.076l-.089.034c-.022.008-.045.013-.068.021A9.517,9.517,0,0,1,12.382,12.384Z"/><rect class="a" width="10.216" height="14.595" transform="translate(24.182 43.155)"/><rect class="a" width="10.216" height="27.73" transform="translate(35.858 30.02)"/><rect class="a" width="10.216" height="40.865" transform="translate(47.534 16.885)"/></g></svg>