<svg xmlns="http://www.w3.org/2000/svg" width="22" height="10" viewBox="0 0 22 10"><defs><style>.a{fill:#7f7f7f;}</style></defs><path class="a" d="M11.68,12.973l-4.454-4A1.174,1.174,0,0,0,6.163,8.7a1.041,1.041,0,0,0-.782.7.914.914,0,0,0,.3.954l2.633,2.359H-8.91A1.039,1.039,0,0,0-10,13.7a1.039,1.039,0,0,0,1.09.979h17.2L5.684,17.02a.908.908,0,0,0,.02,1.366,1.181,1.181,0,0,0,1.523.016l4.454-4A.924.924,0,0,0,12,13.714a.138.138,0,0,0,0-.024.153.153,0,0,0,0-.024A.932.932,0,0,0,11.68,12.973Z" transform="translate(10 -8.672)"/></svg>