<svg xmlns="http://www.w3.org/2000/svg" width="80" height="80" viewBox="0 0 80 80"><defs><style>.a{fill:navy;}</style></defs><g transform="translate(-1.459 -1.458)"><path class="a" d="M73.573,1.458a7.887,7.887,0,0,1,7.886,7.886V73.572a7.887,7.887,0,0,1-7.886,7.886H9.345a7.887,7.887,0,0,1-7.886-7.886V9.344A7.887,7.887,0,0,1,9.345,1.458Zm0,3H9.345a4.907,4.907,0,0,0-4.9,4.89V20.789H78.466V9.344a4.91,4.91,0,0,0-4.89-4.89ZM31.868,11.2A1.5,1.5,0,1,1,30.375,12.7,1.484,1.484,0,0,1,31.868,11.2Zm-9.585,0a1.5,1.5,0,1,1-1.5,1.493A1.484,1.484,0,0,1,22.283,11.2Zm-9.587,0A1.5,1.5,0,1,1,11.2,12.7,1.484,1.484,0,0,1,12.7,11.2ZM78.463,23.783H4.452V73.575a4.9,4.9,0,0,0,4.89,4.89H73.57a4.9,4.9,0,0,0,4.89-4.89V24.684ZM46.25,30.377a1.478,1.478,0,0,1,1.493,1.493V70.213a1.484,1.484,0,0,1-1.493,1.5H36.663a1.49,1.49,0,0,1-1.5-1.5V31.869a1.484,1.484,0,0,1,1.5-1.493Zm-1.5,2.991H38.158V68.715h6.594V33.367ZM27.078,55.4a1.49,1.49,0,0,1,1.5,1.5V70.216a1.49,1.49,0,0,1-1.5,1.5H17.491a1.49,1.49,0,0,1-1.5-1.5V56.9a1.49,1.49,0,0,1,1.5-1.5Zm-1.5,3H18.986V68.718H25.58V58.4ZM65.425,44.754a1.484,1.484,0,0,1,1.493,1.5V70.216a1.484,1.484,0,0,1-1.493,1.5H55.832a1.484,1.484,0,0,1-1.493-1.5V46.252a1.484,1.484,0,0,1,1.493-1.5Zm-1.5,2.991H57.33V68.715h6.591V47.744Z" transform="translate(0 0)"/></g></svg>