<svg xmlns="http://www.w3.org/2000/svg" width="40" height="40" viewBox="0 0 40 40"><defs><style>.a{fill:red;}</style></defs><g transform="translate(-12.5 -12.5)"><g transform="translate(12.5 12.5)"><path class="a" d="M51.167,43.167v-8H48.5V32.5H35.167v2.667H32.5V48.5h2.667v2.667H48.5V48.5h2.667V43.167Z" transform="translate(-21.833 -21.833)"/><path class="a" d="M49.833,25.833V20.5H47.167V17.833H44.5V15.167H39.167V12.5H25.833v2.667H20.5v2.667H17.833V20.5H15.167v5.333H12.5V39.167h2.667V44.5h2.667v2.667H20.5v2.667h5.333V52.5H39.167V49.833H44.5V47.167h2.667V44.5h2.667V39.167H52.5V25.833ZM44.5,39.167H41.833v2.667H39.167V44.5H25.833V41.833H23.167V39.167H20.5V25.833h2.667V23.167h2.667V20.5H39.167v2.667h2.667v2.667H44.5V39.167Z" transform="translate(-12.5 -12.5)"/></g></g></svg>