<svg xmlns="http://www.w3.org/2000/svg" width="53.989" height="54" viewBox="0 0 53.989 54"><defs><style>.a{fill:navy;}</style></defs><g transform="translate(-1.505 -1.5)"><path class="a" d="M33.306,2.627H40.55V3.945a3.466,3.466,0,0,0-1.914,3.084v3.862a3.268,3.268,0,0,0-1.165-.126,3.368,3.368,0,0,0-3.049,3.4V19.1H33.306V2.627ZM3.827,10.814a.959.959,0,0,1,.942-.886l9.852,0a1.174,1.174,0,1,0,0-2.348H6.3c-.005,0-.009,0-.014,0a.929.929,0,0,1-.927-.927.918.918,0,0,1,.927-.927l6.911,0a1.174,1.174,0,0,0,0-2.348H8.029a.933.933,0,0,1,0-1.866L23.646,1.5c2.223,0,3.484,2.994,6.785,2.994h.528V17.242h-.528a6.646,6.646,0,0,0-4.1,1.733,4.6,4.6,0,0,1-2.681,1.26H14.183a1.029,1.029,0,0,1-1.06-.876.922.922,0,0,1,.248-.7.909.909,0,0,1,.663-.3s.009,0,.014,0H18.8a1.174,1.174,0,0,0,0-2.348H14.066c-.008,0-.015,0-.023,0h-7a1.016,1.016,0,0,1-1.039-.83.928.928,0,0,1,.914-1.035l.012,0h7.688a1.174,1.174,0,1,0,0-2.348L4.9,11.8A1.033,1.033,0,0,1,3.827,10.814ZM2.621,16.467H3.972a3.481,3.481,0,0,0,3.075,1.89h3.863a3.259,3.259,0,0,0-.127,1.177,3.369,3.369,0,0,0,3.4,3.048h4.907V23.7H2.621V16.467Zm8.252,36.713-.05,0a.953.953,0,0,1-.888-.942c0-1.441,0-10.41,0-9.845a1.174,1.174,0,0,0-2.348,0v8.341s0,.005,0,.008a.933.933,0,0,1-1.866-.006c0-.167,0-7.221,0-6.916a1.174,1.174,0,0,0-2.348,0v5.144c0,.008,0,.015,0,.023a.923.923,0,0,1-.939.927.934.934,0,0,1-.927-.927V33.36c0-1.411.862-1.949,2.033-3.787a5.519,5.519,0,0,0,.949-3.526H17.236v.54c0,3.224,2.994,4.525,2.994,6.773v9.473a1.036,1.036,0,0,1-.943,1.063.94.94,0,0,1-.923-.933s0,0,0-.006V38.209a1.174,1.174,0,0,0-2.348,0v4.755s0,0,0,.006v7A1,1,0,0,1,15.188,51a.921.921,0,0,1-1.039-.919s0-.006,0-.009V42.391a1.174,1.174,0,0,0-2.348,0c0,.118,0,10.189,0,9.717A1.049,1.049,0,0,1,10.873,53.181Zm5.577,1.192V53.051a3.444,3.444,0,0,0,1.914-3.08v-3.86a3.285,3.285,0,0,0,1.166.124,3.368,3.368,0,0,0,3.048-3.4V37.9h1.115v.637c0,.02-.011.037-.011.057V53.681c0,.02.01.037.011.057v.636H16.449Zm36.725-8.216a.96.96,0,0,1-.944.9l-9.853.007a1.174,1.174,0,0,0,0,2.348h8.341c.006,0,.01,0,.016,0a.931.931,0,0,1-.018,1.863H43.8a1.174,1.174,0,1,0,0,2.348h5.163a.933.933,0,0,1,0,1.866L33.353,55.5a2.774,2.774,0,0,1-1.644-.523c-1.684-1.029-2.712-2.47-5.14-2.47H26.04V39.77h.528c3.326,0,4.479-3.006,6.785-3.006h9.474a1.02,1.02,0,0,1,1.047.871.925.925,0,0,1-.293.743.846.846,0,0,1-.625.252c-.01,0-.018.005-.028.006H38.194a1.174,1.174,0,0,0,0,2.348H42.95c.01,0,.018-.005.028-.006h6.974a1.032,1.032,0,0,1,1.038.84.919.919,0,0,1-.955,1.033H42.377a1.174,1.174,0,0,0,0,2.348l9.724-.007A1.054,1.054,0,0,1,53.174,46.157Zm1.2-5.624h-1.35a3.475,3.475,0,0,0-3.076-1.9H46.09a3.26,3.26,0,0,0,.127-1.165,3.361,3.361,0,0,0-3.389-3.049H37.9V33.29H54.378v7.243ZM39.763,30.942v-.528a6.569,6.569,0,0,0-1.724-4.07,4.606,4.606,0,0,1-1.27-2.715V14.167a1.034,1.034,0,0,1,.937-1.062.933.933,0,0,1,.929.933V18.79a1.174,1.174,0,0,0,2.348,0V7.029a1.009,1.009,0,0,1,.84-1.037c.033,0,.066-.007.1-.013h0a.936.936,0,0,1,.926.945s0,0,0,0v7.681a1.174,1.174,0,0,0,2.348,0c0-.118,0-10.186,0-9.715a1.05,1.05,0,0,1,1-1.07H46.2a.938.938,0,0,1,.862.929c0,1.494,0,10.42,0,9.856a1.174,1.174,0,0,0,2.348,0V6.266s0,0,0-.006a.928.928,0,0,1,.926-.922.946.946,0,0,1,.939.927c0,.135,0,7.281,0,6.914a1.174,1.174,0,1,0,2.348,0V8.038c0-.008,0-.015,0-.023a.933.933,0,0,1,1.867,0V23.628a4.435,4.435,0,0,1-1.275,2.746,6.391,6.391,0,0,0-1.718,4.04v.528H39.763Z"/></g></svg>