<svg xmlns="http://www.w3.org/2000/svg" width="54" height="54" viewBox="0 0 54 54"><defs><style>.a{fill:#0a957a;}</style></defs><path class="a" d="M48.938,0H5.063A5.068,5.068,0,0,0,0,5.063v40.5a5.068,5.068,0,0,0,5.063,5.063H22.926l2.881,2.881a1.687,1.687,0,0,0,2.386,0l2.881-2.881H48.938A5.068,5.068,0,0,0,54,45.563V5.063A5.068,5.068,0,0,0,48.938,0ZM30.375,10.125a1.688,1.688,0,0,1,3.375,0v8.438a1.688,1.688,0,0,1-3.375,0ZM16.875,26.99A1.688,1.688,0,0,1,15.188,25.3V21.938a1.688,1.688,0,0,1,3.375,0V25.3A1.688,1.688,0,0,1,16.875,26.99ZM21.938,40.5a1.688,1.688,0,0,1-3.375,0V33.75a1.688,1.688,0,0,1,3.375,0Zm1.688-15.187a1.688,1.688,0,0,1-3.375,0V16.875a1.688,1.688,0,0,1,3.375,0Zm5.063,0a1.688,1.688,0,0,1-3.375,0V16.875a1.688,1.688,0,0,1,3.375,0Zm5.063,9.9V40.5a1.688,1.688,0,0,1-3.375,0V33.75a1.688,1.688,0,0,1,1.688-1.687c2.364,0,3.091-2.848,3.3-5.073h-3.3a1.688,1.688,0,0,1,0-3.375h5.063A1.688,1.688,0,0,1,38.813,25.3C38.813,30.752,36.952,34.315,33.75,35.214Z"/></svg>