<svg xmlns="http://www.w3.org/2000/svg" width="63.885" height="54" viewBox="0 0 63.885 54"><defs><style>.a{fill:navy;}</style></defs><g transform="translate(-2.5 -9.8)"><path class="a" d="M62.216,9.8H6.669A4.19,4.19,0,0,0,2.5,13.969V59.631A4.19,4.19,0,0,0,6.669,63.8H62.216a4.19,4.19,0,0,0,4.169-4.169V14.037A4.2,4.2,0,0,0,62.216,9.8ZM22.405,14.1a2.017,2.017,0,1,1-2.017,2.017A2.068,2.068,0,0,1,22.405,14.1Zm-6.254,0a2.017,2.017,0,1,1-2.017,2.017A1.981,1.981,0,0,1,16.151,14.1Zm-6.321,0a2.017,2.017,0,1,1-2.017,2.017A2.023,2.023,0,0,1,9.83,14.1ZM61.207,58.689H7.678V22.644H61.207V58.689Z"/><path class="a" d="M75.753,43.889A7.587,7.587,0,0,0,68.288,37.5a7.774,7.774,0,0,0-2.488.471l3.228,5.985h6.725Z" transform="translate(-20.732 -9.072)"/><path class="a" d="M65.766,53.484A7.534,7.534,0,0,0,73.231,47.1H65.766a1.273,1.273,0,0,1-1.076-.605L61.126,39.9a7.544,7.544,0,0,0,4.64,13.584Z" transform="translate(-18.21 -9.858)"/><path class="a" d="M20.594,53.085a1.43,1.43,0,0,0,1.009-.471l4.64-6.187,3.833,2.824a1.167,1.167,0,0,0,.941.2,1.247,1.247,0,0,0,.807-.471L36.4,42.8l1.278.941a.8.8,0,0,0,.941.067A1,1,0,0,0,39.155,43l.2-5.044a.963.963,0,0,0-.336-.74.889.889,0,0,0-.807-.134l-4.775,1.614a.969.969,0,0,0-.605.74.875.875,0,0,0,.336.874l1.278.941-3.9,5.313-3.833-2.892a1.167,1.167,0,0,0-.941-.2,1.247,1.247,0,0,0-.807.471l-5.38,7.2a1.275,1.275,0,0,0,.269,1.748A1.356,1.356,0,0,0,20.594,53.085Z" transform="translate(-5.519 -8.922)"/><path class="a" d="M20.174,70.99H23.6a.89.89,0,0,0,.874-.874V65.274A.89.89,0,0,0,23.6,64.4h-3.43a.89.89,0,0,0-.874.874v4.909A.878.878,0,0,0,20.174,70.99Z" transform="translate(-5.502 -17.883)"/><path class="a" d="M35.1,59.4h-3.43a.89.89,0,0,0-.874.874v8.271a.89.89,0,0,0,.874.874H35.1a.89.89,0,0,0,.874-.874V60.274A.89.89,0,0,0,35.1,59.4Z" transform="translate(-9.269 -16.245)"/><path class="a" d="M43.074,54.3a.89.89,0,0,0-.874.874v11.7a.89.89,0,0,0,.874.874H46.5a.89.89,0,0,0,.874-.874v-11.7A.89.89,0,0,0,46.5,54.3Z" transform="translate(-13.003 -14.575)"/><path class="a" d="M59.074,71.678H72.457a.89.89,0,0,0,.874-.874v-3.43a.89.89,0,0,0-.874-.874H59.074a.89.89,0,0,0-.874.874v3.5A.8.8,0,0,0,59.074,71.678Z" transform="translate(-18.243 -18.57)"/></g></svg>