<svg xmlns="http://www.w3.org/2000/svg" width="64.452" height="54" viewBox="0 0 64.452 54"><defs><style>.a{fill:navy;}</style></defs><path class="a" d="M54.871,54H9.581A9.615,9.615,0,0,1,0,44.419V9.581A9.615,9.615,0,0,1,9.581,0h45.29a9.615,9.615,0,0,1,9.581,9.581V44.419A9.615,9.615,0,0,1,54.871,54ZM9.581,5.226A4.355,4.355,0,0,0,5.226,9.581V44.419a4.355,4.355,0,0,0,4.355,4.355h45.29a4.355,4.355,0,0,0,4.355-4.355V9.581a4.355,4.355,0,0,0-4.355-4.355ZM33.619,27.453,52.781,15.259A2.528,2.528,0,0,0,50.1,10.974L32.226,22.157,14.458,10.87a2.528,2.528,0,1,0-2.683,4.285L30.937,27.348a2.543,2.543,0,0,0,2.787,0Z"/></svg>