<svg xmlns="http://www.w3.org/2000/svg" width="54.001" height="54" viewBox="0 0 54.001 54"><defs><style>.a{fill:navy;}</style></defs><g transform="translate(-4.2 -4.2)"><path class="a" d="M52.305,4.2H10.138A5.95,5.95,0,0,0,4.2,10.138V52.305A5.9,5.9,0,0,0,10.095,58.2h42.21A5.9,5.9,0,0,0,58.2,52.305V10.138A5.886,5.886,0,0,0,52.305,4.2ZM29.543,10.955A2.543,2.543,0,0,1,27,13.494a2.516,2.516,0,0,1-2.539-2.539,2.539,2.539,0,0,1,5.077,0Zm-7.616,0a2.543,2.543,0,0,1-2.539,2.539,2.516,2.516,0,0,1-2.539-2.539,2.539,2.539,0,0,1,5.077,0ZM11.816,8.417a2.539,2.539,0,0,1,0,5.077,2.516,2.516,0,0,1-2.539-2.539A2.543,2.543,0,0,1,11.816,8.417ZM56.565,52.305a4.224,4.224,0,0,1-4.217,4.217H10.138a4.224,4.224,0,0,1-4.217-4.217V17.711H56.565V52.305Z"/><path class="a" d="M14.559,59.594l3.614,2.625L16.8,66.436a.817.817,0,0,0,.3.947.839.839,0,0,0,.99,0L21.7,64.758l3.614,2.625a.751.751,0,0,0,.516.172.827.827,0,0,0,.516-.172.817.817,0,0,0,.3-.947l-1.377-4.217,3.614-2.625a.792.792,0,0,0,.344-.775l2.582,1.85-2.41,7.4a.817.817,0,0,0,.3.947.751.751,0,0,0,.516.172.827.827,0,0,0,.516-.172l6.2-4.561,6.282,4.561a.839.839,0,0,0,.99,0,.817.817,0,0,0,.3-.947L42.1,60.713l2.582-1.85a.792.792,0,0,0,.344.775l3.614,2.625-1.377,4.217a.817.817,0,0,0,.3.947.839.839,0,0,0,.99,0L52.166,64.8l3.614,2.625a.751.751,0,0,0,.516.172.827.827,0,0,0,.516-.172.817.817,0,0,0,.3-.947l-1.377-4.217,3.614-2.625a.817.817,0,0,0,.3-.947.88.88,0,0,0-.818-.6H54.4l-1.377-4.217a.88.88,0,0,0-.818-.6.864.864,0,0,0-.818.6l-1.377,4.217H45.8l2.668-1.936a.817.817,0,0,0,.3-.947.88.88,0,0,0-.818-.6H40.118l-2.41-7.4a.88.88,0,0,0-.818-.6.826.826,0,0,0-.818.6l-2.41,7.4H25.919a.826.826,0,0,0-.818.6.817.817,0,0,0,.3.947l2.668,1.936H23.853l-1.377-4.217a.88.88,0,0,0-.818-.6.826.826,0,0,0-.818.6l-1.377,4.217H15.076a.864.864,0,0,0-.818.6A.84.84,0,0,0,14.559,59.594Z" transform="translate(-5.712 -24.156)"/></g></svg>