<svg xmlns="http://www.w3.org/2000/svg" width="57.428" height="54" viewBox="0 0 57.428 54"><defs><style>.a{fill:navy;}</style></defs><g transform="translate(-1 -2.01)"><path class="a" d="M32.8,2.263a.836.836,0,0,0-1.2,0L27.432,6.434l-1.79-1.79a4.227,4.227,0,0,0-5.977,5.977l1.79,1.79-4.171,4.171a.836.836,0,0,0,0,1.2l4.762,4.779a.836.836,0,0,0,1.2,0l2.4-2.381a2.531,2.531,0,1,1,3.58,3.58l-2.381,2.4a.836.836,0,0,0,0,1.2l4.779,4.779a.848.848,0,0,0,.591.253.819.819,0,0,0,.591-.253L47.137,17.8a.836.836,0,0,0,0-1.2Zm-.608,28.064-3.58-3.58,1.79-1.79a4.227,4.227,0,0,0-5.977-5.977l-1.79,1.79-3.563-3.58,4.171-4.171a.836.836,0,0,0,0-1.2l-2.381-2.4a2.531,2.531,0,0,1,3.58-3.58l2.381,2.381a.836.836,0,0,0,1.2,0l4.171-4.171L45.33,17.19Z" transform="translate(11.038 0)"/><path class="a" d="M42.37,29.253H36.46V26.72a4.221,4.221,0,1,0-8.443,0v2.533H22.951v-5.91a.836.836,0,0,0-.844-.844H18.73a2.533,2.533,0,0,1,0-5.066h3.377a.836.836,0,0,0,.844-.844V9.834a.836.836,0,0,0-.844-.844H1.844A.836.836,0,0,0,1,9.834V50.36a.836.836,0,0,0,.844.844H42.37a.836.836,0,0,0,.844-.844V30.1A.836.836,0,0,0,42.37,29.253ZM2.689,10.679H21.263v5.066H18.73a4.221,4.221,0,1,0,0,8.443h2.533v5.066h-5.91a.836.836,0,0,0-.844.844v3.377a2.533,2.533,0,0,1-5.066,0V30.1a.836.836,0,0,0-.844-.844H2.689ZM21.263,43.605v5.91H2.689V30.941H7.754v2.533a4.221,4.221,0,0,0,8.443,0V30.941h5.066v5.91a.836.836,0,0,0,.844.844h3.377a2.533,2.533,0,0,1,0,5.066H22.107A.836.836,0,0,0,21.263,43.605Zm20.263,5.91H22.951V44.45h2.533a4.221,4.221,0,0,0,0-8.443H22.951V30.941h5.91a.836.836,0,0,0,.844-.844V26.72a2.533,2.533,0,1,1,5.066,0V30.1a.836.836,0,0,0,.844.844h5.91Z" transform="translate(0 4.806)"/></g></svg>