<svg xmlns="http://www.w3.org/2000/svg" width="54" height="54" viewBox="0 0 54 54"><defs><style>.a,.b{fill:red;}.a{fill-rule:evenodd;}</style></defs><g transform="translate(-10 -10)"><g transform="translate(24.657 27.862)"><path class="a" d="M110.678,109.27a6.928,6.928,0,0,0-12.333-4.038,6.928,6.928,0,1,0-10.4,9.132l9.442,8.482a1.426,1.426,0,0,0,1.907,0l9.45-8.482A6.9,6.9,0,0,0,110.678,109.27Zm-2.212,1.408a4.57,4.57,0,0,1-.187.837,4.168,4.168,0,0,1-2.037,2.5,7.62,7.62,0,0,0,.706-2.76,5.635,5.635,0,0,0-.077-1.292,5.089,5.089,0,0,0-.336-1.209,6.069,6.069,0,0,0-1.419-2.106,7.287,7.287,0,0,0-1.07-.847,10.949,10.949,0,0,0-1.329-.69A3.865,3.865,0,0,1,104.33,105a4.758,4.758,0,0,1,1.583.546,5.112,5.112,0,0,1,2.231,2.569,6.272,6.272,0,0,1,.258.837,5.732,5.732,0,0,1,.1.866A4.6,4.6,0,0,1,108.466,110.678Z" transform="translate(-85.998 -102.62)"/></g><g transform="translate(10 10)"><g transform="translate(25.573 45.335)"><path class="b" d="M144.143,253.735a1.542,1.542,0,0,1-1.543-1.543v-5.579a1.543,1.543,0,1,1,3.086,0v5.579A1.542,1.542,0,0,1,144.143,253.735Z" transform="translate(-142.6 -245.07)"/></g><g transform="translate(25.341)"><path class="b" d="M142.943,18.665a1.542,1.542,0,0,1-1.543-1.543V11.543a1.543,1.543,0,0,1,3.086,0v5.579A1.542,1.542,0,0,1,142.943,18.665Z" transform="translate(-141.4 -10)"/></g><g transform="translate(0 25.573)"><path class="b" d="M17.122,145.686H11.543a1.543,1.543,0,0,1,0-3.086h5.579a1.543,1.543,0,0,1,0,3.086Z" transform="translate(-10 -142.6)"/></g><g transform="translate(45.335 25.341)"><path class="b" d="M252.192,144.486h-5.579a1.543,1.543,0,1,1,0-3.086h5.579a1.543,1.543,0,0,1,0,3.086Z" transform="translate(-245.07 -141.4)"/></g><g transform="translate(7.539 39.596)"><path class="b" d="M50.633,222.34a1.542,1.542,0,0,1-1.092-2.632l3.946-3.946a1.542,1.542,0,1,1,2.181,2.181l-3.946,3.946A1.535,1.535,0,0,1,50.633,222.34Z" transform="translate(-49.09 -215.31)"/></g><g transform="translate(39.43 7.375)"><path class="b" d="M215.993,55.27a1.542,1.542,0,0,1-1.092-2.632l3.946-3.946a1.542,1.542,0,0,1,2.181,2.181l-3.946,3.946A1.531,1.531,0,0,1,215.993,55.27Z" transform="translate(-214.45 -48.24)"/></g><g transform="translate(7.375 7.539)"><path class="b" d="M53.727,56.122a1.542,1.542,0,0,1-1.092-.451l-3.944-3.948a1.542,1.542,0,0,1,2.181-2.181l3.946,3.946a1.544,1.544,0,0,1-1.092,2.634Z" transform="translate(-48.24 -49.09)"/></g><g transform="translate(39.594 39.432)"><path class="b" d="M220.789,221.49a1.542,1.542,0,0,1-1.092-.451l-3.946-3.946a1.542,1.542,0,0,1,2.181-2.181l3.946,3.946a1.542,1.542,0,0,1-1.09,2.632Z" transform="translate(-215.3 -214.46)"/></g></g></g></svg>