<svg xmlns="http://www.w3.org/2000/svg" width="54.045" height="54" viewBox="0 0 54.045 54"><defs><style>.a{fill:navy;}</style></defs><g transform="translate(-3.4 -3.4)"><path class="a" d="M32.45,42.162a10.168,10.168,0,0,1-2,.178A11.954,11.954,0,0,1,28.8,18.549V3.4a27.025,27.025,0,1,0,8.51,53.109Z" transform="translate(0 0)"/><path class="a" d="M82.25,68.9a11.982,11.982,0,0,1-6.55,8.51l4.856,14.347A27.124,27.124,0,0,0,97.443,68.9Zm.045,18.757-2.985-8.911a15.245,15.245,0,0,0,5.213-6.861h9.49A24.4,24.4,0,0,1,82.294,87.657Z" transform="translate(-40.087 -36.317)"/><g transform="translate(32.049 3.4)"><g transform="translate(0)"><path class="a" d="M86.68,12.935c-.178-.178-.356-.4-.535-.579a28.149,28.149,0,0,0-5.525-4.723l-1.069-.668A26.706,26.706,0,0,0,67.7,3.4V18.549A12.019,12.019,0,0,1,77.948,29.242H93.1A26.9,26.9,0,0,0,86.68,12.935Zm-9.713,7.04a14.755,14.755,0,0,0-6.1-3.876V6.964q1.27.267,2.54.668V9.148a.624.624,0,0,0,1.248,0V8.078h0a23.755,23.755,0,0,1,14.97,18.089h-3.03a.506.506,0,0,0,.134-.356V24.073a.624.624,0,1,0-1.248,0v1.738a.506.506,0,0,0,.134.356H80.532a.506.506,0,0,0,.134-.356V24.073a.609.609,0,0,0-.624-.624.715.715,0,0,0-.49.223h0A15.319,15.319,0,0,0,76.967,19.974Z" transform="translate(-67.7 -3.4)"/><path class="a" d="M108.224,38.785a.609.609,0,0,0,.624-.624V36.424a.624.624,0,1,0-1.248,0v1.738A.609.609,0,0,0,108.224,38.785Z" transform="translate(-89.823 -21.364)"/><path class="a" d="M94.624,26.285a.609.609,0,0,0,.624-.624V23.924a.624.624,0,0,0-1.248,0v1.738A.609.609,0,0,0,94.624,26.285Z" transform="translate(-82.282 -14.434)"/><path class="a" d="M94.624,38.785a.609.609,0,0,0,.624-.624V36.424a.624.624,0,0,0-1.248,0v1.738A.609.609,0,0,0,94.624,38.785Z" transform="translate(-82.282 -21.364)"/><path class="a" d="M81.024,23.4a.609.609,0,0,0-.624.624v1.738a.624.624,0,0,0,1.248,0V24.024A.637.637,0,0,0,81.024,23.4Z" transform="translate(-74.742 -14.489)"/></g></g></g></svg>