<svg xmlns="http://www.w3.org/2000/svg" width="58.775" height="54" viewBox="0 0 58.775 54"><defs><style>.a{fill:navy;}</style></defs><g transform="translate(0 -0.159)"><path class="a" d="M54.594,10.959a4.181,4.181,0,0,1,4.146,4.716l-4.5,34.839A4.181,4.181,0,0,1,50.1,54.159H8.676A4.181,4.181,0,0,1,4.53,50.513L.035,15.674a4.181,4.181,0,0,1,4.146-4.716Zm0,3.484H4.181a.7.7,0,0,0-.691.786l4.5,34.839a.7.7,0,0,0,.691.608H50.1a.7.7,0,0,0,.691-.608l4.5-34.883v-.045A.7.7,0,0,0,54.594,14.443Zm-28.9,8.886.119.071L37.05,30.5a2.439,2.439,0,0,1,.115,4.047l-.115.077-11.237,7.1a2.439,2.439,0,0,1-3.737-1.928l0-.134V25.462a2.439,2.439,0,0,1,3.622-2.133Zm-.138,4.029v10.4l8.235-5.2ZM55.865.159a1.742,1.742,0,1,1,0,3.484H2.91a1.742,1.742,0,1,1,0-3.484H55.865Z" transform="translate(0 0)"/></g></svg>