<svg xmlns="http://www.w3.org/2000/svg" width="29.206" height="54" viewBox="0 0 29.206 54"><defs><style>.a{fill:navy;}</style></defs><path class="a" d="M51.656,6.8H31.15a4.363,4.363,0,0,0-4.35,4.35v45.3a4.363,4.363,0,0,0,4.35,4.35H51.656a4.363,4.363,0,0,0,4.35-4.35V11.212A4.376,4.376,0,0,0,51.656,6.8ZM36.618,10.28H46.25a.746.746,0,1,1,0,1.491H36.618a.746.746,0,1,1,0-1.491ZM41.4,59a2.61,2.61,0,1,1,2.61-2.61A2.626,2.626,0,0,1,41.4,59Zm12.49-7.084H28.851v-37.1H53.893Z" transform="translate(-26.8 -6.8)"/></svg>