<svg xmlns="http://www.w3.org/2000/svg" width="45.6" height="54" viewBox="0 0 45.6 54"><defs><style>.a{fill:navy;}</style></defs><g transform="translate(-11.998 -957.362)"><path class="a" d="M34.8,957.362c-3.017,0-5.4,2.729-5.4,6v2.175a14.679,14.679,0,0,0-10.8,14.025v7.8c-.14,5.3-3.9,11.238-6.15,13.8a1.8,1.8,0,0,0,1.35,3H28.2v.994a6.612,6.612,0,0,0,13.2,0v-.994H55.8a1.8,1.8,0,0,0,1.35-3c-2.25-2.562-6.01-8.5-6.15-13.8v-7.8a14.679,14.679,0,0,0-10.8-14.025v-2.175c0-3.271-2.383-6-5.4-6Zm0,3.6c.972,0,1.8.67,1.8,2.4v1.8H33v-1.8C33,961.632,33.826,960.962,34.8,960.962Zm-3,7.8c.012,0,.025,0,.037,0H37.76c.012,0,.025,0,.037,0,4.756.407,9.6,5.229,9.6,10.8V987.4c.11,5.067,2.462,9.8,4.762,13.162H17.436c2.3-3.365,4.652-8.1,4.762-13.162q0-3.914,0-7.838c0-5.571,4.843-10.393,9.6-10.8Zm2.812,1.2a1.8,1.8,0,1,0,.187,3.6H37.1c2.818.279,5.493,3.5,5.493,8.4a1.8,1.8,0,1,0,3.6,0c0-6.3-3.66-11.56-8.85-12Q35.888,969.96,34.61,969.962Zm9.768,14.362a1.871,1.871,0,0,0-1.781,1.838v1.2a1.8,1.8,0,1,0,3.6,0v-1.2A1.873,1.873,0,0,0,44.379,984.325ZM31.8,1004.162h6v.994a2.787,2.787,0,0,1-3,2.606,2.787,2.787,0,0,1-3-2.606Z" transform="translate(0 0)"/></g></svg>