<svg xmlns="http://www.w3.org/2000/svg" width="51.101" height="54" viewBox="0 0 51.101 54"><defs><style>.a{fill:navy;}</style></defs><g transform="translate(-4)"><g transform="translate(4 2.899)"><path class="a" d="M50.373,8H8.727A4.727,4.727,0,0,0,4,12.727V54.373A4.727,4.727,0,0,0,8.727,59.1H50.373A4.727,4.727,0,0,0,55.1,54.373V12.727A4.727,4.727,0,0,0,50.373,8Zm1.1,43.422a4.055,4.055,0,0,1-4.055,4.055H11.679a4.055,4.055,0,0,1-4.054-4.055V15.679a4.054,4.054,0,0,1,4.054-4.054H47.423a4.054,4.054,0,0,1,4.054,4.054Z" transform="translate(-4 -8)"/></g><g transform="translate(13.06)"><path class="a" d="M62.731,54.345l-.154-.154a2.835,2.835,0,0,0-4.009,0l-4.073,4.073,0,0L46.81,65.948l-7.625-7.625a2.834,2.834,0,0,0-4.009,0l-.154.153a2.835,2.835,0,0,0,0,4.009l9.761,9.761a2.972,2.972,0,0,0,4.111-.057l9.761-9.76.005-.006,4.07-4.07A2.835,2.835,0,0,0,62.731,54.345Z" transform="translate(-32.31 -34.022)"/><path class="a" d="M34.074,6.388A2.571,2.571,0,0,1,31.6,9.06H31.47A2.571,2.571,0,0,1,29,6.388v-3.7A2.587,2.587,0,0,1,31.47,0H31.6a2.587,2.587,0,0,1,2.47,2.689Z" transform="translate(-29)"/><path class="a" d="M111.075,6.388a2.572,2.572,0,0,1-2.469,2.673h-.134A2.571,2.571,0,0,1,106,6.388v-3.7A2.586,2.586,0,0,1,108.471,0h.134a2.587,2.587,0,0,1,2.471,2.689Z" transform="translate(-78.095)"/><path class="a" d="M72.074,6.388A2.571,2.571,0,0,1,69.6,9.06H69.47A2.571,2.571,0,0,1,67,6.388v-3.7A2.587,2.587,0,0,1,69.47,0H69.6a2.587,2.587,0,0,1,2.47,2.689Z" transform="translate(-53.228)"/></g></g></svg>