<svg xmlns="http://www.w3.org/2000/svg" width="54" height="54" viewBox="0 0 54 54"><defs><style>.a{fill:navy;}</style></defs><g transform="translate(-2.4 -2.4)"><path class="a" d="M79.191,62.912a2.155,2.155,0,0,0-2.155,2.155V74.03L63.819,60.813a2.126,2.126,0,0,0-3.006,3.006L74.03,77.093H65.067a2.155,2.155,0,0,0,0,4.311H79.191a2.155,2.155,0,0,0,2.155-2.155V65.067A2.155,2.155,0,0,0,79.191,62.912Z" transform="translate(-25.003 -25.003)"/><path class="a" d="M9.817,6.711h8.962a2.155,2.155,0,1,0,0-4.311H4.655A2.155,2.155,0,0,0,2.5,4.555V18.679a2.155,2.155,0,0,0,4.311,0V9.774L20.084,23.047a2.126,2.126,0,0,0,3.006-3.006Z" transform="translate(-0.043 0)"/><path class="a" d="M19.984,60.808,6.711,74.024V65.062a2.155,2.155,0,0,0-4.311,0V79.186a2.155,2.155,0,0,0,2.155,2.155H18.679a2.155,2.155,0,0,0,0-4.311H9.774L23.047,63.757a2.089,2.089,0,0,0,0-3.006A2.21,2.21,0,0,0,19.984,60.808Z" transform="translate(0 -24.998)"/><path class="a" d="M79.191,2.5H65.067a2.155,2.155,0,1,0,0,4.311H74.03L60.813,20.027a2.126,2.126,0,0,0,3.006,3.006L77.093,9.817v8.962a2.155,2.155,0,0,0,4.311,0V4.655A2.242,2.242,0,0,0,79.191,2.5Z" transform="translate(-25.003 -0.043)"/></g></svg>