<svg xmlns="http://www.w3.org/2000/svg" width="42.882" height="54" viewBox="0 0 42.882 54"><defs><style>.a{fill:navy;}</style></defs><g transform="translate(-4.37 -2.264)"><path class="a" d="M25.811,56.264a5.275,5.275,0,0,1-2.637-.765A38.688,38.688,0,0,1,4.37,22.481V14.042A5.274,5.274,0,0,1,7.719,9.084L23.833,2.649a5.274,5.274,0,0,1,3.956,0L43.9,9.084a5.274,5.274,0,0,1,3.349,4.958v8.439A38.688,38.688,0,0,1,28.554,55.5,5.274,5.274,0,0,1,25.811,56.264Zm0-51.373a2.637,2.637,0,0,0-1,.211L8.669,11.536a2.637,2.637,0,0,0-1.688,2.637v8.439A36.025,36.025,0,0,0,24.492,53.231a2.637,2.637,0,0,0,2.8,0,36.025,36.025,0,0,0,17.406-30.75V14.042A2.637,2.637,0,0,0,43.006,11.4L26.813,5.1a2.637,2.637,0,0,0-1-.211Z" transform="translate(0)"/><path class="a" d="M16.485,27.175a1.424,1.424,0,0,1-.923-.369L7.65,18.736,9.5,16.89l7.121,7.121L31.807,8.82l1.846,1.872L17.566,26.806a1.424,1.424,0,0,1-1.081.369Z" transform="translate(5.37 10.734)"/></g></svg>