<svg xmlns="http://www.w3.org/2000/svg" width="79.778" height="64.35" viewBox="0 0 79.778 64.35"><defs><style>.a{fill:navy;}</style></defs><g transform="translate(-5.222 -13.314)"><circle class="a" cx="2.791" cy="2.791" r="2.791" transform="translate(14.444 30.961)"/><circle class="a" cx="2.79" cy="2.79" r="2.79" transform="translate(11.802 40.646)"/><circle class="a" cx="2.791" cy="2.791" r="2.791" transform="translate(15.839 50.039)"/><circle class="a" cx="2.791" cy="2.791" r="2.791" transform="translate(25.039 54.096)"/><circle class="a" cx="2.79" cy="2.79" r="2.79" transform="translate(35.722 51.837)"/><circle class="a" cx="2.791" cy="2.791" r="2.791" transform="translate(45.101 46.979)"/><circle class="a" cx="2.791" cy="2.791" r="2.791" transform="translate(54.908 42.449)"/><circle class="a" cx="2.791" cy="2.791" r="2.791" transform="translate(64.829 43.469)"/><circle class="a" cx="2.79" cy="2.79" r="2.79" transform="translate(71.645 51.551)"/><circle class="a" cx="2.791" cy="2.791" r="2.791" transform="translate(71.571 61.842)"/><circle class="a" cx="2.791" cy="2.791" r="2.791" transform="translate(65.949 71.242)"/><path class="a" d="M26.2,27.451l6.041-7.223.367,4.12a1.932,1.932,0,0,0,3.848-.343L35.51,13.314l-10.691.953a1.932,1.932,0,0,0,.343,3.848l4.122-.366-6.041,7.222a1.932,1.932,0,1,0,2.963,2.48Z" transform="translate(-2.02 0)"/><path class="a" d="M47.483,61.875c12-6.994,14.388-6.776,16.974-4.615C67,59.39,66.679,63.983,63.737,67.5A1.933,1.933,0,0,0,66.7,69.98c4.38-5.239,4.484-12.128.234-15.684-4.923-4.119-9.887-2.469-21.389,4.236-9.637,5.544-19.89,9.558-29.572,1.459-9.017-7.541-9.312-20.485-.7-30.78a1.932,1.932,0,1,0-2.964-2.479C2.424,38.55,2.935,54.123,13.5,62.957,25.026,72.6,37.143,67.825,47.483,61.875Z" transform="translate(0 -1.463)"/><path class="a" d="M44.461,44.533C33.2,51.11,29.992,51.24,27.415,49.085s-2.32-6.9.573-10.361a1.932,1.932,0,1,0-2.964-2.479c-4.308,5.151-4.349,12.241-.089,15.8,5.006,4.186,10.913,1.989,21.488-4.189,13.328-7.946,21.807-8.291,30.244-1.235s8.494,20.421.127,30.423a1.932,1.932,0,1,0,2.963,2.48c9.757-11.666,9.489-27.419-.611-35.867C69.326,35.448,59.273,35.7,44.461,44.533Z" transform="translate(-1.902 -2.557)"/></g></svg>