<svg xmlns="http://www.w3.org/2000/svg" width="69.619" height="54" viewBox="0 0 69.619 54"><defs><style>.a{fill:navy;}</style></defs><path class="a" d="M76,40.529a8.69,8.69,0,0,0-8.69-8.69H66.278V16.987a1.58,1.58,0,0,0-2.37-1.343L37.6,30.338H19.43a5.53,5.53,0,0,0-5.451,4.5H11.767a6.083,6.083,0,0,0,0,12.087h2.212a5.53,5.53,0,0,0,5.451,4.5h1.185V63.519a6.636,6.636,0,0,0,13.193,0V51.431h3.634L63.908,66.2l.79.237.79-.237a1.58,1.58,0,0,0,.79-1.343V49.93h1.027A8.69,8.69,0,0,0,76,41.24Zm-67.151.316A2.923,2.923,0,0,1,11.767,38H13.9v5.767H11.767a2.923,2.923,0,0,1-2.923-2.923ZM30.728,63.519a3.476,3.476,0,0,1-6.873,0V51.431h6.873Zm5.846-15.247H19.43a2.37,2.37,0,0,1-2.37-2.37V35.868a2.37,2.37,0,0,1,2.37-2.37H36.574ZM63.118,62.1,39.734,48.982v-16.2L63.118,19.673ZM72.835,41.24a5.53,5.53,0,0,1-5.53,5.53H66.278V35h1.027a5.53,5.53,0,0,1,5.53,5.53Z" transform="translate(-6.376 -15.432)"/></svg>