<svg xmlns="http://www.w3.org/2000/svg" width="45.073" height="54" viewBox="0 0 45.073 54"><defs><style>.a{fill:navy;}</style></defs><path class="a" d="M54.595,49.636h6.083a1.346,1.346,0,0,0,1.357-1.3V31.322a1.311,1.311,0,0,0-1.357-1.269H55.8V29.1a16.744,16.744,0,1,1,33.477,0v.952H84.4a1.318,1.318,0,0,0-1.357,1.269V48.334a1.338,1.338,0,0,0,1.357,1.3h1.269v4.343a3.759,3.759,0,0,1-3.72,3.752H73.609a4.187,4.187,0,0,0-8.194,1.2v.153A4.209,4.209,0,0,0,69.6,63.3a4.28,4.28,0,0,0,4-2.943h8.336a6.385,6.385,0,0,0,6.345-6.378V49.636h2.188a4.592,4.592,0,0,0,4.595-4.584V34.6A4.569,4.569,0,0,0,91.9,30.228V29.1a19.369,19.369,0,1,0-38.728,0v1.127A4.569,4.569,0,0,0,50,34.6V45.052A4.592,4.592,0,0,0,54.595,49.636Zm16.629,9.452a1.586,1.586,0,0,1-3.173,0v-.153a1.586,1.586,0,0,1,3.173,0ZM92.447,34.6V45.052a1.966,1.966,0,0,1-1.969,1.958H85.665V32.679h4.814A1.938,1.938,0,0,1,92.447,34.6Zm-39.822,0a1.938,1.938,0,0,1,1.969-1.925h4.814V47.01H54.595a1.966,1.966,0,0,1-1.969-1.958Z" transform="translate(-50 -9.3)"/></svg>