<svg xmlns="http://www.w3.org/2000/svg" width="36" height="54" viewBox="0 0 36 54"><defs><style>.a{fill:navy;}</style></defs><g transform="translate(-12 -2)"><g transform="translate(12 2)"><path class="a" d="M42.6,2H17.4A5.405,5.405,0,0,0,12,7.4V45.2a5.405,5.405,0,0,0,5.4,5.4H42.6A5.405,5.405,0,0,0,48,45.2V7.4A5.405,5.405,0,0,0,42.6,2Zm1.8,43.2A1.8,1.8,0,0,1,42.6,47H17.4a1.8,1.8,0,0,1-1.8-1.8V7.4a1.8,1.8,0,0,1,1.8-1.8H42.6a1.8,1.8,0,0,1,1.8,1.8Z" transform="translate(-12 -2)"/><path class="a" d="M39.6,58h-18A3.6,3.6,0,0,0,18,61.6H43.2A3.6,3.6,0,0,0,39.6,58Z" transform="translate(-12.6 -7.6)"/><rect class="a" width="3.6" height="3.6" transform="translate(7.2 22.5)"/><rect class="a" width="3.6" height="3.6" transform="translate(25.2 22.5)"/><rect class="a" width="3.6" height="3.6" transform="translate(16.2 31.5)"/><rect class="a" width="3.6" height="3.6" transform="translate(16.2 13.5)"/><path class="a" d="M31.6,25a3.6,3.6,0,1,0,3.6,3.6A3.6,3.6,0,0,0,31.6,25Z" transform="translate(-13.6 -4.3)"/></g></g></svg>