<svg xmlns="http://www.w3.org/2000/svg" width="80.478" height="80" viewBox="0 0 80.478 80"><defs><style>.a{fill:navy;}</style></defs><g transform="translate(-11.76 -11.953)"><path class="a" d="M51.544,13.485c1.536-1.374,2.7-1.973,4.5-1.174s2.06,1.923,2.223,3.933c0,.862.075,1.648.075,4.058v63.31c0,2.41,0,3.209-.075,4.071-.162,2-.537,3.159-2.185,3.921s-3,.225-4.52-1.136c-.637-.562-1.249-1.249-2.71-2.76L28.718,70.064l-.212-.212a2.36,2.36,0,0,0-1.686-.737H17.342c-2.71,0-3.284,0-4.42-1.249S11.76,66.281,11.76,63.5v-22.9c0-2.885,0-3.3,1.086-4.445A3.946,3.946,0,0,1,15.419,34.9a15.833,15.833,0,0,1,1.848,0h9.553a2.285,2.285,0,0,0,1.686-.737l.212-.212L48.847,16.257c1.486-1.6,2.073-2.21,2.7-2.772ZM32.676,38.235a8.154,8.154,0,0,1-5.856,2.5h-9.2V63.271h9.2a8.192,8.192,0,0,1,5.856,2.5l19.8,17.345V20.853Z" transform="translate(0 0)"/><path class="a" d="M59.516,61.839,57.755,60.1c-1.249-1.036-.15-2.01.25-2.5a16.758,16.758,0,0,0,.287-20.242c-.5-.674-1.5-2.085-.162-3.372l1.249-1.249a1.8,1.8,0,0,1,2.872.087,22.627,22.627,0,0,1-.1,28.97c-.4.462-1.149,1.249-2.585,0Z" transform="translate(11.296 5.004)"/><path class="a" d="M67.073,73.478l-1.436-1.449c-1.536-1.374-.412-2.3,0-2.8a30.319,30.319,0,0,0,.1-39.959c-.475-.549-1.611-1.548-.212-2.9L66.86,25.04c1.548-1.386,2.5-.537,2.922,0a36.213,36.213,0,0,1,0,48.35c-.437.5-1.249,1.449-2.722.087Z" transform="translate(13.204 3.068)"/></g></svg>