<svg xmlns="http://www.w3.org/2000/svg" xmlns:xlink="http://www.w3.org/1999/xlink" width="82" height="43" viewBox="0 0 82 43"><defs><style>.a{fill:none;}.b{opacity:0.2;clip-path:url(#a);}.c{fill:#fff;}</style><clipPath id="a"><rect class="a" width="82" height="43"/></clipPath></defs><g class="b"><g transform="translate(-948 -623)"><circle class="c" cx="3.5" cy="3.5" r="3.5" transform="translate(948 623)"/></g><g transform="translate(-924 -623)"><circle class="c" cx="3.5" cy="3.5" r="3.5" transform="translate(948 623)"/></g><g transform="translate(-900 -623)"><circle class="c" cx="3.5" cy="3.5" r="3.5" transform="translate(948 623)"/></g><g transform="translate(-876 -623)"><circle class="c" cx="3.5" cy="3.5" r="3.5" transform="translate(948 623)"/></g><g transform="translate(-948 -596)"><circle class="c" cx="3.5" cy="3.5" r="3.5" transform="translate(948 623)"/></g><g transform="translate(-924 -596)"><circle class="c" cx="3.5" cy="3.5" r="3.5" transform="translate(948 623)"/></g><g transform="translate(-900 -596)"><circle class="c" cx="3.5" cy="3.5" r="3.5" transform="translate(948 623)"/></g><g transform="translate(-876 -596)"><circle class="c" cx="3.5" cy="3.5" r="3.5" transform="translate(948 623)"/></g></g></svg>