<svg xmlns="http://www.w3.org/2000/svg" width="89.174" height="94.9" viewBox="0 0 89.174 94.9"><defs><style>.a{fill:#fff;opacity:0.2;}</style></defs><path class="a" d="M93.7,57.6a13.723,13.723,0,0,0-8.5-11.1,12.943,12.943,0,0,0-9-22.3,13.22,13.22,0,0,0-5.3,1.1A13.082,13.082,0,0,0,58.7,17a11.784,11.784,0,0,0-5.3,1.2A13.071,13.071,0,0,0,41.2,9.8,11.784,11.784,0,0,0,35.9,11,12.789,12.789,0,0,0,23.8,2.5a12.974,12.974,0,0,0-13,13,12.517,12.517,0,0,0,4,9.3A14.019,14.019,0,0,0,6.2,35.9L5.1,45.2a4.554,4.554,0,0,0,3.6,5.1c1.1.2,2.3.4,3.4.6l1.1,19.7a5.585,5.585,0,0,0,5.6,5.2h9.8a6.465,6.465,0,0,0,2-.4l.1,2.4A5.563,5.563,0,0,0,36.2,83H46a5.847,5.847,0,0,0,1.9-.4L48,85a5.563,5.563,0,0,0,5.5,5.2h9.8a5.847,5.847,0,0,0,1.9-.4l.1,2.4a5.563,5.563,0,0,0,5.5,5.2h9.8a5.493,5.493,0,0,0,5.5-5.2l1.1-19.7c1.2-.2,2.3-.4,3.4-.6a4.638,4.638,0,0,0,3.6-5.1ZM84.5,37.2a8.4,8.4,0,1,1-8.4-8.4A8.451,8.451,0,0,1,84.5,37.2ZM66.9,28.1A12.463,12.463,0,0,0,63.2,37a8.392,8.392,0,0,1-4.4,1.3h-.1a8.365,8.365,0,0,1-8.3-8.4,8.451,8.451,0,0,1,8.4-8.4A8.644,8.644,0,0,1,66.9,28.1ZM49.4,20.9a12.639,12.639,0,0,0-3.7,8.9,8.4,8.4,0,1,1-4.5-15.5A8.286,8.286,0,0,1,49.4,20.9ZM23.8,7.1a8.27,8.27,0,0,1,8.1,6.5,12.463,12.463,0,0,0-3.7,8.9,8.474,8.474,0,0,1-4.5,1.3,8.351,8.351,0,1,1,.1-16.7Zm5.9,63.2a.9.9,0,0,1-.9.9H19a.9.9,0,0,1-.9-.9L16.9,48.7a2.443,2.443,0,0,0-2-2.2,40.136,40.136,0,0,1-5-.9L11,36.4a9.058,9.058,0,0,1,8.9-8h7.9a6.448,6.448,0,0,1,2,.3A13.671,13.671,0,0,0,32.3,32a13.583,13.583,0,0,0-8.5,11.1l-1.1,9.3a4.638,4.638,0,0,0,3.6,5.1c1.1.3,2.3.5,3.4.7l.3,5.6Zm17.4,7.3a.817.817,0,0,1-.9.8H36.4a.882.882,0,0,1-.9-.8L34.2,56a2.443,2.443,0,0,0-2-2.2,40.136,40.136,0,0,1-5-.9l1.1-9.3a8.97,8.97,0,0,1,8.9-7.9h7.9a7.612,7.612,0,0,1,2.1.3,15.473,15.473,0,0,0,2.4,3.3,13.723,13.723,0,0,0-8.5,11.1L40,59.7a4.638,4.638,0,0,0,3.6,5.1c1.1.2,2.3.4,3.4.6l.3,5.8Zm17.4,7.2a.9.9,0,0,1-.9.9H53.8a.9.9,0,0,1-.9-.9L51.6,63.2a2.342,2.342,0,0,0-2-2.2,40.136,40.136,0,0,1-5-.9l1.1-9.2a9.081,9.081,0,0,1,9-8h7.9a6.448,6.448,0,0,1,2,.3,13.671,13.671,0,0,0,2.5,3.3,13.723,13.723,0,0,0-8.5,11.1l-1.1,9.2a4.638,4.638,0,0,0,3.6,5.1c1.1.2,2.3.4,3.4.6l.3,5.7ZM85.2,68.3a2.35,2.35,0,0,0-2,2.2L82,92a.9.9,0,0,1-.9.9H71.3a.9.9,0,0,1-.9-.9L69.2,70.4a2.443,2.443,0,0,0-2-2.2,40.135,40.135,0,0,1-5-.9l1.1-9.2a9.157,9.157,0,0,1,9-8h7.9a9.072,9.072,0,0,1,9,8h0l1.1,9.3C88.6,67.8,86.9,68,85.2,68.3Z" transform="translate(-5.062 -2.5)"/></svg>